<?xml version="1.0" encoding="utf-8"?>
<!-- Generator: Adobe Illustrator 24.0.1, SVG Export Plug-In . SVG Version: 6.00 Build 0)  -->
<svg version="1.1" id="Layer_1" xmlns="http://www.w3.org/2000/svg" xmlns:xlink="http://www.w3.org/1999/xlink" x="0px" y="0px"
	 viewBox="0 0 358 80" style="enable-background:new 0 0 358 80;" xml:space="preserve">
<style type="text/css">
	.st0{fill:none;stroke:#000000;stroke-width:1.6;stroke-miterlimit:10;}
	.st1{fill:none;stroke:#001696;stroke-width:1.6;stroke-miterlimit:10;}
</style>
<path class="st0" d="M5,7h6.5v25.2h0.1c1.2-1.8,2.8-3.2,5-4.2s4.5-1.5,6.9-1.5c2.6,0,5,0.5,7.2,1.4c2.1,0.9,4,2.2,5.5,3.8
	c1.5,1.6,2.7,3.5,3.5,5.7s1.2,4.5,1.2,7.1c0,2.5-0.4,4.9-1.2,7.1c-0.8,2.2-2,4.1-3.5,5.7c-1.5,1.6-3.3,2.9-5.5,3.8
	c-2.1,0.9-4.5,1.4-7.2,1.4c-2.3,0-4.5-0.5-6.7-1.5s-3.9-2.4-5.1-4.2h-0.1v4.9H5V7z M22.7,56.3c1.7,0,3.3-0.3,4.7-0.9
	c1.4-0.6,2.6-1.4,3.5-2.4c1-1,1.7-2.3,2.2-3.7c0.5-1.5,0.8-3.1,0.8-4.8s-0.3-3.3-0.8-4.8S31.8,37,30.9,36c-1-1-2.1-1.8-3.5-2.4
	c-1.4-0.6-3-0.9-4.7-0.9S19.4,33,18,33.6c-1.4,0.6-2.6,1.4-3.5,2.4c-1,1-1.7,2.3-2.2,3.7c-0.5,1.5-0.8,3.1-0.8,4.8s0.3,3.3,0.8,4.8
	s1.3,2.7,2.2,3.7c1,1,2.1,1.8,3.5,2.4S21,56.3,22.7,56.3z"/>
<path class="st0" d="M49.1,31.5c1.8-1.7,3.9-2.9,6.3-3.8c2.4-0.8,4.8-1.3,7.2-1.3c2.5,0,4.6,0.3,6.4,0.9s3.3,1.5,4.4,2.5
	c1.2,1.1,2,2.3,2.6,3.6c0.6,1.4,0.8,2.8,0.8,4.3v17.4c0,1.2,0,2.3,0.1,3.3c0,1,0.1,2,0.2,2.9h-5.8c-0.1-1.7-0.2-3.5-0.2-5.2H71
	c-1.3,2.4-3,3.9-5,4.9c-2,0.9-4.2,1.4-6.8,1.4c-1.6,0-3.1-0.2-4.5-0.6c-1.4-0.4-2.7-1.1-3.8-1.9C49.8,59,49,58,48.3,56.7
	c-0.6-1.3-0.9-2.7-0.9-4.4c0-2.2,0.5-4.1,1.5-5.5c1-1.5,2.3-2.7,4-3.6c1.7-0.9,3.7-1.6,6-2s4.7-0.6,7.3-0.6H71v-1.4
	c0-0.9-0.2-1.7-0.5-2.6c-0.3-0.9-0.8-1.6-1.5-2.3s-1.5-1.2-2.5-1.7c-1-0.4-2.2-0.6-3.6-0.6c-1.2,0-2.3,0.1-3.3,0.4
	c-0.9,0.2-1.8,0.5-2.6,0.9s-1.5,0.8-2.1,1.3s-1.2,0.9-1.8,1.4L49.1,31.5z M67.4,45c-1.5,0-3.1,0.1-4.7,0.3c-1.6,0.2-3.1,0.5-4.4,1
	c-1.3,0.5-2.4,1.2-3.2,2c-0.8,0.9-1.3,2-1.3,3.3c0,2,0.7,3.4,2,4.2c1.3,0.9,3.1,1.3,5.4,1.3c1.8,0,3.3-0.3,4.5-0.9
	c1.2-0.6,2.3-1.4,3-2.3c0.8-1,1.3-2,1.7-3.2c0.3-1.2,0.5-2.3,0.5-3.5V45H67.4z"/>
<path class="st0" d="M110.8,36.4c-1.2-1.2-2.5-2.2-3.8-2.8s-2.9-1-4.7-1c-1.8,0-3.3,0.3-4.6,1c-1.3,0.6-2.4,1.5-3.3,2.7
	c-0.9,1.1-1.6,2.4-2,3.9c-0.5,1.5-0.7,3-0.7,4.6s0.3,3.1,0.8,4.5s1.3,2.7,2.2,3.7c1,1.1,2.1,1.9,3.5,2.5c1.3,0.6,2.9,0.9,4.5,0.9
	c1.8,0,3.4-0.3,4.7-1c1.3-0.6,2.5-1.6,3.6-2.8l4.6,4.6c-1.7,1.9-3.6,3.2-5.9,4c-2.2,0.8-4.6,1.2-7.1,1.2c-2.6,0-5.1-0.4-7.2-1.3
	c-2.2-0.9-4.1-2.1-5.7-3.6c-1.6-1.6-2.8-3.4-3.7-5.6c-0.9-2.2-1.3-4.6-1.3-7.2c0-2.6,0.4-5.1,1.3-7.3s2.1-4.1,3.6-5.7
	c1.6-1.6,3.4-2.8,5.6-3.7c2.2-0.9,4.6-1.3,7.3-1.3c2.5,0,4.9,0.4,7.2,1.3c2.3,0.9,4.3,2.2,5.9,4.1L110.8,36.4z"/>
<path class="st0" d="M121.1,7h6.5v35.1l14.7-14.8h9l-15.9,15.5l17.3,18.6h-9.2l-15.8-17.7v17.7h-6.5V7H121.1z"/>
<path class="st0" d="M163.6,61.9c-1.3,0-2.4-0.5-3.3-1.4c-0.9-0.9-1.4-2.1-1.4-3.3s0.5-2.4,1.4-3.3s2.1-1.4,3.3-1.4
	c1.3,0,2.4,0.5,3.3,1.4s1.4,2.1,1.4,3.3s-0.5,2.4-1.4,3.3C166,61.4,164.9,61.9,163.6,61.9z"/>
<path class="st1" d="M183.4,46.8c0,1.5,0.3,2.8,1,4.1s1.5,2.3,2.6,3.1c1.1,0.9,2.3,1.5,3.7,2s2.8,0.7,4.3,0.7c2,0,3.8-0.5,5.3-1.4
	s2.9-2.2,4.1-3.7l4.9,3.7c-3.6,4.7-8.6,7-15.1,7c-2.7,0-5.1-0.5-7.3-1.4s-4-2.2-5.5-3.8s-2.7-3.5-3.5-5.7s-1.2-4.5-1.2-7.1
	c0-2.5,0.4-4.9,1.3-7.1c0.9-2.2,2.1-4.1,3.7-5.7c1.6-1.6,3.4-2.9,5.6-3.8c2.2-0.9,4.5-1.4,7.1-1.4c3,0,5.6,0.5,7.7,1.6
	c2.1,1.1,3.8,2.4,5.1,4.1s2.3,3.6,2.9,5.8c0.6,2.1,0.9,4.3,0.9,6.5v2.3h-27.6V46.8z M203.8,41.6c0-1.4-0.3-2.8-0.7-4s-1-2.2-1.8-3.1
	c-0.8-0.9-1.8-1.6-3.1-2.1c-1.2-0.5-2.7-0.8-4.3-0.8s-3,0.3-4.4,0.9c-1.3,0.6-2.4,1.4-3.3,2.3c-0.9,1-1.6,2-2.1,3.2
	s-0.8,2.3-0.8,3.5L203.8,41.6L203.8,41.6z"/>
<path class="st1" d="M218.5,27.3h6.5v5.3h0.1c0.8-1.8,2.2-3.3,4.2-4.4s4.3-1.7,7-1.7c1.6,0,3.2,0.3,4.7,0.8s2.8,1.3,4,2.3
	c1.1,1.1,2,2.4,2.7,4.1c0.7,1.7,1,3.6,1,5.9v22h-6.5V41.3c0-1.6-0.2-2.9-0.6-4.1c-0.4-1.1-1-2-1.7-2.7s-1.5-1.2-2.5-1.5
	c-0.9-0.3-1.9-0.5-2.9-0.5c-1.3,0-2.6,0.2-3.7,0.6c-1.2,0.4-2.2,1.1-3,2.1c-0.9,0.9-1.5,2.1-2,3.6c-0.5,1.4-0.7,3.1-0.7,5.1v17.6
	h-6.5V27.3H218.5z"/>
<path class="st1" d="M292.7,61.5h-6.5v-4.9h-0.1c-1.2,1.8-3,3.2-5.1,4.2c-2.2,1-4.4,1.5-6.7,1.5c-2.6,0-5-0.5-7.2-1.4
	s-4-2.2-5.5-3.8s-2.7-3.5-3.5-5.7s-1.2-4.5-1.2-7.1c0-2.5,0.4-4.9,1.2-7.1c0.8-2.2,2-4.1,3.5-5.7c1.5-1.6,3.3-2.9,5.5-3.8
	c2.1-0.9,4.5-1.4,7.2-1.4c2.4,0,4.8,0.5,6.9,1.5c2.2,1,3.8,2.4,5,4.2h0.1V7h6.5L292.7,61.5L292.7,61.5z M275,56.3
	c1.7,0,3.3-0.3,4.7-0.9c1.4-0.6,2.6-1.4,3.5-2.4c1-1,1.7-2.3,2.2-3.7c0.5-1.5,0.8-3.1,0.8-4.8s-0.3-3.3-0.8-4.8s-1.3-2.7-2.2-3.7
	c-1-1-2.1-1.8-3.5-2.4c-1.4-0.6-3-0.9-4.7-0.9s-3.3,0.3-4.7,0.9c-1.4,0.6-2.6,1.4-3.5,2.4c-1,1-1.7,2.3-2.2,3.7
	c-0.5,1.5-0.8,3.1-0.8,4.8s0.3,3.3,0.8,4.8s1.3,2.7,2.2,3.7c1,1,2.1,1.8,3.5,2.4C271.7,56,273.3,56.3,275,56.3z"/>
<path class="st1" d="M315.9,11.8c-1.5,2.4-2.9,4.8-4,7.1c-1.2,2.3-2.1,4.5-2.9,6.9c-0.8,2.3-1.3,4.7-1.7,7.2
	c-0.4,2.5-0.6,5.2-0.6,8.1c0,5.3,0.8,10.4,2.3,15.3s3.8,9.5,6.9,13.8l-4.3,2.9c-3.3-4.5-5.9-9.5-7.7-14.9S301.1,47,301.1,41
	c0-5.5,0.9-11,2.7-16.6c1.8-5.5,4.4-10.7,7.8-15.4L315.9,11.8z"/>
<path class="st1" d="M319.4,70.2c1.5-2.4,2.9-4.8,4-7.1c1.2-2.3,2.1-4.5,2.9-6.9c0.8-2.3,1.3-4.7,1.7-7.2c0.4-2.5,0.6-5.2,0.6-8.1
	c0-5.3-0.8-10.4-2.3-15.3s-3.8-9.5-6.9-13.8l4.3-2.9c3.3,4.5,5.9,9.5,7.7,14.9c1.8,5.4,2.8,11.1,2.8,17.1c0,5.5-0.9,11-2.7,16.6
	c-1.8,5.5-4.4,10.7-7.8,15.4L319.4,70.2z"/>
<path class="st1" d="M347,71h-5.9l5-17.7h6.9L347,71z M342.9,31.7c0-1.3,0.5-2.4,1.4-3.3s2.1-1.4,3.3-1.4s2.4,0.5,3.3,1.4
	s1.4,2.1,1.4,3.3c0,1.2-0.5,2.4-1.4,3.3c-0.9,0.9-2.1,1.4-3.3,1.4s-2.4-0.5-3.3-1.4S342.9,33,342.9,31.7z"/>
</svg>
