<?xml version="1.0" encoding="utf-8"?>
<!-- Generator: Adobe Illustrator 24.0.1, SVG Export Plug-In . SVG Version: 6.00 Build 0)  -->
<svg version="1.1" id="Layer_1" xmlns="http://www.w3.org/2000/svg" xmlns:xlink="http://www.w3.org/1999/xlink" x="0px" y="0px"
	 viewBox="0 0 241 80" style="enable-background:new 0 0 241 80;" xml:space="preserve">
<style type="text/css">
	.st0{fill:none;stroke:#000000;stroke-width:1.6;stroke-miterlimit:10;}
</style>
<g>
	<path class="st0" d="M41.9,58.6h-6.5v-4.9h-0.1c-1.2,1.8-3,3.2-5.1,4.2c-2.2,1-4.4,1.5-6.7,1.5c-2.6,0-5-0.5-7.2-1.4
		c-2.1-0.9-4-2.2-5.5-3.8s-2.7-3.5-3.5-5.7S6.1,44,6.1,41.4c0-2.5,0.4-4.9,1.2-7.1c0.8-2.2,2-4.1,3.5-5.7s3.3-2.9,5.5-3.8
		c2.1-0.9,4.5-1.4,7.2-1.4c2.4,0,4.8,0.5,6.9,1.5c2.2,1,3.8,2.4,5,4.2h0.1v-25H42L41.9,58.6L41.9,58.6z M24.2,53.4
		c1.7,0,3.3-0.3,4.7-0.9c1.4-0.6,2.6-1.4,3.5-2.4c1-1,1.7-2.3,2.2-3.7c0.5-1.5,0.8-3.1,0.8-4.8s-0.3-3.3-0.8-4.8s-1.3-2.7-2.2-3.7
		c-1-1-2.1-1.8-3.5-2.4s-3-0.9-4.7-0.9s-3.3,0.3-4.7,0.9C18.2,31.1,17,31.9,16,33c-1,1-1.7,2.3-2.2,3.7c-0.5,1.5-0.8,3.1-0.8,4.8
		s0.3,3.3,0.8,4.8S15.1,49,16,50c1,1,2.1,1.8,3.5,2.4C20.9,53.1,22.5,53.4,24.2,53.4z"/>
	<path class="st0" d="M56.6,43.9c0,1.5,0.3,2.8,1,4.1s1.5,2.3,2.6,3.1c1.1,0.9,2.3,1.5,3.7,2c1.4,0.5,2.8,0.7,4.3,0.7
		c2,0,3.8-0.5,5.3-1.4s2.9-2.2,4.1-3.7l4.9,3.7c-3.6,4.7-8.6,7-15.1,7c-2.7,0-5.1-0.5-7.3-1.4s-4-2.2-5.5-3.8s-2.7-3.5-3.5-5.7
		s-1.2-4.5-1.2-7.1c0-2.5,0.4-4.9,1.3-7.1c0.9-2.2,2.1-4.1,3.7-5.7c1.6-1.6,3.4-2.9,5.6-3.8c2.2-0.9,4.5-1.4,7.1-1.4
		c3,0,5.6,0.5,7.7,1.6s3.8,2.4,5.1,4.1c1.3,1.7,2.3,3.6,2.9,5.8c0.6,2.1,0.9,4.3,0.9,6.5v2.3H56.6V43.9z M77.1,38.7
		c0-1.4-0.3-2.8-0.7-4c-0.4-1.2-1-2.2-1.8-3.1c-0.8-0.9-1.8-1.6-3.1-2.1c-1.2-0.5-2.7-0.8-4.3-0.8c-1.6,0-3,0.3-4.4,0.9
		c-1.3,0.6-2.4,1.4-3.3,2.3c-0.9,1-1.6,2-2.1,3.2c-0.5,1.2-0.8,2.3-0.8,3.5h20.5V38.7z"/>
	<path class="st0" d="M109.9,33c-0.8-1-1.7-1.8-2.8-2.4c-1.1-0.6-2.5-1-4.1-1c-1.5,0-2.9,0.3-4,1c-1.1,0.6-1.7,1.6-1.7,2.8
		c0,1,0.3,1.8,1,2.4c0.6,0.6,1.4,1.1,2.3,1.5s1.8,0.7,2.8,0.9s1.9,0.4,2.6,0.5c1.4,0.3,2.7,0.7,3.9,1.2c1.2,0.5,2.3,1.1,3.2,1.9
		c0.9,0.8,1.6,1.7,2.1,2.8s0.8,2.4,0.8,4c0,1.9-0.4,3.6-1.2,4.9c-0.8,1.4-1.9,2.5-3.2,3.3s-2.8,1.5-4.4,1.9c-1.7,0.4-3.3,0.6-5,0.6
		c-2.8,0-5.3-0.4-7.5-1.3c-2.1-0.9-4-2.4-5.7-4.8l4.9-4c1.1,1.1,2.2,2,3.5,2.8s2.9,1.2,4.8,1.2c0.8,0,1.6-0.1,2.5-0.3
		s1.6-0.4,2.2-0.8c0.6-0.4,1.2-0.8,1.6-1.4c0.4-0.6,0.6-1.2,0.6-1.9c0-1-0.3-1.8-0.9-2.4c-0.6-0.6-1.3-1.1-2.2-1.5
		c-0.8-0.4-1.7-0.6-2.7-0.9c-0.9-0.2-1.8-0.4-2.5-0.5c-1.4-0.3-2.7-0.7-4-1.2s-2.4-1-3.3-1.7c-1-0.7-1.7-1.6-2.3-2.7
		c-0.6-1.1-0.9-2.5-0.9-4.1c0-1.8,0.4-3.3,1.1-4.6c0.7-1.3,1.7-2.4,3-3.3c1.2-0.9,2.6-1.5,4.2-1.9s3.1-0.6,4.7-0.6
		c2.3,0,4.5,0.4,6.6,1.3s3.8,2.3,5,4.3L109.9,33z"/>
	<path class="st0" d="M122.7,12.2c0-1.3,0.5-2.4,1.4-3.3c0.9-0.9,2.1-1.4,3.3-1.4s2.4,0.5,3.3,1.4c0.9,0.9,1.4,2.1,1.4,3.3
		s-0.5,2.4-1.4,3.3c-0.9,0.9-2.1,1.4-3.3,1.4s-2.4-0.5-3.3-1.4C123.2,14.6,122.7,13.5,122.7,12.2z M124.2,24.4h6.5v34.1h-6.5V24.4z"
		/>
	<path class="st0" d="M175.2,58.3c0,2.6-0.4,5-1.3,7.1c-0.9,2.1-2.1,4-3.8,5.5c-1.6,1.6-3.6,2.8-5.9,3.6c-2.3,0.9-4.8,1.3-7.6,1.3
		c-3.3,0-6.3-0.5-9-1.4s-5.3-2.5-7.7-4.8l4.4-5.5c1.7,1.8,3.5,3.2,5.5,4.1s4.2,1.4,6.7,1.4c2.4,0,4.4-0.3,6-1s2.8-1.6,3.8-2.7
		c0.9-1.1,1.6-2.4,2-3.8c0.4-1.4,0.6-2.8,0.6-4.3v-5h-0.2c-1.2,2.1-2.9,3.6-5.1,4.6c-2.1,1-4.4,1.5-6.7,1.5c-2.5,0-4.8-0.4-6.9-1.3
		c-2.1-0.9-4-2.1-5.5-3.7c-1.5-1.6-2.7-3.4-3.6-5.5c-0.9-2.1-1.3-4.5-1.3-6.9c0-2.5,0.4-4.8,1.2-7s2-4.1,3.5-5.7s3.3-2.9,5.5-3.8
		c2.1-0.9,4.5-1.4,7.2-1.4c2.3,0,4.5,0.5,6.7,1.5s3.9,2.4,5.1,4.2h0.1v-4.9h6.5v33.9H175.2z M157.5,29.6c-1.7,0-3.3,0.3-4.7,0.9
		s-2.6,1.4-3.5,2.4c-1,1-1.7,2.3-2.2,3.7c-0.5,1.5-0.8,3.1-0.8,4.8c0,3.5,1,6.2,3,8.3s4.8,3.1,8.2,3.1s6.2-1,8.2-3.1s3-4.9,3-8.3
		c0-1.7-0.3-3.3-0.8-4.8s-1.3-2.7-2.2-3.7c-1-1-2.1-1.8-3.5-2.4C160.8,29.9,159.2,29.6,157.5,29.6z"/>
	<path class="st0" d="M185,24.4h6.5v5.3h0.1c0.8-1.8,2.2-3.3,4.2-4.4s4.3-1.7,7-1.7c1.6,0,3.2,0.3,4.7,0.8s2.8,1.3,4,2.3
		c1.1,1.1,2,2.4,2.7,4.1c0.7,1.7,1,3.6,1,5.9v22h-6.5V38.4c0-1.6-0.2-2.9-0.6-4.1c-0.4-1.1-1-2-1.7-2.7c-0.7-0.7-1.5-1.2-2.5-1.5
		c-0.9-0.3-1.9-0.5-2.9-0.5c-1.3,0-2.6,0.2-3.7,0.6c-1.2,0.4-2.2,1.1-3,2.1c-0.9,0.9-1.5,2.1-2,3.6c-0.5,1.4-0.7,3.1-0.7,5.1v17.6
		H185V24.4z"/>
	<path class="st0" d="M230.2,59c-1.3,0-2.4-0.5-3.3-1.4c-0.9-0.9-1.4-2.1-1.4-3.3s0.5-2.4,1.4-3.3c0.9-0.9,2.1-1.4,3.3-1.4
		s2.4,0.5,3.3,1.4c0.9,0.9,1.4,2.1,1.4,3.3s-0.5,2.4-1.4,3.3C232.6,58.5,231.5,59,230.2,59z"/>
</g>
</svg>
