<?xml version="1.0" encoding="utf-8"?>
<!-- Generator: Adobe Illustrator 24.0.1, SVG Export Plug-In . SVG Version: 6.00 Build 0)  -->
<svg version="1.1" id="Layer_1" xmlns="http://www.w3.org/2000/svg" xmlns:xlink="http://www.w3.org/1999/xlink" x="0px" y="0px"
	 viewBox="0 0 410 80" style="enable-background:new 0 0 410 80;" xml:space="preserve">
<style type="text/css">
	.st0{fill:none;stroke:#FF5E00;stroke-width:1.6;stroke-miterlimit:10;}
	.st1{fill:none;stroke:#000000;stroke-width:1.6;stroke-miterlimit:10;}
</style>
<g>
	<path class="st0" d="M4.4,47.2v-5.9l38.4-15.8v5.6L10.3,44.2l32.5,13.1V63C30,57.7,17.2,52.5,4.4,47.2z"/>
	<path class="st1" d="M55,37.6h-7.3V32H55v-7.6c0-4.6,0.9-8,2.6-10.2c1.8-2.2,4.8-3.3,9-3.3c0.7,0,1.5,0,2.3,0.1s1.6,0.2,2.6,0.4
		L70.8,17c-0.6-0.2-1.2-0.4-1.8-0.5c-0.6-0.1-1.2-0.1-1.9-0.1c-1.2,0-2.2,0.2-2.9,0.5c-0.7,0.4-1.3,0.9-1.7,1.5
		c-0.4,0.7-0.7,1.5-0.8,2.4s-0.2,2-0.2,3.2v7.8h7.7v5.6h-7.8v28.5H55V37.6z"/>
	<path class="st1" d="M76.5,31.9H83v5.3h0.1c0.4-0.9,1-1.7,1.7-2.5c0.7-0.7,1.5-1.4,2.4-1.9s1.9-0.9,2.9-1.3
		c1.1-0.3,2.1-0.5,3.2-0.5s2,0.1,2.9,0.4l-0.3,7c-0.5-0.1-1.1-0.3-1.6-0.4c-0.5,0-1,0-1.5,0c-3.2,0-5.6,0.9-7.3,2.7
		C83.8,42.5,83,45.2,83,49v17.1h-6.5V31.9z"/>
	<path class="st1" d="M100.2,49c0-2.5,0.5-4.8,1.4-7s2.2-4.1,3.9-5.7c1.6-1.6,3.6-2.9,5.8-3.9c2.2-0.9,4.6-1.4,7.1-1.4
		s4.9,0.5,7.1,1.4c2.2,0.9,4.1,2.2,5.8,3.9c1.6,1.6,2.9,3.5,3.9,5.7s1.4,4.5,1.4,7s-0.5,4.8-1.4,7s-2.2,4.1-3.9,5.7
		c-1.6,1.6-3.6,2.9-5.8,3.8c-2.2,0.9-4.6,1.4-7.1,1.4s-4.9-0.5-7.1-1.4s-4.1-2.2-5.8-3.8c-1.6-1.6-2.9-3.5-3.9-5.7
		S100.2,51.5,100.2,49z M107.1,49c0,1.7,0.3,3.3,0.8,4.8s1.3,2.7,2.2,3.7c1,1,2.1,1.8,3.5,2.4c1.4,0.6,3,0.9,4.7,0.9
		s3.3-0.3,4.7-0.9c1.4-0.6,2.6-1.4,3.5-2.4c1-1,1.7-2.3,2.2-3.7c0.5-1.5,0.8-3.1,0.8-4.8s-0.3-3.3-0.8-4.8s-1.3-2.7-2.2-3.7
		c-1-1-2.1-1.8-3.5-2.4c-1.4-0.6-3-0.9-4.7-0.9s-3.3,0.3-4.7,0.9c-1.4,0.6-2.6,1.4-3.5,2.4c-1,1-1.7,2.3-2.2,3.7
		C107.3,45.7,107.1,47.3,107.1,49z"/>
	<path class="st1" d="M144.6,31.9h6.5v5.3h0.1c0.8-1.8,2.2-3.3,4.2-4.4s4.3-1.7,7-1.7c1.6,0,3.2,0.3,4.7,0.8c1.5,0.5,2.8,1.3,4,2.3
		c1.1,1.1,2,2.4,2.7,4.1c0.7,1.7,1,3.6,1,5.9v22h-6.5V45.9c0-1.6-0.2-2.9-0.6-4.1c-0.4-1.1-1-2-1.7-2.7s-1.5-1.2-2.5-1.5
		s-1.9-0.5-2.9-0.5c-1.3,0-2.6,0.2-3.7,0.6c-1.2,0.4-2.2,1.1-3,2.1c-0.9,0.9-1.5,2.1-2,3.6c-0.5,1.4-0.7,3.1-0.7,5.1v17.6h-6.5V31.9
		H144.6z"/>
	<path class="st1" d="M202.9,37.6h-9.3V53c0,1,0,1.9,0.1,2.8c0,0.9,0.2,1.8,0.5,2.5s0.8,1.3,1.4,1.8c0.6,0.5,1.6,0.7,2.8,0.7
		c0.8,0,1.6-0.1,2.4-0.2c0.8-0.1,1.6-0.4,2.2-0.8v5.9c-0.8,0.4-1.8,0.7-3,0.9c-1.2,0.2-2.2,0.3-2.8,0.3c-2.5,0-4.4-0.3-5.8-1
		s-2.4-1.6-3-2.7c-0.6-1.1-1-2.3-1.2-3.7c-0.1-1.4-0.2-2.7-0.2-4.1V37.6h-7.5V32h7.5v-9.6h6.5V32h9.3v5.6H202.9z"/>
	<path class="st1" d="M212.9,15.1h32.9v6.5h-26v15.2H244v6.5h-24.2v16.3h27.3v6.5h-34.2L212.9,15.1L212.9,15.1z"/>
	<path class="st1" d="M255.3,31.9h6.5v5.3h0.1c0.8-1.8,2.2-3.3,4.2-4.4c2-1.1,4.3-1.7,7-1.7c1.6,0,3.2,0.3,4.7,0.8
		c1.5,0.5,2.8,1.3,4,2.3c1.1,1.1,2,2.4,2.7,4.1c0.7,1.7,1,3.6,1,5.9v22H279V45.9c0-1.6-0.2-2.9-0.6-4.1c-0.4-1.1-1-2-1.7-2.7
		s-1.5-1.2-2.5-1.5c-0.9-0.3-1.9-0.5-2.9-0.5c-1.3,0-2.6,0.2-3.7,0.6c-1.2,0.4-2.2,1.1-3,2.1c-0.9,0.9-1.5,2.1-2,3.6
		c-0.5,1.4-0.7,3.1-0.7,5.1v17.6h-6.5L255.3,31.9L255.3,31.9z"/>
	<path class="st1" d="M329.5,66.1H323v-4.9h-0.1c-1.2,1.8-3,3.2-5.1,4.2c-2.2,1-4.4,1.5-6.7,1.5c-2.6,0-5-0.5-7.2-1.4
		s-4-2.2-5.5-3.8s-2.7-3.5-3.5-5.7s-1.2-4.5-1.2-7.1c0-2.5,0.4-4.9,1.2-7.1c0.8-2.2,2-4.1,3.5-5.7c1.5-1.6,3.3-2.9,5.5-3.8
		c2.1-0.9,4.5-1.4,7.2-1.4c2.4,0,4.8,0.5,6.9,1.5c2.2,1,3.8,2.4,5,4.2h0.1v-25h6.5L329.5,66.1L329.5,66.1z M311.8,60.9
		c1.7,0,3.3-0.3,4.7-0.9c1.4-0.6,2.6-1.4,3.5-2.4c1-1,1.7-2.3,2.2-3.7c0.5-1.5,0.8-3.1,0.8-4.8s-0.3-3.3-0.8-4.8s-1.3-2.7-2.2-3.7
		c-1-1-2.1-1.8-3.5-2.4c-1.4-0.6-3-0.9-4.7-0.9s-3.3,0.3-4.7,0.9c-1.4,0.6-2.6,1.4-3.5,2.4c-1,1-1.7,2.3-2.2,3.7
		c-0.5,1.5-0.8,3.1-0.8,4.8s0.3,3.3,0.8,4.8s1.3,2.7,2.2,3.7c1,1,2.1,1.8,3.5,2.4C308.5,60.6,310,60.9,311.8,60.9z"/>
	<path class="st0" d="M339.4,69.2l-5-1.9l23-55.4l5,1.9L339.4,69.2z"/>
	<path class="st0" d="M367.1,25.5l38.4,15.8v5.9L367.1,63v-5.6l32.5-13.2l-32.5-13.1V25.5z"/>
</g>
</svg>
