<?xml version="1.0" encoding="utf-8"?>
<!-- Generator: Adobe Illustrator 24.0.1, SVG Export Plug-In . SVG Version: 6.00 Build 0)  -->
<svg version="1.1" id="Layer_1" xmlns="http://www.w3.org/2000/svg" xmlns:xlink="http://www.w3.org/1999/xlink" x="0px" y="0px"
	 viewBox="0 0 600 600" style="enable-background:new 0 0 600 600;" xml:space="preserve">
<g>
	<path d="M398.5,231.7c0.7,0.7,1.1,1.2,1.1,1.2S398,230.7,398.5,231.7z"/>
	<path d="M430.6,384.2c-3.3-1.7-2.7-13.8-2.7-15.4s-0.6-19.4-1.5-27.7c-1-8.3-7.7-30.4-9.2-35.3c-1.5-5,3.3-6,7.9-7.5
		c4.6-1.5,7.1-1.2,7.1-5.4c0-4.2-9.2-16.3-11.3-24.4c-2.1-8.1-8.8-18.3-12.5-22.1c-3.6-3.8-4.2-5.6-8.1-11.7
		c-1.1-1.8-1.6-2.7-1.8-3.1c-2.5-2.7-9-9.6-15.5-15.8c-8.3-7.9-11.5-12.3-15.4-13.4c-3.9-1.2-9-3.3-11.7-6.9
		c-2.7-3.7-4.6-6.1-8.6-8.8c-4-2.7-0.4-2.9-1.2-11.1c-0.8-8.3,1.3-17.3-0.4-24.2c-1.7-6.9-5-10.6-11.3-15.9
		c-6.3-5.4-16.7-4.4-24.6-3.3c-7.9,1.2-14.8,7.1-14.8,7.1c-9.2,1.5-10.8,3.7-10.8,3.7c-9,7.1-5.6,17.5-1.3,23c4.2,5.6,4,8.3-1.3,9
		c-5.4,0.8-12.7,2.5-20.9,2.3c-8.3-0.2-15.2,1.7-24.2,1.9c-9,0.2-14.4-2.3-22.1-4.4c-7.7-2.1-12.3-3.5-37.1-3.1
		c-24.8,0.4-36.5-3.8-40.3-4.8c-3.8-1-14-6.3-17.1-8.1c-3.1-1.7-5.8,0.2-9.2,0.6c-3.5,0.4-6.1,0.8-10,2.3c-3.8,1.5-7.3,2.5-11.1,5.6
		c-3.8,3.1-0.6,3.8,4,2.9c2.4-0.5,2.4,1.2,1.9,3c-3.9-0.8-8.3,2-11.9,11.9c-4,11.1,3.3,21.7,6,26.7c2.7,5,1,6,0.8,10.2
		c-0.2,4.2-2.3,8.6,0.8,16.1c3.1,7.5,8.6,9.2,11,8.1c2.3-1.2,4.2-0.2,8.3-0.6c4-0.4,10.4-1,13.6-2.7c3.3-1.7,5.8,0.2,8.8,0.4
		c3.1,0.2,13.6-1.5,18.2-2.1c4.6-0.6,20.6-5.4,27.7-7.7c7.1-2.3,13.6-2.5,13.6-2.5c11-1.9,7.7,3.1,11.1,7.5c3.5,4.4,6.3,10.2,9,19.4
		c2.7,9.2,12.1,21.5,17.7,29.6c5.6,8.1,2.5,8.3-0.6,10.6c-3.1,2.3-2.3,4.6-6,7.9c-3.6,3.3-3.5,1.9-9-0.8c-5.6-2.7-3.8,1.3-8.8,2.5
		c-5,1.2-6,1.2-8.6,4c-2.7,2.9-2.5,0-5.4-0.2c-2.9-0.2-5.6,0.6-11.3-0.2c-5.8-0.8-8.5-1.2-10.8-0.2c-2.3,1-4.8,0.2-8.4-0.6
		c-3.7-0.8-9.2-1-13.4-2.5c-4.2-1.5-6-1.9-7.1-1.5c-1.2,0.4-6.5,1.7-10.6,3.1c-4,1.3-3.7,2.7-9,4.4c-5.4,1.7-11.5-1.3-11.5-1.3
		c-6.9-5-13.6-1.2-13.6-1.2C80.8,316,82.6,327,82.6,327c0.6,15,25.7,11.9,30.5,10.2c4.8-1.7,10,10.2,13.4,15
		c3.5,4.8,15.6,10.4,21.9,10.6c6.3,0.2,4-0.2,8.6-1c4.6-0.8,11,1.3,15.6-1.3c4.6-2.7,5.4-2.3,9.4-2.5c4-0.2,7.9,6.5,14.4,8.1
		c6.5,1.5,12.5,1.3,15.8-2.5c3.3-3.8-3.1-4.8,0.2-8.1c3.3-3.3,12.7,6.7,15.6,5.4c2.9-1.3,3.8-0.6,7.9-0.2c4,0.4,7.7-0.8,15.6-4
		c7.9-3.3,6.9-1.5,17.3,0c10.4,1.5,10.2,1.5,11.3-1.9c1.2-3.5,4-4,8.6-7.7c4.6-3.7,6.9-1.9,8.6,4.4c1.7,6.3,5.4,11.3,12.7,10.4
		c7.3-1,10.4-5.2,16.7-9.6c6.3-4.4,7.5-7.7,13.6-13.4c6.1-5.8,6.1-7.9,10-13.6c3.8-5.8,19.2-26.7,22.7-32.7c3.5-6,7.3-1.9,9.2,1.5
		c1.9,3.5,7.5,11.9,9,16.7c1.5,4.8,7.5,15.9,7.7,20.7c0.2,4.8,0.2,9.2,2.7,17.1c2.5,7.9,5.8,22.3,6.1,25.9c0.4,3.6,0.4,6.5-1.9,7.3
		c-2.3,0.8-3.8,0.8-5.8,4.2c-1.9,3.5,1.7,3.1-5.4,4.6c-7.1,1.5-3.3,6.9-3.3,6.9L164,468.7h353.6v-111L430.6,384.2z M140.2,187.3
		c-3.1,0.4-21.9,7.9-26.5,8.8c-4.6,1-4.8-0.6-7.1-5.4c-1.7-3.5-3.9-10.2-6.7-14.2c1.1-3.7,5.3-5.2,8-5.2c3.3,0,14.8,8.5,17.3,10.2
		c2.5,1.7,5.2,1,12.7,1.5C145.4,183.7,143.3,186.9,140.2,187.3z M279.6,237.3c-1.8,2.2-1.4,5.3-2.4,8.4c-1,3.1-2.3,3.7-4.5,3.2
		c-2.2-0.5-4.5-2.5-8.5-5.4c-4-3-5.4-9.4-8-13.6c-2.6-4.1-16.9-19-19.7-22.6c-2.8-3.6,1.3-2.7,1.3-2.7c2.8,0,2.1,0.5,3.1,2.2
		c1,1.7,6.2,3.4,9.3,3c3.1-0.4,8.7,1.8,12.1,4.4c3.5,2.6,7.9,1.2,10.8,3.7c3,2.6,6.7,8.5,8.3,13
		C282.8,235.5,281.4,235.1,279.6,237.3z"/>
</g>
</svg>
