<?xml version="1.0" encoding="utf-8"?>
<!-- Generator: Adobe Illustrator 24.0.1, SVG Export Plug-In . SVG Version: 6.00 Build 0)  -->
<svg version="1.1" id="Layer_1" xmlns="http://www.w3.org/2000/svg" xmlns:xlink="http://www.w3.org/1999/xlink" x="0px" y="0px"
	 viewBox="12 0 62 130" style="enable-background:new 0 0 62.9 122.9;" xml:space="preserve">
<style type="text/css">
	.st0{fill:none;stroke:#000000;stroke-width:6;stroke-miterlimit:10;}
</style>
<path class="st0" d="M12.8,16.4c3.2-8.1,9.6-13,15.8-12.6c6.2,0.4,12.4,6.3,12.9,12.4C43,31.5,8.4,37.1,5.2,60.5
	C4.4,66.7,5.6,74.6,10.3,81c1,1.3,6.7,8.8,17.2,10.4c10.7,1.6,20.6-3.8,26-11.3c1.5-2.1,7.1-9.8,4.6-18.9c-1.6-5.6-6.5-12.6-13.7-13
	c-5.7-0.4-9.8,3.5-10.3,3.9c-4.9,4.9-4.8,12-4.7,20.2c0.1,7.7,0.2,18.9,0.3,35"/>
</svg>
