<?xml version="1.0" encoding="utf-8"?>
<!-- Generator: Adobe Illustrator 24.0.1, SVG Export Plug-In . SVG Version: 6.00 Build 0)  -->
<svg version="1.1" id="Layer_1" xmlns="http://www.w3.org/2000/svg" xmlns:xlink="http://www.w3.org/1999/xlink" x="0px" y="0px"
	 viewBox="0 0 600 600" style="enable-background:new 0 0 600 600;" xml:space="preserve">
<style type="text/css">
	.st0{fill:#6F828D;}
</style>
<g>
	<g>
		<path class="st0" d="M211,94.76v269.6h-34.8V94.76H211z"/>
		<path class="st0" d="M271.8,97.96c16.8-2.8,38.8-5.2,66.8-5.2c34.4,0,59.6,8,75.6,22.4c14.8,12.8,23.6,32.4,23.6,56.4
			c0,24.4-7.2,43.6-20.8,57.6c-18.4,19.6-48.4,29.6-82.4,29.6c-10.4,0-20-0.4-28-2.4v108h-34.8V97.96z M306.6,227.96
			c7.6,2,17.2,2.8,28.8,2.8c42,0,67.6-20.4,67.6-57.6c0-35.6-25.2-52.8-63.6-52.8c-15.2,0-26.8,1.2-32.8,2.8V227.96z"/>
	</g>
	<g>
		<path class="st0" d="M193.17,462.8c-0.44-8.27-0.97-18.22-0.88-25.61h-0.26c-2.02,6.95-4.49,14.34-7.48,22.53l-10.47,28.78h-5.81
			l-9.59-28.25c-2.82-8.36-5.19-16.01-6.86-23.05h-0.18c-0.18,7.39-0.62,17.33-1.14,26.22l-1.58,25.43h-7.3l4.14-59.31h9.77
			l10.12,28.69c2.46,7.3,4.49,13.82,5.98,19.98h0.26c1.5-5.98,3.61-12.5,6.25-19.98l10.56-28.69h9.77l3.7,59.31h-7.48L193.17,462.8z
			"/>
		<path class="st0" d="M237.78,488.84l-0.62-5.37h-0.26c-2.38,3.34-6.95,6.34-13.02,6.34c-8.62,0-13.02-6.07-13.02-12.23
			c0-10.3,9.15-15.93,25.61-15.84v-0.88c0-3.52-0.97-9.86-9.68-9.86c-3.96,0-8.1,1.23-11.09,3.17l-1.76-5.1
			c3.52-2.29,8.62-3.78,13.99-3.78c13.02,0,16.19,8.89,16.19,17.42v15.93c0,3.7,0.18,7.3,0.7,10.21H237.78z M236.64,467.11
			c-8.45-0.18-18.04,1.32-18.04,9.59c0,5.02,3.34,7.39,7.3,7.39c5.54,0,9.06-3.52,10.3-7.13c0.26-0.79,0.44-1.67,0.44-2.46V467.11z"
			/>
		<path class="st0" d="M256.62,457.78c0-4.4-0.09-8.01-0.35-11.53h6.86l0.44,7.04h0.18c2.11-4.05,7.04-8.01,14.08-8.01
			c5.9,0,15.05,3.52,15.05,18.13v25.43h-7.74v-24.55c0-6.86-2.55-12.58-9.86-12.58c-5.1,0-9.06,3.61-10.38,7.92
			c-0.35,0.97-0.53,2.29-0.53,3.61v25.61h-7.74V457.78z"/>
		<path class="st0" d="M329.04,488.84l-0.62-5.37h-0.26c-2.38,3.34-6.95,6.34-13.02,6.34c-8.62,0-13.02-6.07-13.02-12.23
			c0-10.3,9.15-15.93,25.61-15.84v-0.88c0-3.52-0.97-9.86-9.68-9.86c-3.96,0-8.1,1.23-11.09,3.17l-1.76-5.1
			c3.52-2.29,8.62-3.78,13.99-3.78c13.02,0,16.19,8.89,16.19,17.42v15.93c0,3.7,0.18,7.3,0.7,10.21H329.04z M327.89,467.11
			c-8.45-0.18-18.04,1.32-18.04,9.59c0,5.02,3.34,7.39,7.3,7.39c5.54,0,9.06-3.52,10.3-7.13c0.26-0.79,0.44-1.67,0.44-2.46V467.11z"
			/>
		<path class="st0" d="M384.57,446.25c-0.18,3.08-0.35,6.51-0.35,11.7v24.73c0,9.77-1.94,15.75-6.07,19.45
			c-4.14,3.87-10.12,5.1-15.49,5.1c-5.1,0-10.74-1.23-14.17-3.52l1.94-5.9c2.82,1.76,7.22,3.34,12.5,3.34
			c7.92,0,13.73-4.14,13.73-14.87v-4.75h-0.18c-2.38,3.96-6.95,7.13-13.55,7.13c-10.56,0-18.13-8.98-18.13-20.77
			c0-14.43,9.42-22.62,19.18-22.62c7.39,0,11.44,3.87,13.29,7.39h0.18l0.35-6.42H384.57z M376.56,463.06c0-1.32-0.09-2.46-0.44-3.52
			c-1.41-4.49-5.19-8.18-10.82-8.18c-7.39,0-12.67,6.25-12.67,16.1c0,8.36,4.22,15.31,12.58,15.31c4.75,0,9.06-2.99,10.74-7.92
			c0.44-1.32,0.62-2.82,0.62-4.14V463.06z"/>
		<path class="st0" d="M401.37,468.96c0.18,10.47,6.86,14.78,14.61,14.78c5.54,0,8.89-0.97,11.79-2.2l1.32,5.54
			c-2.73,1.23-7.39,2.64-14.17,2.64c-13.11,0-20.94-8.62-20.94-21.47s7.57-22.97,19.98-22.97c13.9,0,17.6,12.23,17.6,20.06
			c0,1.58-0.18,2.82-0.26,3.61H401.37z M424.08,463.41c0.09-4.93-2.02-12.58-10.74-12.58c-7.83,0-11.26,7.22-11.88,12.58H424.08z"/>
		<path class="st0" d="M441.15,459.54c0-5.02-0.09-9.33-0.35-13.29h6.78l0.26,8.36h0.35c1.94-5.72,6.6-9.33,11.79-9.33
			c0.88,0,1.5,0.09,2.2,0.26v7.3c-0.79-0.18-1.58-0.26-2.64-0.26c-5.46,0-9.33,4.14-10.38,9.94c-0.18,1.06-0.35,2.29-0.35,3.61v22.7
			h-7.66V459.54z"/>
	</g>
</g>
</svg>
