<?xml version="1.0" encoding="utf-8"?>
<!-- Generator: Adobe Illustrator 24.0.1, SVG Export Plug-In . SVG Version: 6.00 Build 0)  -->
<svg version="1.1" id="Layer_1" xmlns:sketch="http://www.bohemiancoding.com/sketch/ns"
	 xmlns="http://www.w3.org/2000/svg" xmlns:xlink="http://www.w3.org/1999/xlink" x="0px" y="0px" viewBox="0 0 940 940"
	 style="enable-background:new 0 0 940 940;" xml:space="preserve">
<style type="text/css">
	.st0{fill-rule:evenodd;clip-rule:evenodd;fill:url(#base_1_);}
	.st1{fill-rule:evenodd;clip-rule:evenodd;fill:url(#bezel_1_);}
	.st2{fill-rule:evenodd;clip-rule:evenodd;fill:#FFFDFD;}
	.st3{fill-rule:evenodd;clip-rule:evenodd;fill:url(#frame_bottom_1_);}
	.st4{fill-rule:evenodd;clip-rule:evenodd;}
	.st5{fill-rule:evenodd;clip-rule:evenodd;fill:#2B2B2B;}
	.st6{fill-rule:evenodd;clip-rule:evenodd;fill:#6D6D6D;fill-opacity:0.6957;}
	.st7{fill:#FFFFFF;}
	.st8{fill:#001F6B;}
	.st9{fill:#9E9E9E;}
	.st10{fill:#BEBEBE;}
	.st11{fill:#284400;}
	.st12{fill:#04603A;}
	.st13{fill:url(#SVGID_1_);}
	.st14{fill:#9B9B9B;}
	.st15{fill:#939393;}
	.st16{fill:#7C7C7C;}
	.st17{fill:#5B5B5B;}
	.st18{fill:#0096C4;}
</style>
<title>large</title>
<description>Created with Sketch (http://www.bohemiancoding.com/sketch)</description>
<g>
	
		<linearGradient id="base_1_" gradientUnits="userSpaceOnUse" x1="507.9889" y1="667.0026" x2="507.9889" y2="666.8981" gradientTransform="matrix(202.9564 0 0 -83 -102634.2422 56161)">
		<stop  offset="0" style="stop-color:#C4C2C2"/>
		<stop  offset="0.3335" style="stop-color:#DCDCDC"/>
		<stop  offset="1" style="stop-color:#DBDBDB"/>
	</linearGradient>
	<path id="base" class="st0" d="M549.8,731.3l9.9,69.8c0.6,4.1-2.3,7.3-6.4,7.3H377.5c-4.1,0-7-3.3-6.4-7.3l9.9-69.8H549.8z"/>
	
		<linearGradient id="bezel_1_" gradientUnits="userSpaceOnUse" x1="509.9575" y1="664.4865" x2="509.9575" y2="663.5567" gradientTransform="matrix(940 0 0 -560 -478890 372244)">
		<stop  offset="0" style="stop-color:#191919"/>
		<stop  offset="1" style="stop-color:#070707"/>
	</linearGradient>
	<path id="bezel" class="st1" d="M51.6,131.5c-10.2,0-18.6,8.4-18.6,18.6v502.1H907V150.1c0-10.2-8.3-18.6-18.6-18.6H51.6z"/>
	<path id="panel" class="st2" d="M67.4,165v453.8h805.2V165H67.4z"/>
	
		<linearGradient id="frame_bottom_1_" gradientUnits="userSpaceOnUse" x1="509.9575" y1="667.6677" x2="509.9575" y2="666.7378" gradientTransform="matrix(940 0 0 -85 -478890 57404)">
		<stop  offset="0" style="stop-color:#D8D8D8"/>
		<stop  offset="1" style="stop-color:#D6D6D6"/>
	</linearGradient>
	<path id="frame_bottom" class="st3" d="M33,652.2v60.4c0,10.3,8.3,18.6,18.6,18.6h836.9c10.2,0,18.6-8.4,18.6-18.6v-60.4H33z"/>
	<path id="branding" class="st4" d="M463,680.8c1.1,0,2.5,0.3,4.1,0.7c1.6,0.5,2.7,0.7,3.3,0.7c0.7,0,1.8-0.3,3.3-0.8
		c1.6-0.6,2.9-0.8,4-0.8c1.9,0,3.5,0.5,5,1.5c0.8,0.6,1.7,1.4,2.4,2.3c-1.2,1-2.1,2-2.7,2.8c-1,1.5-1.5,3.1-1.5,4.8
		c0,2,0.6,3.7,1.6,5.2c1.1,1.6,2.3,2.5,3.7,3c-0.6,1.9-1.5,3.8-2.9,5.9c-2,3.1-4,4.6-6,4.6c-0.7,0-1.9-0.3-3.3-0.7
		c-1.4-0.5-2.5-0.7-3.5-0.7c-0.9,0-2,0.3-3.3,0.7c-1.3,0.6-2.3,0.8-3.1,0.8c-2.4,0-4.7-2-7-6c-2.3-4-3.4-7.9-3.4-11.8
		c0-3.6,0.8-6.5,2.6-8.7C458.1,681.9,460.3,680.8,463,680.8 M477.3,671.8c0.1,0.2,0.1,0.4,0.1,0.6c0,0.2,0,0.3,0,0.5
		c0,0.9-0.2,2-0.7,3.2c-0.5,1.1-1.2,2.2-2.1,3.3c-0.8,0.8-1.7,1.4-2.5,1.7c-0.6,0.2-1.3,0.3-2.4,0.4c0-2.3,0.7-4.4,1.8-6
		C472.7,673.5,474.6,672.4,477.3,671.8"/>
	<path id="lens" class="st5" d="M465.4,154.8c2,0,3.7-1.7,3.7-3.7c0-2-1.7-3.7-3.7-3.7s-3.7,1.7-3.7,3.7
		C461.6,153.1,463.3,154.8,465.4,154.8z"/>
	<path id="aperture" class="st6" d="M465.4,152.9c1,0,1.9-0.8,1.9-1.9s-0.8-1.9-1.9-1.9s-1.9,0.8-1.9,1.9S464.3,152.9,465.4,152.9z"
		/>
	<g>
		<path class="st7" d="M850.9,697.1c0.3,0.4,0.4,0.7,0.4,1.1s-0.1,0.7-0.4,0.9c-0.3,0.3-0.6,0.4-0.9,0.4c-0.3,0-0.6-0.1-0.8-0.2
			c-0.6-0.4-1.2-0.9-2-1.4c-0.7-0.6-1.5-1.1-2.2-1.7s-1.5-1.1-2.2-1.7s-1.4-1-2-1.5c-0.4-0.4-0.6-0.7-0.6-1.1c0-0.5,0.2-0.8,0.7-1.2
			c0.1-0.1,0.4-0.3,0.7-0.7c0.4-0.3,0.9-0.7,1.5-1.1c0.6-0.5,1.2-0.9,1.9-1.4c0.7-0.5,1.2-1,1.9-1.4c0.6-0.5,1.1-0.8,1.5-1.2
			c0.4-0.4,0.7-0.6,0.7-0.7c0.3-0.1,0.6-0.2,0.7-0.2c0.4,0,0.7,0.1,0.9,0.4c0.3,0.3,0.4,0.6,0.4,0.9s-0.2,0.7-0.5,1.1
			c-0.4,0.3-0.9,0.7-1.5,1.2c-0.6,0.5-1.2,0.9-1.9,1.5c-0.7,0.5-1.3,1-1.9,1.5s-1.1,0.8-1.5,1.2c0.5,0.4,1,0.7,1.6,1.2
			c0.7,0.5,1.2,0.9,1.9,1.4s1.2,0.9,1.9,1.4C849.9,696.3,850.4,696.7,850.9,697.1z"/>
		<path class="st7" d="M864.9,682.5c0.4-0.5,0.8-0.7,1.4-0.7c0.4,0,0.7,0.1,0.9,0.3s0.4,0.5,0.4,0.7c0,0.2-0.1,0.4-0.2,0.6
			c-1.8,3-3.5,6-5.2,8.9c-1.8,3-3.5,6-5.3,8.9c-0.2,0.2-0.4,0.3-0.7,0.4c-0.2,0.1-0.5,0.1-0.7,0.1c-0.4,0-0.7-0.1-0.9-0.3
			s-0.4-0.5-0.4-0.8c0-0.1,0-0.1,0-0.2c0-0.1,0-0.1,0-0.2c1.8-3,3.5-6,5.2-8.9C861.4,688.4,863.1,685.4,864.9,682.5z"/>
		<path class="st7" d="M871.5,697.1c0.5-0.4,1-0.7,1.6-1.2c0.7-0.5,1.2-0.9,1.9-1.4s1.2-0.9,1.9-1.4s1.1-0.8,1.6-1.2
			c-0.4-0.3-0.9-0.7-1.5-1.2s-1.2-0.9-1.9-1.5c-0.7-0.5-1.3-1-1.9-1.5s-1.1-0.8-1.5-1.2c-0.3-0.4-0.5-0.7-0.5-1.1s0.1-0.7,0.4-0.9
			c0.3-0.3,0.6-0.4,0.9-0.4c0.2,0,0.5,0.1,0.7,0.2c0.1,0.1,0.4,0.3,0.7,0.7c0.4,0.4,0.9,0.7,1.5,1.2c0.6,0.5,1.2,0.9,1.9,1.4
			c0.7,0.5,1.2,1,1.9,1.4c0.6,0.5,1.1,0.8,1.5,1.1c0.4,0.3,0.7,0.6,0.7,0.7c0.5,0.4,0.7,0.7,0.7,1.2c0,0.4-0.2,0.7-0.6,1.1
			c-0.6,0.4-1.2,0.9-2,1.5c-0.7,0.6-1.5,1.1-2.2,1.7c-0.7,0.6-1.5,1.1-2.2,1.7c-0.7,0.6-1.4,1-2,1.4c-0.3,0.1-0.6,0.2-0.8,0.2
			c-0.4,0-0.7-0.1-0.9-0.4c-0.3-0.3-0.4-0.6-0.4-0.9C871.1,697.8,871.2,697.4,871.5,697.1z"/>
	</g>
	<g>
		<path class="st7" d="M88.9,679.6c-0.1-0.1-0.3-0.2-0.6-0.2c-0.4,0-1.5,0-8.4,5.9c-2.2,1.9-4.6,4.1-7,6.2l4.1,4.2
			c2.2-2.5,4.6-5.2,6.6-7.5c1.8-2.1,3.2-3.9,4-5.2C89,680.9,89.4,680.1,88.9,679.6z"/>
		<path class="st7" d="M69.9,694.5l4.3,4.4c0.7-0.7,1.4-1.4,2-2.2l-4.2-4.3C71.3,693.1,70.5,693.8,69.9,694.5z"/>
		<path class="st7" d="M68.9,695.5c-4.3,0.6-4.8,3.3-5.3,5.5c-0.4,1.9-0.7,2.9-2.2,3c-0.3,0-0.5,0.2-0.5,0.5c0,0.3,0.1,0.5,0.3,0.6
			c0.1,0,2.2,0.9,4.6,0.9l0,0c2.7,0,6.1-1,7.3-6l0,0L68.9,695.5L68.9,695.5z"/>
	</g>
	<path d="M558.3,808.5h-186c-0.7,0-1.4-0.7-1.4-1.4V806c0-0.7,0.7-1.4,1.4-1.4h186c0.7,0,1.4,0.7,1.4,1.4v1.1
		C559.7,807.8,559.1,808.5,558.3,808.5z"/>
	<g>
		<rect x="214.9" y="187" class="st8" width="135.6" height="135.6"/>
		<rect x="224.2" y="333.3" class="st9" width="116.7" height="9.4"/>
		<rect x="219.7" y="358.8" class="st10" width="125.8" height="4.7"/>
		<rect x="219.7" y="367" class="st10" width="125.8" height="4.7"/>
		<rect x="219.7" y="375.2" class="st10" width="125.8" height="4.7"/>
		<rect x="219.7" y="383.3" class="st10" width="125.8" height="4.7"/>
		<rect x="219.7" y="350.6" class="st10" width="125.8" height="4.7"/>
		<rect x="219.7" y="391.6" class="st10" width="125.8" height="4.7"/>
		<g>
			<rect x="404.3" y="187" class="st11" width="135.6" height="135.6"/>
			<rect x="413.7" y="333.3" class="st9" width="116.7" height="9.4"/>
			<rect x="409.1" y="358.8" class="st10" width="125.8" height="4.7"/>
			<rect x="409.1" y="367" class="st10" width="125.8" height="4.7"/>
			<rect x="409.1" y="375.2" class="st10" width="125.8" height="4.7"/>
			<rect x="409.1" y="383.3" class="st10" width="125.8" height="4.7"/>
			<rect x="409.1" y="350.6" class="st10" width="125.8" height="4.7"/>
			<rect x="409.1" y="391.6" class="st10" width="125.8" height="4.7"/>
		</g>
		<g>
			<rect x="589.7" y="187" class="st12" width="135.6" height="135.6"/>
			<rect x="599.1" y="333.3" class="st9" width="116.7" height="9.4"/>
			<rect x="594.5" y="358.8" class="st10" width="125.8" height="4.7"/>
			<rect x="594.5" y="367" class="st10" width="125.8" height="4.7"/>
			<rect x="594.5" y="375.2" class="st10" width="125.8" height="4.7"/>
			<rect x="594.5" y="383.3" class="st10" width="125.8" height="4.7"/>
			<rect x="594.5" y="350.6" class="st10" width="125.8" height="4.7"/>
			<rect x="594.5" y="391.6" class="st10" width="125.8" height="4.7"/>
		</g>
		
			<linearGradient id="SVGID_1_" gradientUnits="userSpaceOnUse" x1="66.9607" y1="247.8573" x2="872.6209" y2="247.8573" gradientTransform="matrix(1 0 0 1 0 340)">
			<stop  offset="0" style="stop-color:#D8D8D8"/>
			<stop  offset="1" style="stop-color:#D6D6D6"/>
		</linearGradient>
		<rect x="67" y="556.9" class="st13" width="805.7" height="61.8"/>
		<g>
			<circle class="st14" cx="406.2" cy="587.9" r="9.7"/>
			<circle class="st14" cx="431.8" cy="587.9" r="9.7"/>
			<circle class="st14" cx="457.3" cy="587.9" r="9.7"/>
			<circle class="st14" cx="482.7" cy="587.9" r="9.7"/>
			<circle class="st14" cx="508.2" cy="587.9" r="9.7"/>
			<circle class="st14" cx="533.8" cy="587.9" r="9.7"/>
		</g>
		<g>
			<g>
				<rect x="361.2" y="476.3" class="st15" width="333" height="4.7"/>
				<rect x="361.2" y="432.2" class="st16" width="262.6" height="25.4"/>
				<rect x="361.2" y="484.5" class="st15" width="333" height="4.7"/>
				<rect x="361.2" y="492.8" class="st15" width="333" height="4.7"/>
				<rect x="361.2" y="501" class="st15" width="333" height="4.7"/>
				<rect x="361.2" y="509.1" class="st15" width="333" height="4.7"/>
				<rect x="361.2" y="517.3" class="st15" width="333" height="4.7"/>
			</g>
			<circle class="st17" cx="293.4" cy="477.2" r="47.5"/>
		</g>
	</g>
	<g>
		<rect x="67.1" y="165" class="st18" width="805.8" height="29.9"/>
		<g>
			<rect x="579.3" y="173" class="st9" width="28.8" height="14"/>
			<rect x="618.3" y="173" class="st9" width="28.8" height="14"/>
			<rect x="657.4" y="173" class="st9" width="28.8" height="14"/>
			<rect x="696.4" y="173" class="st9" width="28.8" height="14"/>
		</g>
		<rect x="214.9" y="173" class="st9" width="96.2" height="14"/>
	</g>
</g>
</svg>
