<?xml version="1.0" encoding="utf-8"?>
<!-- Generator: Adobe Illustrator 24.0.1, SVG Export Plug-In . SVG Version: 6.00 Build 0)  -->
<svg version="1.1" id="Layer_1" xmlns="http://www.w3.org/2000/svg" xmlns:xlink="http://www.w3.org/1999/xlink" x="0px" y="0px"
	 viewBox="0 0 600 600" style="enable-background:new 0 0 600 600;" xml:space="preserve">
<style type="text/css">
	.st0{fill:#6F828D;}
</style>
<g>
	<g>
		<path class="st0" d="M402.09,358.73c-2.78,0-4,2.56-4.22,4.47h8.03C405.93,361.45,405.18,358.73,402.09,358.73z"/>
		<path class="st0" d="M344.81,358.83c-3.25,0-4.66,3-4.66,5.87c0,3.31,1.91,5.81,4.59,5.81c2.63,0,4.59-2.47,4.59-5.88
			C349.34,362.08,348.06,358.83,344.81,358.83z"/>
		<path class="st0" d="M311.13,353.17c-1.19,0-2.09,0.09-2.56,0.22v8.19c0.59,0.16,1.34,0.22,2.25,0.22c3.28,0,5.28-1.59,5.28-4.5
			C316.1,354.51,314.13,353.17,311.13,353.17z"/>
		<path class="st0" d="M371.01,358.83c-3.25,0-4.66,3-4.66,5.87c0,3.31,1.91,5.81,4.59,5.81c2.63,0,4.59-2.47,4.59-5.88
			C375.54,362.08,374.26,358.83,371.01,358.83z"/>
		<path class="st0" d="M190.95,182.49c-31.06-0.84-62.59,25.18-62.62,62.71c-0.04,37.71,30.02,63.49,62.44,63.55
			c35.38,0.06,63.29-27.81,63.29-63.1C254.05,210.09,226.46,182.48,190.95,182.49z"/>
		<path class="st0" d="M443.78,135.36c0-17.5-12.62-30.13-30.06-30.13c-97.65,0-195.31,0-292.96,0c-1.19,0-2.38,0.03-3.56,0.02
			c-3.34-0.02-3.78-0.39-4.65-3.18c-1.69-5.42-5.82-7.93-11.62-7.96c-7.63-0.03-15.26-0.04-22.89,0c-5.44,0.03-9.77,2.66-11.22,7.76
			c-0.79,2.8-2.3,3.14-4.55,3.66c-14.64,3.39-24.09,15.4-24.09,30.46c0,75.11,0.01,150.21-0.03,225.32c0,6.86,2.02,13.03,5.93,18.52
			c6.82,9.57,16.63,12.6,27.92,12.59c56.29-0.06,112.57-0.03,168.86-0.03c8.65,0,17.29,0,25.94,0c47.98,0,95.96,0.04,143.94-0.02
			c20.75-0.02,33.04-12.27,33.04-32.71C443.79,284.89,443.79,210.13,443.78,135.36z M389.45,140.82c4.65,0,8.41,3.77,8.41,8.41
			c0,4.65-3.77,8.41-8.41,8.41c-4.65,0-8.41-3.77-8.41-8.41C381.04,144.59,384.8,140.82,389.45,140.82z M189.91,329.79
			c-45.56-0.61-84.71-39.22-82.75-87.88c1.71-42.34,37.11-81.15,85.51-80.47c45.95,0.65,83.06,38.35,82.62,84.23
			C275.72,291.16,238.06,330.44,189.91,329.79z M317.19,361.67c-1.44,1.53-3.78,2.31-6.44,2.31c-0.81,0-1.56-0.03-2.19-0.19v8.44
			h-2.72v-20.81c1.31-0.22,3.03-0.41,5.22-0.41c2.69,0,4.66,0.63,5.9,1.75c1.16,1,1.84,2.53,1.84,4.41
			C318.82,359.08,318.26,360.58,317.19,361.67z M334.55,372.23h-2.75v-8.69c0-2.44-0.9-4.5-3.5-4.5c-1.78,0-3.19,1.25-3.69,2.75
			c-0.16,0.37-0.19,0.78-0.19,1.31v9.12h-2.75v-22.19h2.75v9.44h0.06c0.44-0.78,1.13-1.47,1.97-1.94c0.81-0.47,1.78-0.78,2.81-0.78
			c2.03,0,5.28,1.25,5.28,6.47V372.23z M344.62,372.57c-4.09,0-7.25-3-7.25-7.78c0-5.06,3.31-8.03,7.5-8.03
			c4.34,0,7.28,3.16,7.28,7.78C352.15,370.14,348.28,372.57,344.62,372.57z M362.32,359.2h-3.94v8.16c0,1.88,0.53,2.94,2.06,2.94
			c0.72,0,1.25-0.09,1.59-0.19l0.12,2.06c-0.53,0.22-1.37,0.37-2.44,0.37c-1.28,0-2.31-0.41-2.97-1.16
			c-0.78-0.81-1.06-2.16-1.06-3.94v-8.25h-2.34v-2.09h2.34v-3.63l2.69-0.72v4.34h3.94V359.2z M370.82,372.57
			c-4.09,0-7.25-3-7.25-7.78c0-5.06,3.31-8.03,7.5-8.03c4.34,0,7.28,3.16,7.28,7.78C378.35,370.14,374.48,372.57,370.82,372.57z
			 M370.48,157.65c-4.65,0-8.41-3.77-8.41-8.41c0-4.65,3.77-8.41,8.41-8.41c4.65,0,8.41,3.77,8.41,8.41
			C378.89,153.89,375.13,157.65,370.48,157.65z M385.68,372.54c-2.03,0-4.25-0.59-5.37-1.34l0.69-2.28c1.22,0.75,3,1.37,4.88,1.37
			c2.78,0,4.41-1.47,4.41-3.59c0-1.97-1.13-3.09-3.97-4.19c-3.44-1.22-5.56-3-5.56-5.97c0-3.28,2.72-5.72,6.81-5.72
			c2.16,0,3.72,0.5,4.66,1.03l-0.75,2.22c-0.69-0.38-2.09-1-4-1c-2.87,0-3.97,1.72-3.97,3.16c0,1.97,1.28,2.94,4.19,4.06
			c3.56,1.37,5.37,3.09,5.37,6.19C393.05,369.73,390.64,372.54,385.68,372.54z M408.46,365.17h-10.63c0.06,3.72,2.44,5.25,5.19,5.25
			c1.97,0,3.16-0.34,4.19-0.78l0.47,1.97c-0.97,0.44-2.63,0.94-5.03,0.94c-4.66,0-7.44-3.06-7.44-7.63s2.69-8.16,7.09-8.16
			c4.94,0,6.25,4.34,6.25,7.12C408.56,364.45,408.5,364.89,408.46,365.17z M418.35,370.36c1.56,0,2.59-0.41,3.37-0.75l0.47,2.06
			c-0.72,0.37-2.31,0.88-4.34,0.88c-4.56,0-7.53-3.09-7.53-7.72c0-4.66,3.19-8.03,8.12-8.03c1.63,0,3.06,0.41,3.81,0.78l-0.62,2.12
			c-0.66-0.37-1.69-0.72-3.19-0.72c-3.47,0-5.34,2.56-5.34,5.72C413.1,368.2,415.35,370.36,418.35,370.36z"/>
	</g>
	<path class="st0" d="M553.44,409.96c-1.65-0.29-3.38-0.36-5.06-0.25c-2.65,0.18-3.59-0.88-3.54-3.52
		c0.13-6.61,0.12-13.22,0.02-19.83c-0.12-7.57-2.98-14.03-7.93-19.77c-10.22-11.88-23.63-13.85-37.91-11.79
		c-14.81,2.13-29.61,17.39-28.6,33.27c0.33,5.23-0.24,10.53,0.14,15.76c0.33,4.56-1,6.13-5.8,6.02c-7.09-0.16-10.79,3.11-10.8,8.64
		c-0.06,26.28,0,52.55-0.05,78.83c-0.01,3.8,1.86,6.05,5.17,7.28c2.54,0.95,5.19,1.35,7.95,1.33c13.56-0.08,27.12-0.04,40.69-0.04
		c14.24,0,28.48,0.09,42.72-0.03c8.81-0.07,11.4-2.84,11.4-11.5c0-24.75,0-49.5,0-74.25C561.84,412.9,560.48,411.21,553.44,409.96z
		 M528.38,405.61c-0.64,2.95-1.88,4.29-5.1,4.13c-5.23-0.25-10.48-0.07-15.72-0.07c-5.41,0-10.82,0.02-16.23-0.02
		c-1.45-0.01-3.07,0.35-3.63-1.78c-2.8-10.57-0.7-26.51,9.83-34.03c9.59-6.85,21.93-3.19,27.78,8.62
		C528.88,389.67,530.15,397.49,528.38,405.61z"/>
</g>
</svg>
