<?xml version="1.0" encoding="utf-8"?>
<!-- Generator: Adobe Illustrator 24.0.1, SVG Export Plug-In . SVG Version: 6.00 Build 0)  -->
<svg version="1.1" id="Layer_1" xmlns="http://www.w3.org/2000/svg" xmlns:xlink="http://www.w3.org/1999/xlink" x="0px" y="0px"
	 viewBox="0 0 600 600" style="enable-background:new 0 0 600 600;" xml:space="preserve">
<style type="text/css">
	.st0{fill:#84959E;}
	.st1{fill:none;}
</style>
<g>
	<path class="st0" d="M367.53,500.84c5.95,6.91,11.7,13.58,17.84,20.71c-7.75,6.67-15.41,13.26-23.46,20.19
		c-5.39-6.18-10.57-12.12-15.73-18.03c-48.83,34.7-101.22,17.68-128.53-15.9c-29.75-36.58-28.1-91.52,3.57-125.28
		c32.8-34.96,83.95-40.57,122.15-13.37C381.14,396.04,398.04,451.65,367.53,500.84z M328.59,503.21
		c-6.6-7.71-12.97-15.15-19.48-22.75c7.94-6.82,15.52-13.32,23.45-20.12c5.81,6.67,11.31,12.99,16.9,19.4
		c15.66-26.52,9.65-65.59-18.35-86.84c-29.13-22.11-69.32-17.75-94.12,10.09c-22.88,25.7-21.34,67.33,3.47,92.61
		C264.98,520.58,303.93,521.98,328.59,503.21z"/>
	<g>
		<rect x="412.98" y="497.52" class="st1" width="142.26" height="46.26"/>
		<path class="st0" d="M417.56,540.25v-40.56h5.72l13,20.52c3.01,4.75,5.36,9.03,7.28,13.18l0.12-0.06
			c-0.48-5.42-0.6-10.35-0.6-16.67v-16.97h4.93v40.56h-5.3l-12.88-20.58c-2.83-4.51-5.54-9.15-7.58-13.54l-0.18,0.06
			c0.3,5.12,0.42,9.99,0.42,16.73v17.33H417.56z"/>
		<path class="st0" d="M491.82,519.55c0,13.96-8.49,21.36-18.84,21.36c-10.71,0-18.23-8.3-18.23-20.58c0-12.88,8-21.3,18.84-21.3
			C484.66,499.03,491.82,507.51,491.82,519.55z M460.35,520.21c0,8.67,4.69,16.43,12.94,16.43c8.3,0,13-7.64,13-16.85
			c0-8.06-4.21-16.49-12.94-16.49C464.68,503.3,460.35,511.3,460.35,520.21z"/>
		<path class="st0" d="M504.82,504.14h-12.34v-4.45h30.03v4.45h-12.4v36.11h-5.29V504.14z"/>
		<path class="st0" d="M548.03,521.23h-15.77v14.62h17.57v4.39h-22.81v-40.56h21.91v4.39h-16.67v12.82h15.77V521.23z"/>
	</g>
	<g>
		<path class="st0" d="M481.83,240.66c1.76,0,3.98-0.88,3.98-3.1c0-2.23-2.06-3.19-4.02-3.19c-2.27,0-3.98,1.3-3.98,3.15
			C477.81,239.31,479.5,240.66,481.83,240.66z"/>
		<path class="st0" d="M481.83,272.47c1.76,0,3.98-0.88,3.98-3.1c0-2.23-2.06-3.19-4.02-3.19c-2.27,0-3.98,1.3-3.98,3.15
			C477.81,271.13,479.5,272.47,481.83,272.47z"/>
		<path class="st0" d="M485.88,216.35c0-1.91-1.76-2.74-3.06-2.89v5.5C484.02,218.98,485.88,218.47,485.88,216.35z"/>
		<path class="st0" d="M481.75,290.06c-2.1,0-3.83,1.03-3.83,3.06c0,1.26,0.83,2.42,2.25,2.76c0.26,0.06,0.51,0.08,0.81,0.08h1.8
			c0.24,0,0.56-0.02,0.79-0.08c1.2-0.28,2.18-1.31,2.18-2.72C485.75,291.22,484.04,290.06,481.75,290.06z"/>
	</g>
	<path class="st0" d="M44.76,56.22c0,146.9,0,293.49,0,440.53c43.8,0,87.48,0,131.27,0c-18.44-49.63-13.35-95.75,23.56-134.58
		c36.9-38.83,82.71-46.4,133.02-30.6c0-91.77,0-183.44,0-275.34C236.47,56.22,140.77,56.22,44.76,56.22z M116.17,451.87
		l-24.61,16.05l-25.35-16.52l1.46-2.24l23.88,15.57l24.61-16.05l22.78,14.86c0.12,1.16,0.25,2.31,0.4,3.45L116.17,451.87z
		 M66.21,417.96l1.46-2.24l23.88,15.57l24.61-16.05l22.91,14.94c-0.11,0.99-0.22,1.99-0.31,2.99l-22.6-14.74l-24.61,16.05
		L66.21,417.96z M146.61,397.24l-5.83,3.8L116.17,385l-24.61,16.05l-25.35-16.52l1.46-2.24l23.88,15.57l24.61-16.05l24.61,16.05
		l7.37-4.81C147.62,394.43,147.11,395.83,146.61,397.24z M169.93,354.52l-4.53-2.96l-24.61,16.05l-24.61-16.05l-24.61,16.05
		l-25.35-16.52l1.46-2.24l23.88,15.57l24.61-16.05l24.61,16.05l24.61-16.05l6.2,4.04C171.04,353.11,170.48,353.81,169.93,354.52z
		 M189.42,333.79l-24.03-15.66l-24.61,16.05l-24.61-16.05l-24.61,16.05l-25.35-16.52l1.46-2.24l23.88,15.57l24.61-16.05l24.61,16.05
		l24.61-16.05l24.62,16.05l24.61-16.05l0.69,0.45C206.03,320.61,197.36,326.79,189.42,333.79z M281.49,296.18l-17.63-11.49
		l-24.62,16.05l-24.62-16.05l-24.61,16.05l-24.62-16.05l-24.61,16.05l-24.61-16.05l-24.61,16.05l-25.35-16.52l1.46-2.24l23.88,15.57
		l24.61-16.05l24.61,16.05l24.61-16.05l24.62,16.05l24.61-16.05l24.62,16.05l24.62-16.05l22.27,14.51
		C284.58,296.05,283.03,296.1,281.49,296.18z M295.6,296.1c-1.57-0.06-3.14-0.1-4.72-0.11l21.5-14.01l1.46,2.24L295.6,296.1z
		 M288.48,267.31l-24.62-16.05l-24.62,16.05l-24.62-16.05l-24.61,16.05l-24.62-16.05l-24.61,16.05l-24.61-16.05l-24.61,16.05
		l-25.35-16.52l1.46-2.24l23.88,15.57l24.61-16.05l24.61,16.05l24.61-16.05l24.62,16.05l24.61-16.05l24.62,16.05l24.62-16.05
		l24.62,16.05l23.89-15.57l1.46,2.24L288.48,267.31z M288.48,233.87l-24.62-16.05l-24.62,16.05l-24.62-16.05l-24.61,16.05
		l-24.62-16.05l-24.61,16.05l-24.61-16.05l-24.61,16.05l-25.35-16.52l1.46-2.24l23.88,15.57l24.61-16.05l24.61,16.05l24.61-16.05
		l24.62,16.05l24.61-16.05l24.62,16.05l24.62-16.05l24.62,16.05l23.89-15.57l1.46,2.24L288.48,233.87z M288.48,200.44l-24.62-16.05
		l-24.62,16.05l-24.62-16.05l-24.61,16.05l-24.62-16.05l-24.61,16.05l-24.61-16.05l-24.61,16.05l-25.35-16.52l1.46-2.24l23.88,15.57
		l24.61-16.05l24.61,16.05l24.61-16.05l24.62,16.05l24.61-16.05l24.62,16.05l24.62-16.05l24.62,16.05l23.89-15.57l1.46,2.24
		L288.48,200.44z M288.48,167l-24.62-16.05L239.24,167l-24.62-16.05L190.01,167l-24.62-16.05L140.78,167l-24.61-16.05L91.56,167
		l-25.35-16.52l1.46-2.24l23.88,15.57l24.61-16.05l24.61,16.05l24.61-16.05l24.62,16.05l24.61-16.05l24.62,16.05l24.62-16.05
		l24.62,16.05l23.89-15.57l1.46,2.24L288.48,167z M288.48,133.57l-24.62-16.05l-24.62,16.05l-24.62-16.05l-24.61,16.05l-24.62-16.05
		l-24.61,16.05l-24.61-16.05l-24.61,16.05l-25.35-16.52l1.46-2.24l23.88,15.57l24.61-16.05l24.61,16.05l24.61-16.05l24.62,16.05
		l24.61-16.05l24.62,16.05l24.62-16.05l24.62,16.05l23.89-15.57l1.46,2.24L288.48,133.57z M288.48,100.13l-24.62-16.05l-24.62,16.05
		l-24.62-16.05l-24.61,16.05l-24.62-16.05l-24.61,16.05l-24.61-16.05l-24.61,16.05L66.21,83.61l1.46-2.24l23.88,15.57l24.61-16.05
		l24.61,16.05l24.61-16.05l24.62,16.05l24.61-16.05l24.62,16.05l24.62-16.05l24.62,16.05l23.89-15.57l1.46,2.24L288.48,100.13z"/>
	<path class="st0" d="M499.42,102.94c0-1.5-0.09-3.36-0.92-4.44c-4.93-6.35-10.1-12.52-15.45-19.07
		c-5.18,7.06-9.97,13.59-14.27,19.45c0,95.88,0,191.15,0,286.25h2.65v5.3h-2.65c0,9.53,0,19.06,0,28.59c10.46,0,20.39,0,30.45,0
		c0.1-1.27,0.22-2.12,0.22-2.96C499.45,311.68,499.46,207.31,499.42,102.94z M477.87,216.99c0,1.35,0.24,2.16,0.54,2.87l-1.35,0.32
		c-0.3-0.66-0.64-1.8-0.64-3.45c0-3.19,2.1-5.09,5.22-5.09c3.13,0,5.59,1.84,5.59,4.86c0,3.38-2.98,4.28-4.88,4.28
		c-0.39,0-0.68-0.04-0.88-0.07v-7.28C478.92,213.48,477.87,215.11,477.87,216.99z M481.72,232.46c3.47,0,5.5,2.27,5.5,5.14
		c0,2.98-2.16,4.99-5.33,4.99c-3.83,0-5.5-2.66-5.5-5.16C476.39,234.62,478.45,232.46,481.72,232.46z M481.7,253.37l5.29,1.69v1.58
		l-5.18,1.61c-1.24,0.39-2.33,0.69-3.38,0.92v0.06c1.05,0.17,2.14,0.45,3.36,0.79l5.2,1.48v1.86l-10.36-3.34v-1.71l4.94-1.58
		c1.16-0.36,2.18-0.66,3.4-0.92v-0.04c-1.24-0.26-2.31-0.58-3.43-0.94l-4.92-1.67v-1.71l10.36-3.13v1.93l-5.27,1.37
		c-1.16,0.3-2.23,0.58-3.3,0.77v0.06C479.48,252.68,480.59,253.02,481.7,253.37z M481.72,264.28c3.47,0,5.5,2.27,5.5,5.14
		c0,2.98-2.16,4.99-5.33,4.99c-3.83,0-5.5-2.66-5.5-5.16C476.39,266.44,478.45,264.28,481.72,264.28z M483.03,278.72
		c-0.26-0.04-0.56-0.08-0.88-0.08h-5.52v-1.86h7.13c1.22,0,2.27-0.02,3.23-0.09v1.65l-2.03,0.06v0.09c1.39,0.47,2.27,1.61,2.27,2.87
		c0,0.21-0.02,0.36-0.06,0.54h-1.78c0.04-0.19,0.06-0.39,0.06-0.64C485.45,279.92,484.44,278.98,483.03,278.72z M475.47,390.42
		h-2.65v-3.9h2.65V390.42z M479.46,390.42h-2.65v-3.9h2.65V390.42z M483.44,390.42h-2.65v-3.9h2.65V390.42z M487.43,390.42h-2.65
		v-3.9h2.65V390.42z M491.41,390.42h-2.65v-3.9h2.65V390.42z M491.83,297.85h-12.52c-0.92,0-1.97,0.02-2.68,0.08v-1.69l1.8-0.08
		v-0.04c-1.16-0.58-2.03-1.84-2.03-3.53c0-2.51,2.12-4.43,5.27-4.43c3.45-0.02,5.57,2.12,5.57,4.65c0,1.58-0.75,2.65-1.58,3.13v0.04
		h6.19V297.85z M491.83,285.74h-15.2v-1.88h15.2V285.74z M491.83,230.04h-15.2v-1.88h15.2V230.04z M491.83,224.99h-15.2v-1.88h15.2
		V224.99z M491.83,202.4h-6.46v0.04c0.53,0.3,1.01,0.77,1.33,1.35c0.32,0.56,0.54,1.22,0.54,1.93c0,1.39-0.86,3.62-4.43,3.62h-6.17
		v-1.88h5.95c1.67,0,3.08-0.62,3.08-2.4c0-1.22-0.86-2.18-1.88-2.53c-0.26-0.11-0.54-0.13-0.9-0.13h-6.25v-1.88h15.2V202.4z
		 M495.4,390.42h-2.65v-3.9h2.65V390.42z M496.8,390.42v-5.3h2.65v5.3H496.8z"/>
</g>
</svg>
