<?xml version="1.0" encoding="utf-8"?>
<!-- Generator: Adobe Illustrator 24.0.1, SVG Export Plug-In . SVG Version: 6.00 Build 0)  -->
<svg version="1.1" id="Layer_1" xmlns="http://www.w3.org/2000/svg" xmlns:xlink="http://www.w3.org/1999/xlink" x="0px" y="0px"
	 viewBox="0 0 600 600" style="enable-background:new 0 0 600 600;" xml:space="preserve">
<style type="text/css">
	.st0{fill:#396EA4;}
	.st1{fill:#FDFEFE;}
	.st2{fill:#1A536A;}
	.st3{fill-rule:evenodd;clip-rule:evenodd;fill:#15536B;}
</style>
<g>
	<path class="st0" d="M499.5,397.9c9-2.7,17.2-5.2,25.4-7.8c5.1,3.9,7.4,9.8,10.9,14.8c3.9,5.6,7.9,11,12.4,17.2
		c3.3-12.7,3.1-24.5,1.4-36.7c10.4-4.7,20.9-4.1,31.1,0.4c5.3,2.3,10.1,5.7,15.1,8.6c0,8.8,0,17.6,0,26.3
		c-9.7-6.4-19.6-12.4-32-11.8c-1.2,7.9-3.2,15.3-7,21.8c1.8,2,3.7,4.1,5.7,6.4c2.8-4.6,5.4-8.9,8-13.2c9.3,1.8,17.2,6.7,25.3,11.3
		c0,9.8,0,19.6,0,29.4c-6.6-0.7-13.3-1.9-19.1-5.1c-7.2-4-12.4-1.6-17.7,3.5c3.7,1.2,6.5,5.4,10.4,3.8c8.9-3.7,17.6-2.7,26.3-0.1
		c0,1.5,0,2.9,0,4.4c-3.7,0.3-7.4,0.5-11.1,0.8c0,0.3,0,0.5,0,0.8c3.7,0.5,7.4,1,11,1.5c0,1.4,0,2.7,0,4c-9.2,4-20-1.8-30.2,4.8
		c9.1,1,16.8,0.6,24.1-0.4c-9.6,5.2-21.9,0-33.2,7.3c3.6,0,5.5,0,7.5,0c-37.2,22.5-75.9,25-115.4,7.1c-13.8,11.8-29.4,13-45.7,12.3
		c-14.3-0.6-28.6-0.2-42.9-0.1c-4.9,0.1-9.5-0.9-14.2-2.2c-5.4-1.5-10.7-5.1-16.3-3.9c-15.6,3.4-31.1,4.3-46.4-1.2
		c-6.6-2.3-13.4-7.3-19.7-6.8c-16.7,1.3-32.3,9.1-49.1,10.8c-10.8,1-21.8,0.5-32.6,1.9c-16.5,2.2-33.1,2.5-49.4,0.3
		c-12-1.6-22.7-8.4-35-14.8c5.6,6.1,10.2,11,14.7,15.9c-4.9,0-9.9,0-14.8,0c-4.4,0-8.6,0.4-12.2-3.6c-4-4.5-8.8-8.3-13.4-12.1
		c-7.1-5.9-13.8-11.8-24.6-8.2c-5.7,1.9-12.1,1.5-18.1,2.1c0-0.2,0-0.3,0-0.5c7.5-1.9,15.1-3.8,22.7-5.7c-10-8.9-19.7,0-29.6-0.4
		c-1.5,6.8-4.5,12.7-8.1,18.3c-2.5,3.9-4.2,8.8-9.6,10.2c0-8.1,0-16.2,0-24.3c2.1-7.1,2.3-14.5,2.3-21.9c-0.9,0.1-1.6,0.2-2.3,0.3
		c0-0.3,0-0.7,0-1c0.7-0.4,1.5-0.7,2.3-1.1c-0.2-3-0.5-5.8-0.7-8.7c-0.6,0.1-1.1,0.3-1.6,0.4c0-5.6,0-11.3,0-16.9
		c8.7-8.7,14.5-19,17-31.4c8.8,2.4,16.3,6.9,23.6,11.9c5.4,3.7,10.7,7.6,16.1,11.5c8.8,7.4,16.4,16.3,26.7,22
		c13.6,8.2,28,14.3,43.5,17c-3.2-2.8-7.2-4.3-11.9-3.7c1.4-0.3,2.8-0.6,4.7-0.9c-8.3-5.5-17-9.2-25.9-12.4c11.7,0,23.4-0.1,35.1-0.1
		c6.1,3.2,12.2,6.4,18.4,0c2.8,0,5.7,0.1,8.5,0.1c-2.8,1.8-5.6,3.6-9.1,5.8c10.9,0.1,21.4,3,29.7-5.9c20,0,40,0,60,0
		c1.6,1.2,3.1,2.5,4.6,3.7c2-0.5,2.3-2,2.8-3.4c8.8-0.1,17.6-0.2,26.4-0.3c12.3,8.4,25.5,13.7,41.4,13.2c-8-4.6-15.3-8.9-22.7-13.1
		c13.3,0,26.6,0,39.9,0.1c-1.6,0.8-3.3,1.6-5.5,2.6c5.9,3,11.5,5.8,17.1,8.5c4.8-3.9,10-6.5,13.5-11.3c11.1,0,22.2,0.1,33.4,0.1
		c-1,0.3-2,0.8-3.1,0.8c-13.1-0.6-21.6,8.8-32.4,14.4c5,1.7,9.2,3.7,14.4,0.4c4.5-2.9,9.8-4.7,15.4-5.7c7.5-1.4,14.7-4.1,21.7-7.8
		c-1.8-0.8-3.2-1.4-4.6-2.1c7.1-0.2,9.3-7,14-10.4c0.7-0.5,1.4-0.9,2.1-1.3c1.4,1.2,2.7,2.5,4.3,3.9c3-2.7,5.8-5.3,8.6-8
		c-1.6-1.7-2.8-3-4.1-4.4c2.9-3.5,5.8-7,9.8-9.4c0.8,0.8,1.5,1.6,2.5,2.6c1.2-2.5,2.4-4.7,3.5-6.9c5.5-1.7,11-3.4,16.5-5.1
		c-2.6,7.7-7.7,13.8-12.7,20.1c3,4.3,7.5,1.1,10.9,2.5c7.2-8.6,12-18.5,17.2-27.9c24.5,6.5,41.7,23.6,59.6,40c2.4-3,4.5-5.6,6.9-8.6
		c-11.5-11.4-22.7-22.5-34-33.7 M156.1,490.1c-23.8-1.8-44.6-18-69.7-13.6C109.8,480.4,131.4,492.8,156.1,490.1z M486.9,484.3
		c0.9,0.2,4.4,0.9,7.8,1.9c3.4,0.9,6.8,2.1,10.2,3.2c-11.4-2.8-22.7-3.9-35.3-1.6c18.6,4.9,36.3,7.3,55.5,1.7
		c-7.8-1-13.5-5.4-20.5-5.2C497.9,484.5,491.1,484.3,486.9,484.3z M172,477c8.4,1.7,16.6,7.1,25.4,0.9c-0.8-0.1-1.4-0.2-2.8-0.5
		c8.1-0.5,13.4-5.4,19.7-8.3C198.2,461.4,186.5,476.3,172,477z M425.9,461.4c-7.4-6.6-21-7.1-32.3-0.6
		C404.8,460.9,415,472.1,425.9,461.4z M523.2,455.5c-9.5-4.6-18.8-8-29.1-9.4c4.4,3.2,8.4,6.2,12.7,9.3c2-0.4,4.2-0.8,8.7-1.8
		c-3.9,1.6-5.7,2.3-7.7,3.2c1.8,1.4,3.5,2.7,5.2,4.1C516.3,459.1,519.6,457.4,523.2,455.5z M221,490.7c-3.6,1.5-7,3.4-11.5,5.7
		c14.1-2.2,26.7-5.9,39.4-10.2c-1.4-0.8-2.5-1.5-3.5-2.1c-0.5-0.3-1.1-0.6-1.6-0.8 M408.8,486.7c-13.7-3.6-26.8-4.4-40.9,0.4
		C382.1,488.9,395.2,489.1,408.8,486.7z M21.3,443.8c15.3-0.1,27.9,4.8,39.8,12.5c0.5-1,0.9-2,1.4-3.1
		C49.9,446,37.8,438.2,21.3,443.8z M525.8,469.7c3.8-2,7.6-4.1,11.8-6.3c-3.7-2.2-6.8-4-9.6-5.6c-4.3,1.9-8.2,3.6-12.4,5.5
		C519.1,465.5,522.3,467.5,525.8,469.7z M184.9,483.7c-14.3-0.4-26.4-6.8-39.8-3C157.9,482.8,170,489.5,184.9,483.7z M229.5,459.8
		c-2.9-1.5-6.1-3.1-9.1-4.7c-3.3,2-6.4,3.9-9.6,5.9C217.3,462.5,223.7,467.4,229.5,459.8z M150.6,467.9c5.8-2.9,11.5-5.7,17.1-8.5
		c-8.9,2-17.8,2.4-27.8,1.3C144,463.4,147.2,465.5,150.6,467.9z M540.2,450c2.4,2,4.7,3.8,7.2,5.8c2.5-2.7,4.8-5.2,7.2-7.8
		c-2.2-1.7-4.2-3.3-6.5-5C545.6,445.2,543,447.5,540.2,450z M538.2,475.7c6.2,4.5,12.2,4.2,17.5-1.7c-2.3-1.2-4.8-2.6-7.4-4
		C544.9,471.9,541.4,473.8,538.2,475.7z M513.3,472.9c-6.5-3.6-12.9-9-21-4.4C498.6,472.3,505.2,476.7,513.3,472.9z M438.2,453.9
		c1-5.2,1.8-9.8,0.3-14.9c-4,2.8-7.1,5-10.5,7.4C431.4,448.9,434.6,451.2,438.2,453.9z M454.4,463c1.5-1.6,3-3.1,4.2-4.4
		c6.9-1,13.3,5.4,19.9,0.7c-5.2-1.5-10.6-3-16.1-4.6c-1.5,1.1-3.1,2.4-4.8,3.5c-1.6,1.2-3.3,2.3-5.2,3.6
		C453.1,462.3,453.6,462.5,454.4,463z M326.9,468.9c-3.9-3.6-9.7-4.2-18.9-2C313.7,472.4,320.1,472.1,326.9,468.9z M540.5,483
		c-6.4-1.9-12.8-5.4-19.4-0.6C527.4,484.3,533.8,489,540.5,483z M347.2,477.2c-6-3.4-11.7-3.5-17.5-0.1
		C335.6,479.4,341.4,482.8,347.2,477.2z M77,469.1c1.6-1.6,3.1-3.1,4.8-4.8c-3.6-2-6.7-3.7-10-5.5c-1,1.2-1.9,2.2-2.9,3.3
		C71.6,464.4,74.1,466.6,77,469.1z M201.1,451.8c-9.5,4.6-19.1,9.2-30.1,14.5C183.1,463.3,192.7,458.8,201.1,451.8z M23.2,473.6
		c-0.4,2.2-0.6,3.9-1,6c4.8-1.4,9.1-2.7,15.6-4.6C31.5,474.4,27.4,474,23.2,473.6z M445,471.2c-1.5-0.8-2.7-1.3-3.8-1.9
		c-3,1.5-5.8,3-9,4.7c2.1,0.8,3.8,1.5,5.5,2.1C440.1,474.6,442.4,473,445,471.2z"/>
	<path class="st1" d="M180.9,311.6"/>
	<polygon class="st1" points="373.3,263.3 373.2,263.4 373.3,263.3 	"/>
	<path class="st2" d="M433.2,277.8c-0.1-0.2-0.2-0.4-0.7-1.3c0.7,0.8,0.8,0.9,0.9,1C433.4,277.6,433.3,277.7,433.2,277.8z"/>
	<path class="st2" d="M308.6,200c0.2,0.1,0.4,0.3,0.5,0.4c-0.1,0.1-0.2,0.2-0.3,0.4c-0.1-0.2-0.3-0.4-0.4-0.6
		C308.5,200.1,308.6,200.1,308.6,200z"/>
	<path class="st2" d="M308.4,200.2c0-0.1-0.1-0.2-0.3-0.8c0.3,0.4,0.4,0.5,0.5,0.6C308.6,200.1,308.5,200.1,308.4,200.2z"/>
	<path class="st2" d="M338.8,255.2c-0.1,0.1-0.2,0.1,0.7-0.4c-1.1,0.2-1,0.2-0.9,0.2C338.7,255.1,338.7,255.1,338.8,255.2z"/>
	<path class="st2" d="M372.8,204.1c0.1,0.1,0.2,0.1,1,0.7c-0.9-0.4-1-0.4-1.1-0.5C372.7,204.2,372.8,204.1,372.8,204.1z"/>
	<path class="st0" d="M31.5,490.7c14.6,3.1,27.5,10,40.1,18.5c-17.7,0-35,0-52.4,0C23.2,503.1,27.3,497,31.5,490.7z"/>
	<path class="st2" d="M327.7,321.8c-0.2,0-0.4,0.1-0.8,0.1c0.3-0.3,0.4-0.4,0.5-0.5C327.5,321.6,327.6,321.7,327.7,321.8z"/>
	<path class="st0" d="M513.3,454.1c0.2-0.1,0.3-0.1,0.5-0.2c0,0.1,0.1,0.2,0.1,0.2c-0.2,0.1-0.3,0.2-0.5,0.2
		C513.4,454.3,513.3,454.2,513.3,454.1z"/>
</g>
<path class="st3" d="M160.9,416.3v2.8l-10-3.1h-0.3v-0.3c0-1-0.5-1.5-1.3-2.1v-0.8l0.8,0.3l-0.8-0.5l0.3-2.8c1-0.5,1.5-1.3,1.5-2.1
	c0-0.8-0.5-1.5-1.3-2.1v-0.3C154.4,409.1,158.3,412.7,160.9,416.3L160.9,416.3z M283.1,64c-11.3-1.5-19.3-4.6-25.4,1
	c-6.2,5.4-2.8,9-0.8,14.9c2.1,6.2-8.2,4.9-12.6,2.6c-4.4-2.3-9.8-1.5-9.8,1.5c-0.3,4.4,4.1,6.4,3.1,10c-0.8,2.3-6.2-1.8-8.5-1.5
	c-3.8,0.3-3.8,3.3-5.1,5.9c-2.3,1.8-3.3,4.9-10.3,4.4c1.8,3.1,10,4.6,12.6-1.3c2.8-6.2,9.8-1,12.6-2.1c2.8-0.8,5.4-0.5,3.3-6.2
	c-2.1-5.4,5.4-1.5,13.1-3.3c7.4-2.1,5.1-7.4,6.9-10.8c1.5-3.1,11.3-6.9,20.3-2.3C282.9,71.2,283.1,64,283.1,64L283.1,64z
	 M155.5,79.9c-18,3.1-20,12.8-25.2,18c-5.4,5.1-7.2,1.8-14.9,2.3c-7.2,0.5-8.2,8.7-12.8,15.4c-4.4,5.9-7.7,10-15.7,5.4
	c6.4,9.8,14.1,2.1,18-4.4c4.1-6.7,9.2-8.2,19.8-7.2c9.8,1,4.1-5.9,11.8-10.8c5.9-3.8,13.3-4.6,18.5-5.1L155.5,79.9L155.5,79.9z
	 M272,225.3c1.3,0.8,2.3,1.5,3.6,2.6l-1,6.2c-23.1-7.7-47-15.4-71.4-23.1c6.2,34.4-0.8,76.2-20.3,121.4c-0.3-0.3-0.5-0.5-0.8-0.8
	l-1-5.4c0.3-0.3,0.5-0.8,0.5-1.3c0-0.5-0.5-1.3-1-1.5l-1-5.4c0.5-0.3,0.8-0.8,0.8-1.3c0-0.8-0.5-1.5-1.3-1.5l-1-5.4
	c0.5-0.3,1-0.8,1-1.3c0-0.8-0.8-1.5-1.5-1.5l-1-5.6c0.5-0.3,0.8-0.5,0.8-1c0-0.8-0.5-1.3-1.3-1.5l-0.8-4.9c0.5-0.3,1-0.8,1-1.5
	c0-0.8-0.8-1.5-1.5-1.5l-1-4.9c0.5-0.3,0.8-0.8,0.8-1.3c0-0.8-0.5-1.3-1.3-1.5l-0.5-3.9c0.3-0.3,0.5-0.8,0.5-1.3
	c0-0.8-0.5-1.3-1-1.5l-1-5.1c0.3-0.3,0.3-0.5,0.3-1c0-0.5-0.3-1-0.8-1.3l-0.8-4.1c0.3-0.3,0.3-0.5,0.3-0.8c0-0.5-0.3-1-0.5-1.3
	l-0.8-4.9c0.3-0.3,0.3-0.8,0.3-1c0-0.8-0.3-1.3-0.8-1.5l-1-4.6h0.5l2.6-13.9l-4.4-0.3l-0.3-75c1-19.5,1.5-39.5-0.3-59.8l-0.3-25.7
	l-3.6,0.5v26.4c-16.4,52.1-39.3,72.6-77,99.9c23.4,2.1,42.6,11.8,58.8,23.1l-2.6,12.6c-18-6.2-35.9-12.6-54.9-18.5
	c7.7,44.7-12.8,93.2-53.4,155c31.1-4.6,71.9,5.1,100.1,19.5c0,0.3-0.3,0.5-0.3,0.8c0,0.5,0.5,1.3,1,1.5l-0.8,6.2
	c-0.8,0.3-1.3,0.8-1.5,1.3l-30.5-13.6l-56-9.5l87.3,26.2l-0.5,3.9c-1,0.5-1.5,1.3-1.5,2.1c0,0.5,0,0.8,0.3,1.3l-90.4-6.4l4.6,20
	l25.9,23.4h337.6l35.4-35.7l50.3-16.9l29.5,2.1l-18.7-5.6l63.1-21l-6.7-1l-72.6,20.8l-23.9-0.8l15.4,3.1l-37,10.5l-26.7,3.6
	l-0.3-0.5c0.8-0.5,1-1,1-1.5c0-0.5-0.8-1.3-1.5-1.5l-1.5-5.9c0.8-0.3,1-0.8,1-1.3c0-0.8-0.5-1.5-1.5-1.8l-1.3-4.4
	c0.5-0.3,1-0.8,1-1.3c0-0.5-0.8-1.3-1.5-1.5l-2.6-10.8c18-1,31.3,0.5,36.7,6.2c17.2-21.8-1.8-48.3-12.6-62.6
	c-10.5-1.3-24.1-2.8-38.8-4.1l-3.6-15.9c23.1,0.5,40,5.4,45.7,14.1c12.8-19-6.9-50.6-14.1-60.3c-10.5-2.1-22.1-4.6-34.1-6.9l1.3-7.2
	L385,243v-10.5c17.5,1.3,30,7.4,35.4,18.2c2.3-12.1,0.8-21.6-2.3-29.8l3.6,4.1l45.2,44.9c11.8,11.8,20,30,17.7,48.3L434,260.5
	c19.5,34.9,53.1,78.5,43.4,110.9c17.5-11.6,38-4.9,52.9-0.8L500.7,337c26.4,1,42.4,8.5,61.6,18L416.5,217.3
	c-2.8-6.4-6.7-12.6-10.8-19c-2.8-1.5-10.8-3.1-20.8-5.1l-0.3-18.7c10.8,0.8,18.5,4.6,23.6,14.6c4.1-23.6,0.3-29.8-9.5-45.2
	c-4.4-2.3-9.2-4.4-14.1-5.9l-0.3-35.4l-3.6,0.5l-0.3,33.6c-8-2.3-16.9-4.4-27-6.9c8.2,11,10,23.1,2.3,37.2
	c-19-19.8-37.2-42.6-60.6-68.8c12.8,19.8,26.4,50.3,21.3,57.8c9,3.6,21.6,8.2,35.9,15.9c-1.5,2.3-3.3,4.6-5.4,6.9
	c4.9-1,9.2-1.8,13.6-2.3c5.1,2.8,10.5,6.4,15.9,10c-4.1-3.3-8-6.9-11.8-10.8c5.6-0.8,11-1.3,15.7-1.3v18c-11.3-2.1-24.9-4.6-38-7.4
	c8.2,12.8,9.8,24.9,4.4,37.2c-13.6-13.6-27.5-29.3-44.2-45.9c12.1,17.5,16.7,45.9,11.8,54.4c5.4,1.3,14.1,2.8,23.9,5.1
	c-1,1.3-2.1,2.6-3.1,3.6c2.6-0.8,5.1-1.5,8-2.3c9.5,2.6,20.3,5.9,30,10.8c-14.4-2.3-29-4.1-42.9-4.4c5.4,8.7,8.2,20,7.7,31.8
	c-14.1-16.2-28.5-33.6-45.9-51.6l-0.8-165.1l-3.6,0.8V79c-16.4,63.1-38.5,90.6-77.5,121.9c23.6,2.3,43.1,11.6,59.6,22.8l-1.5,7.4
	l2.3,0.5L272,225.3L272,225.3z M145.5,227.4c1,0.8,2.1,1.5,3.1,2.1l-1.8,11.6l-3.6-1.3L145.5,227.4L145.5,227.4z M150.6,231.2
	c2.3,1.5,4.6,3.3,6.7,5.1l1.5,6.2l-1.5,2.1c-2.8-1-5.4-2.1-8.2-2.8L150.6,231.2L150.6,231.2z M277.7,229.4c2.6,1.8,4.9,3.9,7.2,5.9
	l0.5,2.3c-2.8-1-5.6-1.8-8.5-2.8L277.7,229.4L277.7,229.4z M166.5,255.3c-0.3,0-0.3,0.3-0.5,0.3v-3.3L166.5,255.3L166.5,255.3z
	 M166,257.9c0.3,0.3,0.8,0.5,1,0.5l0.8,4.1c-0.8,0.3-1.3,0.8-1.3,1.5c0,1,0.8,1.8,1.8,1.8l0,0l0.8,2.8c-0.8,0.3-1.3,1-1.3,1.5
	c0,1,0.8,1.8,1.8,1.8l0.8,4.4c-0.5,0.5-0.8,0.8-0.8,1.5c0,0.8,0.5,1.3,1.3,1.5l0.8,3.9c-0.5,0.3-0.8,0.8-0.8,1.3
	c0,0.8,0.5,1.3,1.3,1.5l0.8,5.1c-0.3,0.3-0.5,0.8-0.5,1c0,0.8,0.5,1.3,1,1.5l0.8,4.9c-0.5,0.5-0.8,0.8-0.8,1.5
	c0,0.5,0.5,1.3,1.3,1.5l1,5.4c-0.3,0.3-0.5,0.8-0.5,1.3c0,0.5,0.5,1,1,1.5l1,5.6c-0.3,0.3-0.5,0.5-0.5,1c0,0.5,0.3,1.3,1,1.5
	l0.8,5.4c-0.3,0.3-0.5,0.8-0.5,1.3c0,0.8,0.5,1.3,1,1.5l1,5.6c-0.3,0.5-0.5,1-0.5,1.5c0,1,0.5,1.5,1.3,2.1v1
	c-0.8,2.1-1.5,3.9-2.6,5.9c-0.3-0.5-0.5-0.8-1-0.8l-0.8-5.9c0.5-0.3,0.8-1,0.8-1.8c0-1-0.5-1.8-1.5-2.1l-0.8-5.4
	c0.5-0.3,1-0.8,1-1.3c0-0.8-0.8-1.5-1.5-1.8l-0.8-5.1c0.5-0.3,1-0.8,1-1.3c0-1-0.8-1.5-1.5-1.8l-0.8-5.1c0.5-0.3,0.8-0.8,0.8-1.5
	c0-0.8-0.5-1.3-1.3-1.5l-1-5.6c0.5-0.3,0.5-0.5,0.5-1c0-0.5-0.3-1-0.8-1.3l-0.8-5.1c0.3-0.3,0.5-0.8,0.5-1.3c0-0.8-0.3-1.3-1-1.5
	l-0.8-4.9c0.8-0.3,1-1,1-1.5c0-1-0.5-1.5-1.5-1.8l-0.5-3.9c0.3-0.3,0.8-0.8,0.8-1.3c0-0.8-0.5-1.3-1.3-1.5v-0.3l-1-1.5v-3.1
	c0.3-0.3,0.5-0.5,0.5-1c0-0.3-0.3-0.5-0.5-0.8v-4.4c0.3-0.3,0.5-0.8,0.5-1c0-0.3-0.3-0.8-0.5-1V257.9L166,257.9z M166.5,283.6
	c-0.3,0.3-0.3,0.3-0.3,0.5V281L166.5,283.6L166.5,283.6z M166.2,285.6c0,0.3,0.3,0.5,0.8,0.5l0.8,5.1c-0.8,0.3-1,0.8-1,1.5
	c0,0.8,0.5,1.5,1.5,1.5l0.5,4.6c-0.5,0.3-1,0.8-1,1.5c0,1,0.8,1.5,1.5,1.8l0.8,5.1c-0.3,0.3-0.5,0.8-0.5,1.3c0,0.8,0.3,1.3,1,1.5
	l0.8,5.6c-0.3,0.3-0.5,0.8-0.5,1.3c0,0.5,0.5,1,1,1.3l0.8,5.6c-0.3,0.5-0.5,0.8-0.5,1.3c0,0.5,0.5,1,1,1.3l0.8,6.2
	c-0.3,0.3-0.5,0.8-0.5,1.3c0,0.8,0.5,1.5,1,1.8l1,5.9c-0.5,0.5-1,1-1,1.8c0,1,0.8,1.8,1.5,2.1l0.3,1.3c-1,2.1-1.8,3.8-2.8,5.6
	c-0.3-0.3-0.5-0.5-0.8-0.8l-1-6.7c0.3-0.3,0.5-0.8,0.5-1.3c0-0.8-0.3-1.3-1-1.8l-0.8-5.9c0.5-0.5,1-1,1-1.8c0-1-0.8-1.8-1.5-2.1
	l-0.5-5.4c0.5-0.3,0.8-0.8,0.8-1.3c0-0.8-0.5-1.5-1.3-1.8l-0.8-5.1c0.5-0.3,0.8-0.8,0.8-1.5c0-0.5-0.5-1.3-1-1.5L167,310
	c0.3-0.3,0.3-0.5,0.3-1c0-0.5-0.3-1-0.8-1.3l-0.3-2.8V285.6L166.2,285.6z M167,324.4c-0.3,0.3-0.5,0.8-0.5,1.3c0,0.5,0.3,1,0.8,1.3
	l0.8,5.9c-0.3,0.5-0.5,1-0.5,1.5c0,0.8,0.3,1.5,1,1.8l0.8,5.9c-0.8,0.3-1.3,1-1.3,1.8c0,1,0.8,2.1,1.8,2.1l0.8,5.9
	c-0.8,0.3-1.5,1-1.5,1.8c0,1,1,1.8,2.1,2.1v1.3c-1.5,2.8-3.1,5.9-4.6,8.7l-0.3-46.7L167,324.4L167,324.4z M174.2,392.9
	c0.3,1,1,1.5,1.8,1.8l0.5,4.9c-0.5,0.5-1,1.3-1,1.8c0,1,0.8,1.8,1.5,2.1l0.8,4.9c-0.8,0.5-1,1-1,1.8c0,1,0.5,1.8,1.5,2.1l0.5,4.1
	c-0.8,0.5-1.3,1.3-1.3,2.1c0,1,0.8,1.8,1.8,2.1l0.5,4.1l-13.1-3.9l-0.3-27.5C169.1,393.2,171.6,393.2,174.2,392.9L174.2,392.9z
	 M178.3,394.5c0.5-0.3,0.8-0.8,1-1.3c1,0,2.3,0,3.6,0c0,0.3,0.3,0.3,0.3,0.5l1,5.9l-5.4-1L178.3,394.5L178.3,394.5z M185.8,394.2
	c0.5-0.3,1-0.5,1.3-0.8c1,0,2.3,0,3.3,0c0.3,0.3,0.5,0.3,0.8,0.5l1,5.4c-0.5,0.5-1,1-1,1.5l-2.8-0.5c-0.5-0.5-1-1-1.8-1L185.8,394.2
	L185.8,394.2z M196,401.9c0-0.3,0.3-0.5,0.3-0.8c0-1-0.8-1.8-1.8-2.1l-1-5.4c23.4,1.8,46.2,6.9,66.2,13.3l-0.3,0.3
	c-1,0.3-1.8,1-1.8,2.1c0,0.8,0.5,1.5,1.3,1.8l-0.5,3.1L196,401.9L196,401.9z M184,400.4c-0.3,0.3-0.3,0.8-0.3,1c0,0.8,0.3,1.5,1,1.8
	l1,5.9c-0.3,0.5-0.3,0.8-0.3,1c0,0.5,0,1,0.5,1.5l0.8,4.9c-0.3,0.3-0.5,0.8-0.5,1.3c0,0.8,0.3,1.3,1,1.8l0.8,5.4h-5.6l-0.8-5.1
	c0.5-0.3,0.8-1,0.8-1.5c0-0.8-0.5-1.5-1.3-2.1l-0.5-4.4c0.8-0.3,1-1,1-1.8c0-0.8-0.5-1.8-1.5-2.1l-0.8-4.9c0.8-0.3,1.3-1,1.3-1.8
	c0-0.8-0.8-1.5-1.8-2.1v-0.5L184,400.4L184,400.4z M187,403.4c0.8-0.3,1.5-0.8,1.5-1.5l4.1,1.3l1,4.6c-0.8,0.3-1,1-1,1.5
	c0,1,0.5,1.8,1.5,2.1l0.8,4.6c-0.3,0.5-0.5,1-0.5,1.3c0,0.8,0.5,1.5,1,1.8l1,5.9h-5.9l-1-5.1c1-0.5,1.5-1.3,1.5-2.1
	c0-1-0.8-2.1-2.1-2.3l-0.5-3.3c1,0,1.8-1,1.8-2.1c0-1-1-2.1-2.6-2.1l0,0L187,403.4L187,403.4z M196.5,411.1c0.8-0.3,1-1,1-1.8
	c0-0.8-0.8-1.8-1.8-2.1l-0.5-3.3l20,6.4l43.1,4.6l-0.3,1c-1.3,0-2.3,1-2.3,2.1c0,0.8,0.8,1.8,1.8,2.1l-0.8,4.9h-57.8l-1-5.6
	c0.8-0.3,1.5-1,1.5-2.1c0-1-1-2.1-2.3-2.1L196.5,411.1L196.5,411.1z M292.5,249.9h-0.3v-0.3L292.5,249.9L292.5,249.9z M292.3,252
	c0.3,0.3,0.5,0.3,0.5,0.5l0.8,4.1c-0.3,0.3-0.3,0.5-0.3,1c0,0.5,0.3,1,0.8,1.3l0.8,4.6c-0.3,0.3-0.5,0.8-0.5,1.3
	c0,0.8,0.5,1.3,1,1.5l0.8,3.6c-0.3,0.3-0.5,0.5-0.5,1c0,0.8,0.3,1.3,1,1.5l0.8,5.1c0,0.3,0,0.5,0,1c0,0.3,0,0.8,0.5,1l0.8,4.9
	c0,0.3-0.3,0.5-0.3,0.8c0,0.5,0.3,0.8,0.8,1.3l1,6.4l0,0c0,0.3,0.3,0.5,0.3,0.8l1,6.2c0,0.3-0.3,0.5-0.3,0.8c0,0.5,0.3,1,0.8,1.3
	l1,6.4c0,0.3,0,0.5,0,0.8c0,0.3,0.3,0.8,0.5,1l1,6.7c0,0,0,0.3,0,0.5c0,0.3,0,0.8,0.3,1l1.3,6.2c-0.3,0.3-0.3,0.8-0.3,1
	c0,0.5,0.3,1,0.8,1.3l1,6.4c-0.3,0.3-0.3,0.5-0.3,1c0,0.8,0.3,1.3,0.8,1.8l1.3,6.4c-0.5,0.3-0.5,0.8-0.5,1.3c0,0.8,0.3,1.5,1,1.8
	l1.3,6.9c-0.3,0.3-0.3,0.5-0.3,1c0,0.8,0.3,1.3,0.8,1.5l3.1,17.2c-0.3,0.3-0.3,0.8-0.3,1c0,0.8,0.3,1.3,0.8,1.5l1.3,7.4
	c-0.3,0.3-0.5,0.8-0.5,1.3c0,0.5,0,1,0.5,1.5c-1,1.8-2.1,3.8-3.1,5.6c-0.3-0.3-0.5-0.3-0.8-0.3L312,386c0.8-0.3,1.3-1,1.3-1.8
	c0-1-0.8-1.8-1.8-2.1l-1-6.4c0.8-0.3,1.3-1,1.3-1.8c0-1-0.8-1.8-1.8-2.1l-1-6.2c1-0.3,1.5-1,1.5-2.1c0-1-1-2.1-2.3-2.1l-0.8-5.6
	c0.5-0.3,1-1,1-1.8c0-1-0.8-1.8-1.8-2.1l-1-6.2c0.5-0.3,0.8-1,0.8-1.5c0-0.8-0.5-1.5-1.3-2.1l-0.8-5.6c0.5-0.3,0.8-1,0.8-1.8
	c0-1-0.5-1.8-1.5-2.1l-0.8-5.4c0.5-0.3,1-0.8,1-1.3c0-1-0.8-1.5-1.5-1.8l-0.8-5.1c0.5-0.3,1-0.8,1-1.5c0-0.8-0.8-1.5-1.5-1.5
	l-0.8-5.1c0.5-0.3,0.8-1,0.8-1.5c0-0.8-0.5-1.3-1.3-1.5l-1-5.6c0.3-0.3,0.5-0.5,0.5-1c0-0.5-0.3-1-0.8-1.5l-0.8-4.9
	c0.3-0.3,0.5-0.8,0.5-1.3c0-0.8-0.5-1.3-1-1.5l-0.8-4.9c0.5-0.3,1-1,1-1.8c0-0.8-0.8-1.5-1.5-1.5l-0.8-3.8c0.5-0.3,1-0.8,1-1.3
	c0-0.8-0.8-1.5-1.5-1.8l-0.8-4.6c0.3-0.3,0.5-0.5,0.5-1c0-0.5-0.3-1-0.8-1.3l-0.5-3.3c0.8-0.3,1.3-0.8,1.3-1.5c0-1-0.8-1.5-1.8-1.8
	v-0.5L292.3,252L292.3,252z M294.6,252.5c0.8-0.3,1.3-0.8,1.3-1.5c0-0.8-1-1.5-2.1-1.5l-0.5-2.8h1.5l2.3-13.3
	c11.6,22.6,19.8,54.7,14.9,63.1c5.4,1.3,12.1,2.3,19.8,3.9c-2.3,4.4-4.9,8.2-8.2,11.8c10.8-2.6,21.6-4.6,31.6-6.2
	c4.9,1.5,9.8,3.3,14.6,5.6l-1.3,5.9c-18-1-35.9-1.8-50.8-1c9.8,13.3,9.5,42.1,1,64.2l-1-5.1c1-0.3,1.8-1,1.8-2.1
	c0-1-1.3-2.1-2.6-2.1l0,0l-1.3-6.2c1.3,0,2.6-0.8,2.6-2.1c0-1-1.3-2.1-2.6-2.1c-0.3,0-0.5,0-0.8,0l-1-5.4c1-0.3,1.5-1,1.5-2.1
	c0-1-1-2.1-2.3-2.1l-1-5.9c0.5-0.3,1-1,1-1.8c0-1-0.8-1.8-1.8-2.1l-1-5.6c0.5-0.3,1-1,1-1.8c0-1-0.8-2.1-1.8-2.1l-1-5.1
	c0.8-0.3,1-1,1-1.5c0-0.8-0.5-1.5-1.5-1.5l-1-5.1c0.8-0.3,1.3-0.8,1.3-1.5c0-1-0.8-1.8-1.8-1.8l0,0l-1-4.9c0.8-0.3,1.5-0.8,1.5-1.5
	c0-1-1-1.8-2.1-1.8l0,0l-1-5.1c0.8-0.3,1.3-0.8,1.3-1.5c0-0.8-0.8-1.5-1.8-1.5l-0.8-4.4c0.8-0.3,1.5-1,1.5-1.8
	c0-0.8-0.8-1.5-1.8-1.5c-0.3,0-0.3,0-0.5,0l-0.8-4.6c0.8-0.3,1.3-0.8,1.3-1.5c0-1-0.8-1.8-1.8-1.8l0,0l-0.8-3.3
	c0.8-0.3,1.3-1,1.3-1.5c0-1-0.8-1.8-1.8-1.8l0,0l-1-4.4c0.8-0.3,1-0.8,1-1.5c0-0.8-0.5-1.5-1.5-1.5l-0.5-3.3
	c0.5-0.3,0.8-0.8,0.8-1.3c0-0.8-0.5-1.5-1.3-1.8l-0.8-3.9c0.5-0.3,1-1,1-1.5c0-1-0.8-1.8-1.8-1.8l0,0L294.6,252.5L294.6,252.5z
	 M293.1,277.2c-0.3,0.3-0.5,0.5-0.5,0.8v-4.6L293.1,277.2L293.1,277.2z M292.5,279.2c0.3,0.5,0.5,0.8,1,1l0.5,4.1
	c-0.3,0.3-0.3,0.8-0.3,1c0,0.8,0.3,1.3,0.8,1.5l0.8,5.1c-0.5,0.3-0.8,0.8-0.8,1.5c0,0.8,0.5,1.3,1.3,1.5l0.8,4.6
	c-0.8,0.3-1,0.8-1,1.5c0,0.8,0.5,1.5,1.5,1.5l0.8,5.4c-0.5,0.5-0.5,0.8-0.5,1.3c0,0.8,0.3,1.3,0.8,1.5l1,5.6c-0.3,0.3-0.5,0.8-0.5,1
	c0,0.8,0.5,1,0.8,1.5l1,5.6c-0.3,0.5-0.5,0.8-0.5,1.3c0,0.5,0.3,1,0.8,1.3l1,6.2c-0.3,0.3-0.5,0.8-0.5,1.3c0,0.8,0.5,1.3,1,1.8
	l1,5.9c-0.8,0.5-1,1-1,1.8c0,1,0.5,1.8,1.5,2.1l0.8,6.2c-0.3,0.3-0.5,1-0.5,1.5c0,0.8,0.5,1.5,1.3,1.8l0.8,6.4
	c-0.3,0.5-0.3,0.8-0.3,1.3c0,0.8,0.3,1.3,0.8,1.5l1,7.2c-0.3,0.5-0.8,1-0.8,1.5c0,0.8,0.5,1.5,1.3,1.8l1.3,6.9c-0.5,0.3-1,1-1,1.5
	c0,0.8,0.5,1.5,1.5,1.8l0.8,5.6c-0.3,0.3-0.5,0.8-0.5,1.3c0,0.5,0.5,1,1,1.5l0,0c-1.3,2.1-2.8,3.6-4.4,5.1c1.8-0.3,3.3-0.8,4.9-1.3
	l0.5,2.6c-0.5,0.5-0.5,0.8-0.5,1.3c0,0.8,0.3,1.3,0.8,1.8l1,5.9c-0.3,0.3-0.5,0.5-0.5,1c0,0.5,0.5,1.3,1,1.5l0.5,4.6
	c-0.3,0.3-0.5,0.8-0.5,1.5c0,0.8,0.5,1.3,1,1.8l0.5,3.3l-5.6,0.8l-0.5-3.9c0.5-0.5,0.8-1,0.8-1.5c0-1-0.5-1.5-1.3-2.1l-0.5-4.4
	c0.8-0.3,1-1,1-1.8c0-1-0.5-1.8-1.5-2.1l-0.8-4.9c0.8-0.3,1.3-1,1.3-1.8c0-0.8-0.8-1.8-1.8-2.1l-0.5-4.9c0.5-0.5,1-1,1-1.8
	c0-1-0.8-1.8-1.5-2.1l-0.8-5.1c0.5-0.5,1-1,1-1.8c0-0.8-0.8-1.5-1.5-1.8l-0.8-6.9c0.5-0.3,0.8-0.8,0.8-1.5s-0.5-1.5-1.3-1.8l-1-6.7
	c0.8-0.5,1-1,1-1.8c0-0.8-0.5-1.5-1.5-1.8l-0.8-6.2c0.5-0.5,0.8-1,0.8-1.5c0-0.8-0.5-1.5-1.3-1.8l-0.8-6.7c0.3-0.3,0.5-0.8,0.5-1.3
	c0-0.8-0.3-1.3-1-1.8l-0.8-5.9c0.5-0.5,1-1,1-1.8c0-1-0.8-1.8-1.5-2.1l-0.8-5.4c0.8-0.3,1-0.8,1-1.5c0-0.8-0.5-1.3-1.3-1.5l-0.8-5.1
	c0.5-0.5,0.8-1,0.8-1.5c0-0.8-0.5-1.3-1-1.5l-0.8-5.6c0.3-0.3,0.3-0.5,0.3-1c0-0.5-0.3-1-0.8-1.3l-1.8-14.1V279.2L292.5,279.2z
	 M292.5,308.2L292.5,308.2V308V308.2L292.5,308.2z M292.5,311.3c0.3,0,0.3,0,0.5,0l0.8,5.4c-0.5,0.3-0.8,0.8-0.8,1.3
	c0,0.8,0.5,1.3,1,1.5l0.8,5.6c-0.3,0.3-0.5,0.8-0.5,1c0,0.8,0.3,1.3,0.8,1.5l0.8,5.9c-0.3,0.3-0.5,0.8-0.5,1.5c0,0.8,0.3,1.5,1,1.8
	l0.8,5.6c-0.8,0.5-1.3,1.3-1.3,2.1c0,1,0.8,1.8,1.8,2.1l0.8,5.9c-0.8,0.3-1.5,1-1.5,1.8c0,1,0.8,1.8,1.8,2.1l0.8,5.6
	c-0.8,0.3-1.3,1-1.3,1.8c0,1,0.8,1.8,1.8,2.1l0.8,6.4c-0.8,0.3-1.3,1-1.3,1.8c0,1,0.8,1.8,1.8,2.1l1,6.4c-0.8,0.5-1.3,1-1.3,1.8
	c0,1,0.8,1.8,1.5,2.1l0.8,5.1c-0.8,0.3-1.3,1-1.3,1.8c0,1,0.8,1.8,1.8,2.1l0.5,4.9c-0.5,0.5-1,1-1,1.8c0,1,0.8,1.8,1.5,2.1l0.8,4.9
	c-0.8,0.5-1,1-1,1.8c0,1,0.5,1.5,1.5,2.1l0.5,4.1c-0.8,0.5-1.3,1-1.3,2.1c0,0.8,0.8,1.8,1.8,2.1l0.5,3.9h-0.8h-13.9v-5.1l0.5,0.3
	c-0.5-25.4-0.5-49.3-0.8-71.4L292.5,311.3L292.5,311.3z M274.6,412.2L274.6,412.2l-0.5,5.1c-0.5,0.3-1,0.8-1,1.5
	c0,0.8,0.3,1.3,0.8,1.5l-0.5,4.6h-6.2l0.5-4.1c1.3,0,2.1-1,2.1-2.1c0-0.8-0.5-1.5-1.5-2.1l0.5-4.6c0.8-0.3,1.5-0.8,1.5-1.5
	C271.7,411.1,273,411.7,274.6,412.2L274.6,412.2z M265.3,409.1c0,0.3-0.3,0.5-0.3,0.8c0,0.8,0.5,1.5,1.3,2.1l-0.5,3.9l-5.1-1
	l0.5-3.1c1-0.3,1.5-1,1.5-1.8c0-0.8-0.5-1.3-1-1.8v-0.3C263,408.1,264.3,408.6,265.3,409.1L265.3,409.1z M276.1,421.4
	c1-0.3,2.1-1,2.1-2.1c0-0.8-0.8-1.8-1.5-2.1l0.3-4.4c3.6,1.5,7.2,2.8,10.3,4.4v7.7h-11.3L276.1,421.4L276.1,421.4z M265.8,416.8
	c-0.8,0.3-1.3,0.8-1.3,1.5c0,0.8,0.3,1.3,0.8,1.5l-0.8,5.1h-5.4l0.8-4.9c0.8-0.3,1-0.8,1-1.5c0-0.5-0.3-1-0.5-1.5l0.3-1.8l5.1,0.5
	V416.8L265.8,416.8z M380.3,242.8l-4.1-0.3l1.3,6.2l-1.8-0.5c-5.6-4.4-11.3-9.2-16.9-14.4c7.7-1.3,15.1-1.8,21.6-1.5V242.8
	L380.3,242.8z M296.6,232.7l-4.4-0.5v-7.4C293.8,227.1,295.4,229.9,296.6,232.7L296.6,232.7z M158.8,242.5l0.5,2.6l-1-0.3
	L158.8,242.5L158.8,242.5z M135.7,397.5c0.5-0.3,0.8-0.3,1-0.5c1.3,0.8,2.6,1.3,3.9,2.1l-0.8,5.6c-0.8,0.3-1.3,1-1.3,1.8
	c0,0.8,0.5,1.3,1,1.8l0,0l-4.1-1.8c0.3-0.5,0.5-0.8,0.5-1.3c0-0.8-0.5-1.3-1-1.8L135.7,397.5L135.7,397.5z M141.9,408.8
	c1-0.3,1.8-1.3,1.8-2.3c0-0.8-0.5-1.5-1.3-1.8l0.5-4.1c1.5,1,3.3,2.1,4.9,3.1l-0.3,2.1c-0.8,0.5-1.3,1-1.3,2.1c0,0.8,0.3,1.3,1,1.8
	l-0.3,2.1l-5.4-2.3L141.9,408.8L141.9,408.8z M146.7,413.7c-0.8,0.5-1,1.3-1,2.1l-3.6-0.3c0-0.3,0.3-0.5,0.3-0.8
	c0-0.8-0.5-1.5-1-1.8l0.3-2.3l5.4,1.5L146.7,413.7L146.7,413.7z M138.8,412.7c-0.8,0.3-1.5,1-1.5,2.1v0.3h-3.1
	c0.3-0.5,0.5-1,0.5-1.5c0-0.8-0.5-1.3-1-1.8l0.5-3.3l5.1,1.5L138.8,412.7L138.8,412.7z M320,400.1c-0.5,0.5-1,1-1,1.8
	c0,0.8,0.8,1.8,1.5,2.1l1,4.4c-0.8,0.5-1,1-1,1.8c0,1,0.8,1.8,1.5,2.1l1,4.6c-0.5,0.3-0.8,0.8-0.8,1.3c0,0.8,0.5,1.5,1.3,1.8
	l0.5,2.8l-5.9,0.8l-0.5-3.1c0.8-0.3,1.3-1,1.3-1.8c0-1-0.8-2.1-2.1-2.3l-0.5-3.3c1-0.3,1.8-1,1.8-2.1c0-1.3-1-2.1-2.3-2.1l-0.8-4.6
	c1-0.3,1.5-1,1.5-2.1c0-1-1-2.1-2.3-2.1l-0.3-2.3c1.5-0.5,3.3-1,5.1-1.5L320,400.1L320,400.1z M322.8,403.7c0.8-0.5,1.3-1,1.3-1.8
	c0-1-0.8-1.8-1.8-2.1l-0.8-4.1c11-2.8,22.1-5.6,32.9-7.7l-0.3,1.3c-0.8,0.3-1.5,0.8-1.5,1.5c0,0.5,0.5,1,1,1.3l-0.5,3.1
	c-1,0.3-1.5,0.8-1.5,1.5c0,0.5,0.3,1,1,1.3l-1,4.6c-1,0.3-1.8,0.8-1.8,1.5c0,0.5,0.5,1,1.3,1.5l-0.8,3.3c-1,0.3-1.5,0.8-1.5,1.5
	c0,0.5,0.3,1,1,1.3l-1.5,7.7h0.3l-22.1,2.8l-0.3-2.3c0.8-0.5,1.3-1,1.3-2.1c0-1-1-2.1-2.1-2.1l-0.8-4.1c0.5-0.5,0.8-1,0.8-1.8
	c0-0.8-0.5-1.8-1.5-2.1L322.8,403.7L322.8,403.7z M355.9,392.4c1-0.3,1.8-0.8,1.8-1.5c0-0.5-0.5-1.3-1.3-1.5l0.5-1.8
	c1.5-0.5,3.3-0.8,5.1-1l-0.8,3.3c-0.8,0.3-1.5,0.8-1.5,1.5c0,0.5,0.5,1,1,1.3l-0.5,3.1c-0.8,0.3-1.5,0.8-1.5,1.5c0,0.5,0.5,1,1,1.3
	L359,404c-0.8,0.3-1.3,0.8-1.3,1.3c0,0.5,0.3,1,0.8,1.3l-0.5,3.3c-1,0.3-1.8,1-1.8,1.5c0,0.8,0.5,1.3,1.3,1.5l-1,5.6l-5.6,0.8
	l1.3-7.2c1-0.3,1.8-0.8,1.8-1.5c0-0.5-0.5-1-1.3-1.3l0.8-3.6c0.8-0.3,1.5-0.8,1.5-1.5c0-0.5-0.5-1-1-1.3l0.8-4.6
	c1-0.3,1.8-0.8,1.8-1.5c0-0.8-0.3-1.3-1-1.5L355.9,392.4L355.9,392.4z M363.1,392.9c1,0,1.8-0.8,1.8-1.5c0-0.5-0.5-1-1.3-1.5
	l0.8-3.9c1.5-0.3,3.1-0.5,4.4-0.8l-0.5,5.1c-0.8,0.3-1.3,1-1.3,1.5c0,0.5,0.3,1,1,1.5l-0.5,2.6c-0.8,0.3-1.5,0.8-1.5,1.5
	c0,0.5,0.5,1,1.3,1.5l-0.5,5.6c-1,0.3-1.5,0.8-1.5,1.5c0,0.5,0.5,1,1,1.3l-0.3,3.3c-0.8,0.3-1.3,0.8-1.3,1.5c0,0.5,0.3,0.8,0.8,1.3
	l-0.3,3.9l-6.2,0.8l0.8-5.4c1-0.3,1.5-0.8,1.5-1.5c0-0.5-0.5-1-1-1.3l0.5-3.1c1-0.3,1.8-1,1.8-1.8c0-0.5-0.5-1-1.3-1.3l0.8-5.1
	c1-0.3,1.8-0.8,1.8-1.5c0-0.5-0.5-1-1.3-1.5L363.1,392.9L363.1,392.9z M370.1,393.4c1,0,1.8-0.8,1.8-1.5c0-0.5-0.5-1.3-1.3-1.5
	l0.5-5.6c3.1-0.5,6.2-1,9-1.5v32.3l-12.6,1.5l0.5-3.1c1-0.3,1.5-1,1.5-1.5c0-0.8-0.5-1.3-1.3-1.5l0.3-3.1c1-0.3,1.8-1,1.8-1.5
	c0-0.8-0.5-1.3-1.3-1.5l0.5-5.6c1-0.3,1.5-0.8,1.5-1.5c0-0.5-0.5-1-1.3-1.5L370.1,393.4L370.1,393.4z M394.2,391.9
	c-0.3,0.5-0.5,0.8-0.5,1.3c0,0.5,0.3,1,1,1.3l0.5,4.1c-0.5,0.5-1,1-1,1.5c0,0.8,0.8,1.3,1.5,1.5l1,6.4c-0.5,0.3-0.8,0.8-0.8,1.3
	c0,0.5,0.5,1.3,1.3,1.5l0.5,2.3l-11.8,1.5l-0.3-32.3c2.3-0.3,4.6-0.5,6.7-0.8L394.2,391.9L394.2,391.9z M397,394.7
	c1-0.3,1.5-1,1.5-1.5c0-1-1-1.8-2.3-1.8l-1.5-10c1.5-0.3,3.1-0.5,4.9-0.5l2.1,11c-0.3,0.3-0.5,0.5-0.5,0.8c0,0.8,0.5,1,1,1.5l1,4.9
	c-0.5,0.3-0.5,0.5-0.5,1c0,0.5,0.3,1,0.8,1.3l1.5,6.9c-0.3,0.3-0.5,0.5-0.5,1c0,0.5,0.3,0.8,0.8,1l0.5,1.8l-5.6,0.8l-0.5-2.3
	c0.8-0.3,1.3-0.8,1.3-1.3c0-0.8-0.8-1.5-1.8-1.8l-1-6.2c0.8-0.3,1.3-0.8,1.3-1.3c0-0.8-0.8-1.3-1.8-1.5L397,394.7L397,394.7z
	 M404.5,394.5c1-0.3,1.8-1,1.8-1.8c0-0.8-1.3-1.5-2.6-1.5l-2.1-10.5c1.5-0.3,3.3-0.3,4.9-0.5l2.6,11c-0.8,0.3-1.3,0.8-1.3,1.3
	c0,1,0.8,1.5,2.1,1.8l1,4.1c-0.8,0.5-1,1-1,1.5c0,0.8,0.8,1.3,1.5,1.5l1.5,5.9c-0.8,0.3-1.3,0.8-1.3,1.3c0,0.8,0.8,1.5,1.8,1.8
	l0.3,0.8l-5.6,0.8l-0.3-1c1-0.3,1.8-0.8,1.8-1.5c0-1-1-1.8-2.6-1.8l-1-5.9c0.8-0.3,1.5-0.8,1.5-1.5c0-1-1-1.8-2.3-1.8L404.5,394.5
	L404.5,394.5z M388.8,303.6l3.6,15.7l-3.3-0.3l-3.1-14.4l-0.5-0.8v-0.3C386.5,303.6,387.8,303.6,388.8,303.6L388.8,303.6z
	 M385.5,309.2l1.8,9.5h-1.8V309.2L385.5,309.2z M379.8,305.1l0.5,2.8v8.5c-0.5-0.5-1-0.8-1.5-1.3L379.8,305.1L379.8,305.1z
	 M372.9,304.1c1.3,0,2.3,0,3.3-0.3l-1.3,8.5c-1-0.8-2.1-1.8-3.1-2.6L372.9,304.1L372.9,304.1z M371.3,312.3c1,0.3,2.3,0.8,3.3,1.5
	l-0.8,4.1c-1.3-0.3-2.3-0.3-3.6-0.3L371.3,312.3L371.3,312.3z M370.3,308.5c-1.3-1.3-2.8-2.6-4.1-3.9c1.5,0,3.3-0.3,4.9-0.3
	L370.3,308.5L370.3,308.5z M378,303.8h0.3l-1,10.3l-1-0.8L378,303.8L378,303.8z M376.2,314.4l0.8,0.5l-0.3,3.1h-1L376.2,314.4
	L376.2,314.4z M380.3,316.7v1.5h-2.1l0.3-2.6C379,315.9,379.8,316.4,380.3,316.7z"/>
</svg>
