<?xml version="1.0" encoding="utf-8"?>
<!-- Generator: Adobe Illustrator 23.0.4, SVG Export Plug-In . SVG Version: 6.00 Build 0)  -->
<svg version="1.1" id="Layer_1" xmlns="http://www.w3.org/2000/svg" xmlns:xlink="http://www.w3.org/1999/xlink" x="0px" y="0px"
	 viewBox="0 0 408 258.7" style="enable-background:new 0 0 408 258.7;" xml:space="preserve">
<path d="M96.5,22.6c-8.7,3.5-15,7.8-21.1,12c-5.1,3.5-9.1,6.6-11.9,9c-5.6,4.7-11.6,10.5-13,11.9c-1.5,1.5-2.5,2.5-3.3,3.2
	c-1.8,1.8-3.1,3.1-3.5,3.6c-2.9,3-6,5.5-12.2,10.4c-1.4,1.1-3.3,2.6-5.6,4.4c-2.4,1.7-4.4,3-5.8,3.7C14.8,83.6,4.6,88,2,90.9
	c-0.3,0.3-1.1,1.3-1.2,2.6c0,0.5,0,1.2,0.4,1.8c0.9,1.3,5.7,0.3,5.7,0.3c0.5-0.1,1.2-0.3,2.1-0.5c6.5-1.7,12.3-5.2,12.4-5.2
	c2.6-1.5,4.7-2.8,6.1-3.8c1-0.7,2.4-1.6,2.6-1.4c0.2,0.2-0.2,0.8-0.6,1.4c-0.8,1.4-1.5,2.7-2.3,4.1C24,96.5,21.6,102,20,106.1
	c-2.2,5.5-8.6,21.9-9.7,36.8c-0.1,1.8-0.4,6.1-0.4,11.5c0,3.4,0,5.6,0.4,8.8c0.5,4.4,0.9,8.3,3.1,12.9c0.7,1.4,1.5,2.8,2.5,4.2
	c4,5.6,9.4,8.6,11.6,9.8c0.8,0.4,4,2.1,8.6,3.4c5.4,1.5,14.9,1.9,20.2,1l3.7-0.7l-1.9,2.6c-1,1.4-4.9,6-8.5,10.1
	c-14.7,16.5-17.6,22.3-12.4,25.1c2.8,1.5,5.2-0.3,11.9-9c3-3.9,5.8-7.1,6.1-7.1s1.3,2.4,2.2,5.4c3.5,10.9,10.4,13.5,19.8,7.6
	c3.6-2.4,5.4-4.4,5.3-6.3c-0.1-1.5-1.4-2.7-1.5-2.8c-0.2-0.2-1.5-1.4-3.1-1.4c-2.2,0-2.8,2.1-6.6,3.8c-1.3,0.6-2,0.9-2.8,0.7
	c-1.6-0.4-2.3-2.3-3.6-5.3c-0.5-1.3-1.1-3-1.6-5.2l2.7-1.7c4.4-3.3,7.1-6.6,7.8-8.4c0.5-1.3,0.6-2.5,0.6-2.5c0-0.3,0.1-1.3-0.1-2.7
	c-0.1-0.7-0.3-1.3-0.4-1.7c-0.6-1.6-0.6-1.6-0.7-1.9c-0.1-1.6,3.6-2.6,7.7-5.5c1.3-0.9,2.3-1.7,3-2.3c0,0,1.4-1,4-3.2
	c0.6-0.5,1.6-1.4,2.7-2.7c0.8-1,1-1.5,1.1-1.8c0.4-1.4,0-2.7-0.2-3.2c-1.1-3.6-4.2-3.5-12.8,0.7c-11.2,5.5-32.4,11.6-44.6,5.2
	c-7.4-3.9-10.4-11.7-11.4-14.3c-2.8-6.9-2.1-13-1.2-22c0.7-6.7,2-11.5,4-19.1c1.9-7.1,3.6-12,5.9-18.7c0,0,2-5.8,7.2-17.6
	c2.3-5.3,3.7-8.1,4.5-7.9c0.8,0.2,0.3,3.1,0.7,7.9c0.3,3.7,1.1,14.9,6,16.4c1.5,0.5,3.4,0,4.4-1.1c1.1-1.1,1-2.7-0.4-12.9
	c-0.4-2.7-0.5-4.1-0.6-6.1c0-2.3,0.1-4.2,0.3-6.1c0.2-3.1,0.6-5.6,0.7-5.9c1.2-8,14.4-19.9,17.1-22.3c5.4-4.8,10-8.3,11.9-9.6
	c2.3-1.5,6.2-4,11.5-6.5c6.6-3.1,14.8-7,25.8-7.7c7.4-0.4,16-0.9,22.7,4.9c4.5,3.9,6.3,9.1,7,12l0,0c0.5,2,0.9,4.9,0.1,8.2
	c-1.2,4.4-3.9,6.2-3.2,7.7c0.9,1.9,7,2.3,10.6-0.6c6.7-5.3,2.3-19.4,1.8-21c-0.5-1.5-4-12.1-14.5-17.6c-3.3-1.8-6.2-2.4-9-3
	c-8.6-1.8-15.9-1-20.5-0.1C107.4,18.6,100.9,20.8,96.5,22.6z M367.2,28.4c-2.7,0.8-3.5,4-5.3,6.7c-1.8,2.7-7,9.7-11.4,15.8
	c-4.5,6-13.2,18.2-19.2,27.1c-6.1,8.8-11.8,16.9-12.6,18c-0.9,1-10.2,12.7-20.8,25.9c-28.6,35.6-44,53.8-55.9,65.8
	c-9.6,9.5-16.2,14.3-18.1,13.1c-1-0.6,1.8-13.1,4.3-19.4c3.3-8.4,10.6-20.1,21.7-35c5.5-7.4,10-14.5,10.1-15.7
	c0-2.4-2.4-5.3-4.5-5.3s-4.9,2.9-12.5,13c-8.3,11-14.5,18.2-25,29.4c-24.4,25.7-36.5,34.9-41.5,31.2c-1.4-1-1.4-1.8,0-8.1
	c1.6-7.2,5-18.4,6.5-22c0.5-1.1,1.9-4.5,3.1-7.5c1.6-4.2,4.2-7.5,10.9-14c14.7-14.4,36.5-41.5,46.3-57.7c2.5-4.3,8.7-16.4,13.7-26.8
	c9.9-20.9,10.8-24.7,5.7-25.3c-2.3-0.3-4,1-11.1,8.3c-8.8,8.9-27.5,32.3-36.9,46c-6.2,9-13.1,21.3-23.9,42.6
	c-6.2,12.1-8.4,15.5-12.9,19.5c-3,2.7-8.1,7.5-11.4,10.6c-3.7,3.5-7.9,7-13.1,11c-1.8,1.4-11.6,8.8-25.8,15.9
	c-7.9,3.9-12.7,5.5-15.8,3.4c-1.1-0.7-2.8-2.5-3.7-5c-0.7-1.8-0.6-3.4-0.6-5.1c0-1.3,0.2-2.4,0.5-3.4c0.3-0.8,0.8-2.4,1.8-2.6
	c0.7-0.1,1.4,0.5,1.5,0.6c1.9,1.7,10.5,1.9,15.5,0.5c18.7-5.4,35.1-19.3,32.9-28.1c-0.8-3.1-6.6-6.5-11.9-6.9
	c-24.3-1.8-46.8,26.2-48.2,38.4c-0.8,6.6,1.6,11.5,1.6,11.5c0.7,1.5,2.2,4.4,5.5,6.3c2.9,1.7,5.9,1.8,7.3,1.8s2.6-0.2,3.6-0.3
	c8.2-1.3,18.8-7.4,18.8-7.4c11.2-6.4,16.8-9.7,21.9-13.4c6-4.5,10.7-8.7,14.2-12.1l3.7-3.7l-2,5.9c-2.7,8.1-6,22.1-6,26
	c0,6.5,5.6,10.3,13.4,9.2c5.2-0.8,13.7-5.7,20.2-11.7c2.6-2.4,5.5-5.1,6.4-5.9c0.9-0.8,3.6-3.3,6-5.5c2.1-1.9,3.2-3.1,3.6-2.8
	c0.4,0.3,0,1.7-0.5,3.3c-0.8,2.9-1.3,5.9-2.1,8.8c-1.2,5-0.7,13.3,3.7,15.6c3.5,1.8,9,1.2,14.2-1.4c4.5-2.3,23.1-20.3,33.1-32
	c3.5-4.1,6.9-8,7.4-8.6c0.6-0.6,4.2-4.8,7.9-9.3c3.8-4.4,7-8.1,7.1-8.1c0.7,0-1,3.5-2.5,10.4c0,0-0.5,2.3-1.1,5.8
	c-1.1,6.8-3.7,21.1,3.9,28.7c5.9,5.9,14.8,7.4,26.4,4.6c9.3-2.2,13.7-4.4,22.1-11.2c7.3-5.9,9.4-9.2,7.7-12.3
	c-2.7-5-6.9-4.6-13.5,1.5c-5.6,5.1-11.7,8.6-18.9,10.5c-10.2,2.9-15.7,1.6-17.8-4c-1.3-3.4-1.2-15.4,0.2-21.5c0.6-2.8,1.3-5.9,1.6-7
	c0.2-1.1,0.8-4,1.4-6.5l1.1-4.6l7.4-2.3c16-4.9,26.5-14.3,26.5-23.6c0-4-1.3-7-3.6-8.4c-1.9-1.1-4.4-0.9-4.5-0.9
	c-1.6,0.2-2.3-0.1-2.6-0.4c0,0-0.1-0.1-0.2-0.3c-0.6-1,5.7-8.7,9.5-13.2c3.1-4.2,7.1-9.8,10.3-14.3c8.8-12.2,15.8-22.1,20.3-28
	c7.7-10.2,14.2-19.1,14.4-19.8C374.4,30.4,370.6,27.4,367.2,28.4z M247.3,66.1c-5,10.5-13.6,25.5-18.7,32.3
	c-5.5,7.4-18.4,23.7-21.8,27.5c-1.4,1.6-3.6,4.1-4.7,5.4c-1.2,1.3-2.1,2-2.1,1.5c0-0.6,0.4-1.4,0.9-2c0.4-0.5,2.6-4.3,4.7-8.4
	c5.6-11.1,13.8-24.2,21.7-35c7.7-10.3,22.6-29,23.2-29C250.7,58.4,249.3,61.9,247.3,66.1z M325.5,116.4c0.9,1.5-2.2,6.7-5.8,9.4
	c-2.7,2.1-15.3,7.6-17.3,7.6c-1,0,1.5-3.6,5.8-8.3c2.4-2.6,6.6-5.9,9.3-7.2C323,115.2,324.6,114.9,325.5,116.4z M150.7,153.9
	c2.1,5.8-25.1,21-34.2,19.1c-1.1-0.3-2.2-0.5-2.4-0.5c-1.1-0.2,5.9-6.7,11.5-10.7C136.9,153.7,149.1,149.9,150.7,153.9z M267.6,99.3
	c-2.4,2.6-1.2,6.9,2.2,7.8c3.4,0.8,5.6-0.8,6-4.3C276.4,98,270.9,95.6,267.6,99.3z M98,118.6c-3.1,3.3-5.6,5.5-6,5.2v-0.1
	c0-1-2.2-4.5-3.8-4.3c-1.1,0.2-1.7,2.3-2.1,3.8c-0.5,1.8-0.5,3.5-0.5,4.6c0,1.9,0.2,2.6-0.3,3.7c-0.4,1.1-1.2,1.8-1.6,2.2
	c-6.8,6.7-8.8,9.5-8.2,11c1,2.8,3.6,1.9,8.5-2.9l4.7-4.6L90,143c0.6,3.3,1.4,6.9,1.6,8c0.8,4.6,6.9,3.6,8-1.4
	c0.3-1.5,2.6-9.1,5-16.9c4.7-15.1,5.1-17.2,3.2-19.1C105.7,111.5,104.2,112.3,98,118.6z M98.3,130.9c-1.5,4.4-1.7,4.7-2.6,2.8
	c-0.7-1.7-0.4-2.9,1.3-5.3c1.2-1.7,2.4-2.9,2.6-2.7S99.2,128.3,98.3,130.9z M401.7,137.1c-0.3,0.5-0.1,1.8,0.4,3
	c1.1,3,4.9,2,4.9-1.3c0-1.9-0.5-2.4-2.4-2.4C403.2,136.4,401.9,136.7,401.7,137.1z M370.9,187.6c-10.9,11.8-14.3,15.2-34.8,34.6
	C324.8,233,321,237.2,321,239c0,4.8,3.9,2.8,14.9-7.9c32.4-31.3,48.1-47.8,48.1-50.6c0-1.5-1.8-3.1-3.4-3.1
	C380.4,177.4,376.1,182,370.9,187.6z M68.5,198.5c0.7,2.7-2.6,6.9-5.5,6.5c-1.1-0.1-2.3-0.9-2.4-1.8c-0.1-1.1,1.4-1.4,3.6-4
	c1.4-1.7,1.8-2.7,2.6-2.6C67.5,196.6,68.2,197.6,68.5,198.5z"/>
</svg>
