<?xml version="1.0" encoding="utf-8"?>
<!-- Generator: Adobe Illustrator 24.1.0, SVG Export Plug-In . SVG Version: 6.00 Build 0)  -->
<svg version="1.1" id="Layer_1" xmlns="http://www.w3.org/2000/svg" xmlns:xlink="http://www.w3.org/1999/xlink" x="0px" y="0px"
	 viewBox="0 0 850.4 850.4" style="enable-background:new 0 0 850.4 850.4;" xml:space="preserve">
<style type="text/css">
	.st0{fill:#F0F0F0;}
</style>
<path class="st0" d="M323,810.8c48.7,13.2,97.3,19.8,145.8,19.8c49.2,0,98.3-6.8,147.4-20.5C588.9,797.6,537,778,469.6,778
	c-5.9,0-11.9,0.2-17.9,0.4C394.7,781.5,350.2,798.1,323,810.8z"/>
<path class="st0" d="M138.7,238.9c-18.7,44.1-28.1,90.8-28.1,139c0,98.9,42,190.9,118.3,258.8c33.3,29.7,71.3,53.4,113,70.5
	c40.5,16.7,83.3,26.1,123.7,27.5c3.5,0.1,7,0.2,10.4,0.2c94.6,0,167.6-43.3,203.2-69.8l-69.5-93.9C585.8,589,537.3,618,475.9,618
	c-2.1,0-4.3,0-6.4-0.1c-55.9-1.8-116.8-27.3-162.8-68.4c-36-32.2-79.1-88.1-79.1-171.7c0-132.4,107.7-240.1,240.1-240.1
	c73.9,0,128.2,36.2,143.1,47.3l69.8-93.7c-28.4-21.2-106.1-70.4-213-70.4c-48,0-94.8,9.4-139,28.1c-42.5,17.9-80.7,43.7-113.4,76.5
	C182.4,158.3,156.7,196.4,138.7,238.9z"/>
</svg>
