<?xml version="1.0" encoding="utf-8"?>
<!-- Generator: Adobe Illustrator 24.1.0, SVG Export Plug-In . SVG Version: 6.00 Build 0)  -->
<svg version="1.1" id="Layer_1" xmlns="http://www.w3.org/2000/svg" xmlns:xlink="http://www.w3.org/1999/xlink" x="0px" y="0px"
	 viewBox="0 0 850.4 850.4" style="enable-background:new 0 0 850.4 850.4;" xml:space="preserve">
<style type="text/css">
	.st0{fill:#222222;}
	.st1{fill:#F0F0F0;}
</style>
<g>
	<g>
		<path class="st0" d="M468.7,840.1c-49,0-98.9-6.8-148.3-20.1l-25-6.8l23.5-11c41.8-19.6,86.2-30.8,132.2-33.2
			c6.1-0.3,12.3-0.5,18.4-0.5c51.4,0,103.4,11.4,150.5,32.9l23.6,10.8l-25,7C569.1,833.1,518.7,840.1,468.7,840.1z"/>
		<path class="st1" d="M469.6,778c67.4,0,119.3,19.6,146.6,32.1c-49.1,13.7-98.2,20.5-147.4,20.5c-48.5,0-97.1-6.6-145.8-19.8
			c27.2-12.7,71.7-29.3,128.7-32.4C457.7,778.2,463.7,778,469.6,778 M469.6,759v19V759c-6.3,0-12.6,0.2-18.9,0.5
			c-47.2,2.6-92.9,14-135.8,34.1l-46.9,22l50,13.5c50.2,13.6,100.9,20.5,150.8,20.5c50.8,0,102.1-7.1,152.5-21.2l50-14l-47.2-21.6
			C575.7,770.7,522.3,759,469.6,759L469.6,759z"/>
	</g>
	<g>
		<path class="st0" d="M476.1,744.4c-3.5,0-7.2-0.1-10.7-0.2c-41.7-1.4-85.6-11.2-127-28.2c-42.6-17.4-81.5-41.7-115.7-72.2
			c-78.3-69.8-121.4-164.2-121.4-266c0-49.5,9.7-97.5,28.9-142.7c18.5-43.7,44.9-82.8,78.5-116.4c33.6-33.7,72.8-60.1,116.4-78.5
			c45.1-19.1,93.1-28.9,142.5-28.9c109.9,0,189.6,50.6,218.7,72.3l7.6,5.7l-81.2,108.9l-7.6-5.7c-14.2-10.7-66.1-45.4-137.4-45.4
			c-127.1,0-230.6,103.4-230.6,230.6c0,80,41.3,133.7,76,164.7c44.4,39.6,103,64.3,156.8,66c2,0.1,4.1,0.1,6.1,0.1
			c58.9,0,105.6-28.1,128.2-44.9l7.6-5.7L692.6,667l-7.6,5.7C649.1,699.5,574.1,744.4,476.1,744.4z"/>
		<path class="st1" d="M467.6,20.9c106.9,0,184.6,49.2,213,70.4L610.8,185c-14.9-11.1-69.2-47.3-143.1-47.3
			c-132.4,0-240.1,107.7-240.1,240.1c0,83.6,43.1,139.5,79.1,171.7c46,41.1,106.9,66.6,162.8,68.4c2.1,0.1,4.3,0.1,6.4,0.1
			c61.4,0,109.9-29,133.8-46.8l69.5,93.9c-35.6,26.5-108.6,69.8-203.2,69.8c-3.4,0-6.9-0.1-10.4-0.2c-40.4-1.4-83.2-10.8-123.7-27.5
			c-41.7-17.1-79.7-40.8-113-70.5c-76.3-67.9-118.3-159.9-118.3-258.8c0-48.2,9.4-94.9,28.1-139c18-42.5,43.7-80.6,76.5-113.4
			c32.7-32.8,70.9-58.6,113.4-76.5C372.8,30.3,419.6,20.9,467.6,20.9 M467.6,1.9c-50.7,0-99.9,10-146.3,29.6
			c-44.8,18.9-85,46-119.4,80.6c-34.4,34.4-61.5,74.6-80.5,119.4c-19.7,46.3-29.6,95.6-29.6,146.4c0,104.5,44.3,201.5,124.6,273
			c35,31.2,74.8,56.1,118.4,73.9c42.4,17.4,87.5,27.4,130.2,28.9l0,0l0,0c3.6,0.1,7.3,0.2,11,0.2c100.7,0,177.7-46.1,214.6-73.6
			l15.2-11.3l-11.3-15.2L625,559.9l-11.3-15.3L598.6,556c-21.6,16.1-66.3,43-122.5,43c-1.9,0-3.9,0-5.8-0.1
			c-51.6-1.7-108-25.4-150.8-63.6c-20.4-18.3-36.9-38.9-49-61.4c-15.8-29.4-23.8-61.7-23.8-96.1c0-121.9,99.2-221.1,221.1-221.1
			c29.1,0,58.1,6,86.3,18c23.5,9.9,39.6,21.2,45.4,25.5l15.2,11.4l11.4-15.3l69.8-93.7l11.3-15.2L692,76.1
			C662.1,53.8,580.4,1.9,467.6,1.9L467.6,1.9z"/>
	</g>
</g>
</svg>
