<?xml version="1.0" encoding="utf-8"?>
<!-- Generator: Adobe Illustrator 23.0.4, SVG Export Plug-In . SVG Version: 6.00 Build 0)  -->
<svg version="1.1" id="Livello_1" xmlns="http://www.w3.org/2000/svg" xmlns:xlink="http://www.w3.org/1999/xlink" x="0px" y="0px"
	 viewBox="0 0 512 512" style="enable-background:new 0 0 512 512;" xml:space="preserve">
<style type="text/css">
	.st0{fill:#FFE9E1;}
	.st1{fill:#FFFFFF;}
	.st2{fill:#4D6FFF;}
	.st3{fill:#DEF8FF;}
	.st4{fill:#EBFFED;}
</style>
<path class="st0" d="M490.9,358H21.1C60.6,448.6,150.9,512,256,512S451.4,448.6,490.9,358z"/>
<path class="st1" d="M314.3,220"/>
<path class="st2" d="M373.1,481.1c-0.2-0.1-0.4-0.1-0.6-0.2c0,0-0.1,0-0.1,0c-1.9-0.6-3.8-1.2-5.6-1.8c-0.3-0.1-0.5-0.2-0.8-0.2
	c-1.8-0.6-3.7-1.1-5.6-1.7c-0.3-0.1-0.5-0.2-0.8-0.2c0,0-0.1,0-0.1,0c-1.8-0.5-3.7-1-5.5-1.5c-0.3-0.1-0.7-0.2-1-0.3
	c-1.8-0.5-3.7-1-5.5-1.4c-0.3-0.1-0.7-0.2-1-0.2c-1.8-0.5-3.7-0.9-5.5-1.3c-0.3-0.1-0.6-0.1-1-0.2c-1.9-0.4-3.7-0.8-5.6-1.2
	c-0.1,0-0.2,0-0.4-0.1c-0.2,0-0.4-0.1-0.5-0.1c-1.9-0.4-3.8-0.8-5.7-1.2c-0.2,0-0.5-0.1-0.7-0.1c-2-0.4-4-0.8-6-1.1
	c-0.1,0-0.2,0-0.3,0c-3.1-0.5-6.1-1-9.2-1.5c-0.2,0-0.5-0.1-0.7-0.1c-6.3-0.9-12.6-1.7-18.9-2.3c-0.2,0-0.3,0-0.5,0
	c-3.1-0.3-6.3-0.6-9.5-0.8c-0.3,0-0.6,0-0.9-0.1c-1.7-0.1-3.4-0.2-5.1-0.3c-0.6,0-1.2-0.1-1.8-0.1c-1.5-0.1-3.1-0.1-4.6-0.2
	c-0.5,0-0.9,0-1.4-0.1c-0.3,0-0.6,0-1,0c-1.4,0-2.9-0.1-4.3-0.1c-0.5,0-1.1,0-1.6,0c-0.3,0-0.7,0-1,0c-1.4,0-2.7,0-4.1,0
	c-0.9,0-1.8,0-2.7,0c0,0-0.1,0-0.1,0c-1.3,0-2.6,0-3.9,0c-0.4,0-0.8,0-1.2,0c-0.6,0-1.2,0-1.8,0c-1.3,0-2.5,0.1-3.8,0.1
	c-0.4,0-0.8,0-1.2,0c-0.6,0-1.3,0-1.9,0.1c-1.2,0.1-2.5,0.1-3.7,0.2c-0.7,0-1.5,0.1-2.2,0.1c-0.3,0-0.7,0-1,0.1
	c-1.2,0.1-2.4,0.2-3.6,0.2c-0.1,0-0.1,0-0.2,0c-1.1,0.1-2.1,0.2-3.2,0.2c-1.2,0.1-2.3,0.2-3.5,0.3c-0.2,0-0.3,0-0.5,0
	c-1,0.1-2,0.2-3,0.3c-1.1,0.1-2.3,0.2-3.4,0.4c-0.1,0-0.2,0-0.3,0c-1.1,0.1-2.2,0.3-3.3,0.4c-1.1,0.1-2.2,0.3-3.3,0.4
	c-1.2,0.2-2.5,0.3-3.7,0.5c-1.1,0.1-2.2,0.3-3.2,0.5c-0.1,0-0.1,0-0.2,0c-1.2,0.2-2.4,0.4-3.7,0.6c-1,0.2-2,0.3-3.1,0.5
	c-1.4,0.2-2.7,0.5-4.1,0.7c-1,0.2-1.9,0.3-2.9,0.5c-1.5,0.3-3.1,0.6-4.6,0.9c-0.8,0.2-1.6,0.3-2.4,0.5c-2.3,0.5-4.6,1-6.9,1.5
	c-2.3,0.5-4.5,1-6.7,1.6c-0.9,0.2-1.7,0.4-2.5,0.6c-1.3,0.3-2.7,0.7-4,1c-1.1,0.3-2.2,0.6-3.3,0.8c-1,0.3-1.9,0.5-2.9,0.8
	c0,0-0.1,0-0.1,0c-1.3,0.3-2.6,0.7-3.9,1.1c-0.6,0.2-1.1,0.3-1.7,0.5c-4.4,1.3-8.7,2.6-13,4c33,17.7,70.4,28.3,110.1,30
	c3.8,0.1,7.7,0.2,11.5,0.2c1.1,0,2.1,0,3.2,0c0.4,0,0.8,0,1.3,0c41.4-0.9,80.4-11.6,114.8-29.8C375.1,481.8,374.1,481.4,373.1,481.1
	z"/>
<path class="st3" d="M1,233H511C499.3,102.4,389.6,0,256,0S12.7,102.4,1,233z"/>
<path class="st4" d="M19,159C6.8,188.9,0,221.7,0,256c0,36.3,7.6,70.7,21.1,102h469.7c13.6-31.3,21.1-65.7,21.1-102
	c0-34.3-6.8-67.1-19-97H19z"/>
<g>
	<path class="st2" d="M265.6,435.8c48.5,0,89.4-15.9,119.2-43.4l-57.9-45c-16.2,11-36.9,17.2-61.2,17.2c-46.9,0-86.7-31.6-101-74.2
		h-59.8v46.4C135.4,397.5,197.5,435.8,265.6,435.8z"/>
	<path class="st2" d="M164.6,290.5c-7.5-22.3-7.5-46.5,0-68.8v-46.4h-59.7c-25.5,50.8-25.5,110.7,0,161.5L164.6,290.5z"/>
	<path class="st2" d="M265.6,147.3c25.7-0.4,50.4,9.3,69,26.9l51.4-51.4c-32.6-30.5-75.7-47.3-120.4-46.7
		c-68,0-130.2,38.3-160.7,99.1l59.7,46.4C178.8,179,218.6,147.3,265.6,147.3z"/>
</g>
</svg>
