<svg version="1" xmlns="http://www.w3.org/2000/svg" width="933.333" height="933.333" viewBox="0 0 700.000000 700.000000"><path d="M347.5 105c-80.8 5.1-154.2 50.1-195.5 119.9-17.5 29.5-29.1 64.8-32.9 99.3-1.4 12.5-1.4 39.1 0 51.6 11.8 107.7 91.2 194.2 197.4 215.1 17.9 3.5 31.1 4.4 54.7 3.8 24.3-.6 36.4-2.1 55.8-6.8 24.3-6 47.7-15.6 66.6-27.4 9.9-6.2 25.6-18 29.2-21.8l2.3-2.4-38.2-29.8c-21-16.3-38.7-29.9-39.3-30.1-.7-.3-4.8 1.6-9.1 4.1-27.7 15.8-67.5 22.1-100.5 16-49-9.1-90.7-43.5-110.1-91.2-18.4-45.1-12.9-97.3 14.4-138.4 10.7-16 27.2-32.5 42.7-42.5 41.2-26.6 93.5-30.7 136.8-10.8 10.1 4.6 18.3 9.7 27.6 17.2 7.7 6.2 7.8 6.3 10 4.5 1.1-1 16.8-16.6 34.8-34.7l32.7-32.9-4.6-4.1c-31.5-27.7-68.2-45.8-110.3-54.6-18-3.7-43.7-5.3-64.5-4zM319 633.6c-22.1 1.5-47.4 4.7-66.3 8.5-19.7 3.9-53.2 12.4-64.7 16.5-.9.4 2 2.3 7.5 5.1 34.1 17.3 71.9 28.5 114 33.9 17.3 2.3 61.4 2.6 77.5.6 42.6-5.2 78-15.2 113-31.9 10.7-5.1 13.2-6.6 11.8-7.4-3.4-1.9-33.7-10.1-51.3-13.9-18.9-4.1-45.1-8.1-64.5-10-11.4-1.1-66.3-2.1-77-1.4z"/></svg>