<svg version="1" xmlns="http://www.w3.org/2000/svg" width="2845.333" height="2845.333" viewBox="0 0 2134.000000 2134.000000"><path d="M1041.7.7c-.1.1-8.1.4-17.7.8-9.6.3-20 .8-23 1-3 .2-9.8.7-15 1-5.2.3-10.6.8-12 1-1.4.2-6.1.6-10.5 1-4.4.3-9.3.8-11 1-1.6.2-5.2.7-8 1-12.7 1.4-45.1 5.9-53.5 7.4-3 .6-7.5 1.3-10 1.6-2.4.4-4.7.8-5 1-.3.2-2.3.6-4.5.9-2.2.4-8.5 1.6-14 2.7s-11.1 2.2-12.5 2.5c-2.3.4-5.9 1.2-15.5 3.5-2.2.5-4.9 1.1-6 1.4-17.5 3.4-65.2 16.8-93 26.1-25.1 8.3-66.4 24-82.5 31.2-2.5 1.1-10.8 4.8-18.5 8.2-23.2 10.3-65.6 31.6-79.5 39.8-1.9 1.1-5.7 3.3-8.5 4.8-20.4 10.9-61.7 37.1-91.2 57.8-6.6 4.6-37 27.2-39 29-1.4 1.3-1.6 1.4-11.3 9.1-8.4 6.7-10.7 8.6-12.4 10-.6.6-3.6 3-6.6 5.5-3 2.5-5.7 4.7-6 5-.3.3-5.9 5.2-12.5 11-16.1 14.1-35.7 32.6-55.9 52.6-9.3 9.3-36.3 38.6-44.6 48.3-2.5 2.9-5 5.8-5.6 6.5-.5.6-4.6 5.4-9 10.7-7.3 8.9-9.5 11.5-18.2 22.3-1.7 2.3-3.7 4.7-4.2 5.4-15 18-53.5 73.7-70 101.2-7.5 12.4-19 32.1-19 32.5 0 .2-1.7 3.4-3.8 7.2-2.2 3.7-5.5 9.7-7.4 13.3-4.1 7.6-23.8 46.7-23.8 47.4 0 .2-2.2 5.2-5 11-2.7 5.8-5 10.8-5 11 0 .3-1.6 3.9-3.5 8-1.9 4.2-3.5 7.9-3.5 8.2 0 .3-1.2 3.1-2.6 6.2C65.9 691.4 43.6 759 30.6 811.5c-6.3 25.7-16 73.8-18 89.5-.2 1.9-1.1 8.2-2 14-.8 5.8-1.8 12.5-2.1 15-.3 2.5-.7 5.8-1 7.5-1 6.3-3.2 28.9-4 41-.4 4.9-.8 11.2-1 14-2.7 33.4-2.7 125.1 0 149.6.2 1.9.7 7.9 1.1 13.4.9 13.6 1.8 23.3 2.9 31.5.2 1.9.7 5.7 1 8.5.8 7.3 1.5 12.7 2 15.5.2 1.4.7 4.5 1 7 1 7.6 3.5 24.1 5 32 1.5 8.1 1.9 10.3 3 16.5.4 2.2 1.8 9.4 3.1 16 1.4 6.6 2.8 13.1 3 14.5 1.7 8.6 12.1 49.6 16.9 66 8.3 28.7 24.6 77.3 30.5 90.7 1.3 2.9 2.4 5.8 4.3 10.8 2.6 6.6 9.7 23.7 11.7 28 1 2.2 3.8 8.3 6.1 13.5 5.6 12.8 24.4 50.9 31.7 64.5 10.4 19.5 19.4 35 32 55.5 10.7 17.4 36.3 56.2 38.2 58 .3.3 2.3 3 4.5 6 33.7 47.2 69.2 88.8 113.5 133 16.7 16.7 24.6 24.2 42 40 13.5 12.3 47.5 40.5 58.5 48.5 2.2 1.6 4.2 3.1 4.5 3.4 1.7 1.9 10 8.1 10.8 8.1.6 0 1.2.3 1.4.7.4 1 6.7 5.9 13.3 10.3 2.8 1.9 5.2 3.6 5.5 3.9 2 2.3 53.7 36.2 64.8 42.6.9.5 4.4 2.6 7.7 4.6 26.1 15.9 74.3 41.1 104 54.4 8.3 3.7 17.3 7.7 20 8.9 4.4 2 35.7 14.5 53 21.2 24 9.2 76.5 25.1 111.4 33.8 50.2 12.6 115.8 23.3 165.1 27.1 4.1.3 9.5.7 12 1 27.6 2.8 127.8 2.8 156 0 1.9-.1 7.9-.6 13.3-1 5.4-.3 10.8-.8 12-1 1.2-.2 5.4-.6 9.2-1 3.9-.3 8.4-.8 10-1 1.7-.2 5.3-.7 8-1 2.8-.3 6.1-.7 7.5-1 1.4-.2 4.8-.7 7.5-1 40.5-4.8 102.8-17.9 151.7-32 80.7-23.2 159.7-56.7 232.8-98.7 12.3-7.2 24.1-14.1 29-17.3 1.9-1.2 9.8-6.2 17.5-11.1 14.4-9.1 21.3-13.7 38.8-26.1 5.6-4 11-7.8 12-8.5 24.5-17.3 62.9-48.6 92.7-75.6 12.6-11.5 57.4-56.3 68-68.1 4.7-5.2 9.2-10.1 10-11 2.6-2.9 8.3-9.5 13.5-15.6 2.8-3.2 5.9-6.9 7-8.1 1.1-1.2 2.7-3.1 3.5-4.1.8-1 5.1-6.3 9.5-11.8 41.7-51.7 81.4-111.8 112.5-170.6 9.7-18.3 29-57.9 29-59.5 0-.2 1.2-2.8 2.6-5.7 7-14.4 31.4-76.2 34.5-87.7.6-1.9 1.4-4.4 1.9-5.5 2.2-5 13.5-42.5 19.4-64 3.1-11.5 9.9-39.6 11-45.5.3-1.4.7-3.4 1-4.5 1.7-7.5 2.6-11.4 3.1-14.5.3-1.9 1-5.5 1.5-8s1.2-5.6 1.4-7c.4-2.2 1.4-8.4 3.1-17.5.3-1.7.8-4.8 1.1-7 .3-2.2.8-5.1 1-6.5.3-1.4 1.5-10.2 2.8-19.5 2.7-18.6 3.6-27.1 5.1-43.5.3-3.6.7-7.9 1-9.5.2-1.7.7-7.7 1-13.5.4-5.8.8-12.5 1-15 2.7-30.8 2.1-111.7-.9-144.5-.3-2.8-.8-8.6-1.1-13-.3-4.4-.7-9.8-1-12-.2-2.2-.7-6.7-1-10-.6-5.9-3-25.1-4-33-2.3-16.9-9.1-56.1-11.5-67-.5-2.2-2.1-9.4-3.5-16-9.4-43.5-27.8-105.7-42.2-143-8.3-21.5-9.8-25.3-11.8-30-1.3-2.8-4.1-9.3-6.3-14.6-2.2-5.2-5.2-12.2-6.7-15.5-1.5-3.2-3.1-6.8-3.5-7.9-1.8-4.3-27.1-55.4-30.8-62-2.1-3.9-5.4-9.9-7.4-13.5-5.1-9.3-17.6-30.9-20.3-35-3.4-5.3-16.9-26.8-18-28.8-.5-.9-1.2-1.9-1.5-2.2-.3-.3-2.1-3-4-6s-3.7-5.7-4-6c-.3-.3-.9-1.2-1.5-2.1-5.8-9.3-24.5-35.1-38.7-53.6-37.3-48.4-84.3-99.2-130.2-140.8-.6-.6-4.7-4.2-9.1-8-4.4-3.9-8.5-7.5-9.1-8-.6-.6-3.5-3-6.4-5.5-3-2.5-7-5.9-9-7.6-7.5-6.6-29.3-23.6-45-35.2-9.1-6.7-17-12.6-17.5-13-2.4-1.9-27.7-19.1-36.5-24.9-42.5-27.6-94.9-56.7-133.5-74-4.9-2.3-11.9-5.4-15.5-7.1-3.6-1.6-13.2-5.8-21.5-9.2-8.2-3.4-16.3-6.7-18-7.5-14.7-6.4-65.3-23.8-91.5-31.5-4.1-1.2-9.7-2.9-12.5-3.7-21.4-6.5-82.9-20.4-104.5-23.7-4.6-.8-8.7-1.5-13-2.3-1.9-.3-4.2-.7-5-.8-.8-.1-4-.5-7-1-3-.4-6.4-.9-7.5-1-3.6-.5-19-2.6-21.5-3-1.4-.2-5.4-.6-9-1-3.6-.4-7.6-.8-9-1-5.3-.8-32.7-3.1-46.5-4-21.6-1.3-90.9-2.7-91.8-1.8z"/></svg>