<?xml version="1.0" encoding="utf-8"?>
<!-- Generator: Adobe Illustrator 24.0.1, SVG Export Plug-In . SVG Version: 6.00 Build 0)  -->
<svg version="1.1" id="Layer_1" xmlns="http://www.w3.org/2000/svg" xmlns:xlink="http://www.w3.org/1999/xlink" x="0px" y="0px"
	 viewBox="0 0 600 451" style="enable-background:new 0 0 600 451;" xml:space="preserve">
<style type="text/css">
	.st0{fill:#396EA4;}
	.st1{fill:#FDFEFE;}
	.st2{fill:#1A536A;}
	.st3{fill-rule:evenodd;clip-rule:evenodd;fill:#15536B;}
</style>
<g>
	<path class="st0" d="M499.5,339.3c9-2.7,17.2-5.2,25.4-7.8c5.1,3.9,7.4,9.8,10.9,14.8c3.9,5.6,7.9,11,12.4,17.2
		c3.3-12.7,3.1-24.5,1.4-36.7c10.4-4.7,20.9-4.1,31.1,0.4c5.3,2.3,10.1,5.7,15.1,8.6c0,8.8,0,17.6,0,26.3
		c-9.7-6.4-19.6-12.4-32-11.8c-1.2,7.9-3.2,15.3-7,21.8c1.8,2,3.7,4.1,5.7,6.4c2.8-4.6,5.4-8.9,8-13.2c9.3,1.8,17.2,6.7,25.3,11.3
		c0,9.8,0,19.6,0,29.4c-6.6-0.7-13.3-1.9-19.1-5.1c-7.2-4-12.4-1.6-17.7,3.5c3.7,1.2,6.5,5.4,10.4,3.8c8.9-3.7,17.6-2.7,26.3-0.1
		c0,1.5,0,2.9,0,4.4c-3.7,0.3-7.4,0.5-11.1,0.8c0,0.3,0,0.5,0,0.8c3.7,0.5,7.4,1,11,1.5c0,1.4,0,2.7,0,4c-9.2,4-20-1.8-30.2,4.8
		c9.1,1,16.8,0.6,24.1-0.4c-9.6,5.2-21.9,0-33.2,7.3c3.6,0,5.5,0,7.5,0c-37.2,22.5-75.9,25-115.4,7.1c-13.8,11.8-29.4,13-45.7,12.3
		c-14.3-0.6-28.6-0.2-42.9-0.1c-4.9,0.1-9.5-0.9-14.2-2.2c-5.4-1.5-10.7-5.1-16.3-3.9c-15.6,3.4-31.1,4.3-46.4-1.2
		c-6.6-2.3-13.4-7.3-19.7-6.8c-16.7,1.3-32.3,9.1-49.1,10.8c-10.8,1-21.8,0.5-32.6,1.9c-16.5,2.2-33.1,2.5-49.4,0.3
		c-12-1.6-22.7-8.4-35-14.8c5.6,6.1,10.2,11,14.7,15.9c-4.9,0-9.9,0-14.8,0c-4.4,0-8.6,0.4-12.2-3.6c-4-4.5-8.8-8.3-13.4-12.1
		c-7.1-5.9-13.8-11.8-24.6-8.2c-5.7,1.9-12.1,1.5-18.1,2.1c0-0.2,0-0.3,0-0.5c7.5-1.9,15.1-3.8,22.7-5.7c-10-8.9-19.7,0-29.6-0.4
		c-1.5,6.8-4.5,12.7-8.1,18.3c-2.5,3.9-4.2,8.8-9.6,10.2c0-8.1,0-16.2,0-24.3c2.1-7.1,2.3-14.5,2.3-21.9c-0.9,0.1-1.6,0.2-2.3,0.3
		c0-0.3,0-0.7,0-1c0.7-0.4,1.5-0.7,2.3-1.1c-0.2-3-0.5-5.8-0.7-8.7c-0.6,0.1-1.1,0.3-1.6,0.4c0-5.6,0-11.3,0-16.9
		c8.7-8.7,14.5-19,17-31.4c8.8,2.4,16.3,6.9,23.6,11.9c5.4,3.7,10.7,7.6,16.1,11.5c8.8,7.4,16.4,16.3,26.7,22
		c13.6,8.2,28,14.3,43.5,17c-3.2-2.8-7.2-4.3-11.9-3.7c1.4-0.3,2.8-0.6,4.7-0.9c-8.3-5.5-17-9.2-25.9-12.4c11.7,0,23.4-0.1,35.1-0.1
		c6.1,3.2,12.2,6.4,18.4,0c2.8,0,5.7,0.1,8.5,0.1c-2.8,1.8-5.6,3.6-9.1,5.8c10.9,0.1,21.4,3,29.7-5.9c20,0,40,0,60,0
		c1.6,1.2,3.1,2.5,4.6,3.7c2-0.5,2.3-2,2.8-3.4c8.8-0.1,17.6-0.2,26.4-0.3c12.3,8.4,25.5,13.7,41.4,13.2c-8-4.6-15.3-8.9-22.7-13.1
		c13.3,0,26.6,0,39.9,0.1c-1.6,0.8-3.3,1.6-5.5,2.6c5.9,3,11.5,5.8,17.1,8.5c4.8-3.9,10-6.5,13.5-11.3c11.1,0,22.2,0.1,33.4,0.1
		c-1,0.3-2,0.8-3.1,0.8c-13.1-0.6-21.6,8.8-32.4,14.4c5,1.7,9.2,3.7,14.4,0.4c4.5-2.9,9.8-4.7,15.4-5.7c7.5-1.4,14.7-4.1,21.7-7.8
		c-1.8-0.8-3.2-1.4-4.6-2.1c7.1-0.2,9.3-7,14-10.4c0.7-0.5,1.4-0.9,2.1-1.3c1.4,1.2,2.7,2.5,4.3,3.9c3-2.7,5.8-5.3,8.6-8
		c-1.6-1.7-2.8-3-4.1-4.4c2.9-3.5,5.8-7,9.8-9.4c0.8,0.8,1.5,1.6,2.5,2.6c1.2-2.5,2.4-4.7,3.5-6.9c5.5-1.7,11-3.4,16.5-5.1
		c-2.6,7.7-7.7,13.8-12.7,20.1c3,4.3,7.5,1.1,10.9,2.5c7.2-8.6,12-18.5,17.2-27.9c24.5,6.5,41.7,23.6,59.6,40c2.4-3,4.5-5.6,6.9-8.6
		c-11.5-11.4-22.7-22.5-34-33.7 M156.1,431.5c-23.8-1.8-44.6-18-69.7-13.6C109.8,421.8,131.4,434.2,156.1,431.5z M486.9,425.7
		c0.9,0.2,4.4,0.9,7.8,1.9c3.4,0.9,6.8,2.1,10.2,3.2c-11.4-2.8-22.7-3.9-35.3-1.6c18.6,4.9,36.3,7.3,55.5,1.7
		c-7.8-1-13.5-5.4-20.5-5.2C497.9,425.9,491.1,425.7,486.9,425.7z M172,418.4c8.4,1.7,16.6,7.1,25.4,0.9c-0.8-0.1-1.4-0.2-2.8-0.5
		c8.1-0.5,13.4-5.4,19.7-8.3C198.2,402.8,186.5,417.7,172,418.4z M425.9,402.8c-7.4-6.6-21-7.1-32.3-0.6
		C404.8,402.3,415,413.5,425.9,402.8z M523.2,396.9c-9.5-4.6-18.8-8-29.1-9.4c4.4,3.2,8.4,6.2,12.7,9.3c2-0.4,4.2-0.8,8.7-1.8
		c-3.9,1.6-5.7,2.3-7.7,3.2c1.8,1.4,3.5,2.7,5.2,4.1C516.3,400.5,519.6,398.8,523.2,396.9z M221,432.1c-3.6,1.5-7,3.4-11.5,5.7
		c14.1-2.2,26.7-5.9,39.4-10.2c-1.4-0.8-2.5-1.5-3.5-2.1c-0.5-0.3-1.1-0.6-1.6-0.8 M408.8,428.1c-13.7-3.6-26.8-4.4-40.9,0.4
		C382.1,430.3,395.2,430.5,408.8,428.1z M21.3,385.2c15.3-0.1,27.9,4.8,39.8,12.5c0.5-1,0.9-2,1.4-3.1
		C49.9,387.4,37.8,379.6,21.3,385.2z M525.8,411.1c3.8-2,7.6-4.1,11.8-6.3c-3.7-2.2-6.8-4-9.6-5.6c-4.3,1.9-8.2,3.6-12.4,5.5
		C519.1,406.9,522.3,408.9,525.8,411.1z M184.9,425.1c-14.3-0.4-26.4-6.8-39.8-3C157.9,424.2,170,430.9,184.9,425.1z M229.5,401.2
		c-2.9-1.5-6.1-3.1-9.1-4.7c-3.3,2-6.4,3.9-9.6,5.9C217.3,403.9,223.7,408.8,229.5,401.2z M150.6,409.3c5.8-2.9,11.5-5.7,17.1-8.5
		c-8.9,2-17.8,2.4-27.8,1.3C144,404.8,147.2,406.9,150.6,409.3z M540.2,391.4c2.4,2,4.7,3.8,7.2,5.8c2.5-2.7,4.8-5.2,7.2-7.8
		c-2.2-1.7-4.2-3.3-6.5-5C545.6,386.6,543,388.9,540.2,391.4z M538.2,417.1c6.2,4.5,12.2,4.2,17.5-1.7c-2.3-1.2-4.8-2.6-7.4-4
		C544.9,413.3,541.4,415.2,538.2,417.1z M513.3,414.3c-6.5-3.6-12.9-9-21-4.4C498.6,413.7,505.2,418.1,513.3,414.3z M438.2,395.3
		c1-5.2,1.8-9.8,0.3-14.9c-4,2.8-7.1,5-10.5,7.4C431.4,390.3,434.6,392.6,438.2,395.3z M454.4,404.4c1.5-1.6,3-3.1,4.2-4.4
		c6.9-1,13.3,5.4,19.9,0.7c-5.2-1.5-10.6-3-16.1-4.6c-1.5,1.1-3.1,2.4-4.8,3.5c-1.6,1.2-3.3,2.3-5.2,3.6
		C453.1,403.7,453.6,403.9,454.4,404.4z M326.9,410.3c-3.9-3.6-9.7-4.2-18.9-2C313.7,413.8,320.1,413.5,326.9,410.3z M540.5,424.4
		c-6.4-1.9-12.8-5.4-19.4-0.6C527.4,425.7,533.8,430.4,540.5,424.4z M347.2,418.6c-6-3.4-11.7-3.5-17.5-0.1
		C335.6,420.8,341.4,424.2,347.2,418.6z M77,410.5c1.6-1.6,3.1-3.1,4.8-4.8c-3.6-2-6.7-3.7-10-5.5c-1,1.2-1.9,2.2-2.9,3.3
		C71.6,405.8,74.1,408,77,410.5z M201.1,393.2c-9.5,4.6-19.1,9.2-30.1,14.5C183.1,404.7,192.7,400.2,201.1,393.2z M23.2,415
		c-0.4,2.2-0.6,3.9-1,6c4.8-1.4,9.1-2.7,15.6-4.6C31.5,415.8,27.4,415.4,23.2,415z M445,412.6c-1.5-0.8-2.7-1.3-3.8-1.9
		c-3,1.5-5.8,3-9,4.7c2.1,0.8,3.8,1.5,5.5,2.1C440.1,416,442.4,414.4,445,412.6z"/>
	<path class="st1" d="M180.9,253"/>
	<path class="st1" d="M373.3,204.7l-0.1,0.1L373.3,204.7z"/>
	<path class="st2" d="M433.2,219.2c-0.1-0.2-0.2-0.4-0.7-1.3c0.7,0.8,0.8,0.9,0.9,1C433.4,219,433.3,219.1,433.2,219.2z"/>
	<path class="st2" d="M308.6,141.4c0.2,0.1,0.4,0.3,0.5,0.4c-0.1,0.1-0.2,0.2-0.3,0.4c-0.1-0.2-0.3-0.4-0.4-0.6
		C308.5,141.5,308.6,141.5,308.6,141.4z"/>
	<path class="st2" d="M308.4,141.6c0-0.1-0.1-0.2-0.3-0.8c0.3,0.4,0.4,0.5,0.5,0.6C308.6,141.5,308.5,141.5,308.4,141.6z"/>
	<path class="st2" d="M338.8,196.6c-0.1,0.1-0.2,0.1,0.7-0.4c-1.1,0.2-1,0.2-0.9,0.2C338.7,196.5,338.7,196.5,338.8,196.6z"/>
	<path class="st2" d="M372.8,145.5c0.1,0.1,0.2,0.1,1,0.7c-0.9-0.4-1-0.4-1.1-0.5C372.7,145.6,372.8,145.5,372.8,145.5z"/>
	<path class="st0" d="M31.5,432.1c14.6,3.1,27.5,10,40.1,18.5c-17.7,0-35,0-52.4,0C23.2,444.5,27.3,438.4,31.5,432.1z"/>
	<path class="st2" d="M327.7,263.2c-0.2,0-0.4,0.1-0.8,0.1c0.3-0.3,0.4-0.4,0.5-0.5C327.5,263,327.6,263.1,327.7,263.2z"/>
	<path class="st0" d="M513.3,395.5c0.2-0.1,0.3-0.1,0.5-0.2c0,0.1,0.1,0.2,0.1,0.2c-0.2,0.1-0.3,0.2-0.5,0.2
		C513.4,395.7,513.3,395.6,513.3,395.5z"/>
</g>
<path class="st3" d="M160.9,357.7v2.8l-10-3.1h-0.3v-0.3c0-1-0.5-1.5-1.3-2.1v-0.8l0.8,0.3l-0.8-0.5l0.3-2.8c1-0.5,1.5-1.3,1.5-2.1
	c0-0.8-0.5-1.5-1.3-2.1v-0.3C154.4,350.5,158.3,354.1,160.9,357.7L160.9,357.7z M283.1,5.4c-11.3-1.5-19.3-4.6-25.4,1
	c-6.2,5.4-2.8,9-0.8,14.9c2.1,6.2-8.2,4.9-12.6,2.6c-4.4-2.3-9.8-1.5-9.8,1.5c-0.3,4.4,4.1,6.4,3.1,10c-0.8,2.3-6.2-1.8-8.5-1.5
	c-3.8,0.3-3.8,3.3-5.1,5.9c-2.3,1.8-3.3,4.9-10.3,4.4c1.8,3.1,10,4.6,12.6-1.3c2.8-6.2,9.8-1,12.6-2.1c2.8-0.8,5.4-0.5,3.3-6.2
	c-2.1-5.4,5.4-1.5,13.1-3.3c7.4-2.1,5.1-7.4,6.9-10.8c1.5-3.1,11.3-6.9,20.3-2.3C282.9,12.6,283.1,5.4,283.1,5.4L283.1,5.4z
	 M155.5,21.3c-18,3.1-20,12.8-25.2,18c-5.4,5.1-7.2,1.8-14.9,2.3c-7.2,0.5-8.2,8.7-12.8,15.4c-4.4,5.9-7.7,10-15.7,5.4
	c6.4,9.8,14.1,2.1,18-4.4c4.1-6.7,9.2-8.2,19.8-7.2c9.8,1,4.1-5.9,11.8-10.8c5.9-3.8,13.3-4.6,18.5-5.1L155.5,21.3L155.5,21.3z
	 M272,166.7c1.3,0.8,2.3,1.5,3.6,2.6l-1,6.2c-23.1-7.7-47-15.4-71.4-23.1c6.2,34.4-0.8,76.2-20.3,121.4c-0.3-0.3-0.5-0.5-0.8-0.8
	l-1-5.4c0.3-0.3,0.5-0.8,0.5-1.3s-0.5-1.3-1-1.5l-1-5.4c0.5-0.3,0.8-0.8,0.8-1.3c0-0.8-0.5-1.5-1.3-1.5l-1-5.4c0.5-0.3,1-0.8,1-1.3
	c0-0.8-0.8-1.5-1.5-1.5l-1-5.6c0.5-0.3,0.8-0.5,0.8-1c0-0.8-0.5-1.3-1.3-1.5l-0.8-4.9c0.5-0.3,1-0.8,1-1.5c0-0.8-0.8-1.5-1.5-1.5
	l-1-4.9c0.5-0.3,0.8-0.8,0.8-1.3c0-0.8-0.5-1.3-1.3-1.5l-0.5-3.9c0.3-0.3,0.5-0.8,0.5-1.3c0-0.8-0.5-1.3-1-1.5l-1-5.1
	c0.3-0.3,0.3-0.5,0.3-1s-0.3-1-0.8-1.3l-0.8-4.1c0.3-0.3,0.3-0.5,0.3-0.8c0-0.5-0.3-1-0.5-1.3l-0.8-4.9c0.3-0.3,0.3-0.8,0.3-1
	c0-0.8-0.3-1.3-0.8-1.5l-1-4.6h0.5l2.6-13.9l-4.4-0.3l-0.3-75c1-19.5,1.5-39.5-0.3-59.8l-0.3-25.7l-3.6,0.5v26.4
	c-16.4,52.1-39.3,72.6-77,99.9c23.4,2.1,42.6,11.8,58.8,23.1l-2.6,12.6c-18-6.2-35.9-12.6-54.9-18.5c7.7,44.7-12.8,93.2-53.4,155
	c31.1-4.6,71.9,5.1,100.1,19.5c0,0.3-0.3,0.5-0.3,0.8c0,0.5,0.5,1.3,1,1.5l-0.8,6.2c-0.8,0.3-1.3,0.8-1.5,1.3l-30.5-13.6l-56-9.5
	l87.3,26.2l-0.5,3.9c-1,0.5-1.5,1.3-1.5,2.1c0,0.5,0,0.8,0.3,1.3L39.8,350l4.6,20l25.9,23.4h337.6l35.4-35.7l50.3-16.9l29.5,2.1
	l-18.7-5.6l63.1-21l-6.7-1l-72.6,20.8l-23.9-0.8l15.4,3.1l-37,10.5l-26.7,3.6l-0.3-0.5c0.8-0.5,1-1,1-1.5s-0.8-1.3-1.5-1.5l-1.5-5.9
	c0.8-0.3,1-0.8,1-1.3c0-0.8-0.5-1.5-1.5-1.8l-1.3-4.4c0.5-0.3,1-0.8,1-1.3s-0.8-1.3-1.5-1.5l-2.6-10.8c18-1,31.3,0.5,36.7,6.2
	c17.2-21.8-1.8-48.3-12.6-62.6c-10.5-1.3-24.1-2.8-38.8-4.1l-3.6-15.9c23.1,0.5,40,5.4,45.7,14.1c12.8-19-6.9-50.6-14.1-60.3
	c-10.5-2.1-22.1-4.6-34.1-6.9l1.3-7.2l-4.3-0.9v-10.5c17.5,1.3,30,7.4,35.4,18.2c2.3-12.1,0.8-21.6-2.3-29.8l3.6,4.1l45.2,44.9
	c11.8,11.8,20,30,17.7,48.3L434,201.9c19.5,34.9,53.1,78.5,43.4,110.9c17.5-11.6,38-4.9,52.9-0.8l-29.6-33.6
	c26.4,1,42.4,8.5,61.6,18L416.5,158.7c-2.8-6.4-6.7-12.6-10.8-19c-2.8-1.5-10.8-3.1-20.8-5.1l-0.3-18.7c10.8,0.8,18.5,4.6,23.6,14.6
	c4.1-23.6,0.3-29.8-9.5-45.2c-4.4-2.3-9.2-4.4-14.1-5.9L384.3,44l-3.6,0.5l-0.3,33.6c-8-2.3-16.9-4.4-27-6.9
	c8.2,11,10,23.1,2.3,37.2c-19-19.8-37.2-42.6-60.6-68.8c12.8,19.8,26.4,50.3,21.3,57.8c9,3.6,21.6,8.2,35.9,15.9
	c-1.5,2.3-3.3,4.6-5.4,6.9c4.9-1,9.2-1.8,13.6-2.3c5.1,2.8,10.5,6.4,15.9,10c-4.1-3.3-8-6.9-11.8-10.8c5.6-0.8,11-1.3,15.7-1.3v18
	c-11.3-2.1-24.9-4.6-38-7.4c8.2,12.8,9.8,24.9,4.4,37.2c-13.6-13.6-27.5-29.3-44.2-45.9c12.1,17.5,16.7,45.9,11.8,54.4
	c5.4,1.3,14.1,2.8,23.9,5.1c-1,1.3-2.1,2.6-3.1,3.6c2.6-0.8,5.1-1.5,8-2.3c9.5,2.6,20.3,5.9,30,10.8c-14.4-2.3-29-4.1-42.9-4.4
	c5.4,8.7,8.2,20,7.7,31.8c-14.1-16.2-28.5-33.6-45.9-51.6L291.2,0l-3.6,0.8v19.6c-16.4,63.1-38.5,90.6-77.5,121.9
	c23.6,2.3,43.1,11.6,59.6,22.8l-1.5,7.4l2.3,0.5L272,166.7L272,166.7z M145.5,168.8c1,0.8,2.1,1.5,3.1,2.1l-1.8,11.6l-3.6-1.3
	L145.5,168.8L145.5,168.8z M150.6,172.6c2.3,1.5,4.6,3.3,6.7,5.1l1.5,6.2l-1.5,2.1c-2.8-1-5.4-2.1-8.2-2.8L150.6,172.6L150.6,172.6z
	 M277.7,170.8c2.6,1.8,4.9,3.9,7.2,5.9l0.5,2.3c-2.8-1-5.6-1.8-8.5-2.8L277.7,170.8L277.7,170.8z M166.5,196.7
	c-0.3,0-0.3,0.3-0.5,0.3v-3.3L166.5,196.7L166.5,196.7z M166,199.3c0.3,0.3,0.8,0.5,1,0.5l0.8,4.1c-0.8,0.3-1.3,0.8-1.3,1.5
	c0,1,0.8,1.8,1.8,1.8l0,0l0.8,2.8c-0.8,0.3-1.3,1-1.3,1.5c0,1,0.8,1.8,1.8,1.8l0.8,4.4c-0.5,0.5-0.8,0.8-0.8,1.5
	c0,0.8,0.5,1.3,1.3,1.5l0.8,3.9c-0.5,0.3-0.8,0.8-0.8,1.3c0,0.8,0.5,1.3,1.3,1.5l0.8,5.1c-0.3,0.3-0.5,0.8-0.5,1
	c0,0.8,0.5,1.3,1,1.5l0.8,4.9c-0.5,0.5-0.8,0.8-0.8,1.5c0,0.5,0.5,1.3,1.3,1.5l1,5.4c-0.3,0.3-0.5,0.8-0.5,1.3s0.5,1,1,1.5l1,5.6
	c-0.3,0.3-0.5,0.5-0.5,1s0.3,1.3,1,1.5l0.8,5.4c-0.3,0.3-0.5,0.8-0.5,1.3c0,0.8,0.5,1.3,1,1.5l1,5.6c-0.3,0.5-0.5,1-0.5,1.5
	c0,1,0.5,1.5,1.3,2.1v1c-0.8,2.1-1.5,3.9-2.6,5.9c-0.3-0.5-0.5-0.8-1-0.8l-0.8-5.9c0.5-0.3,0.8-1,0.8-1.8c0-1-0.5-1.8-1.5-2.1
	l-0.8-5.4c0.5-0.3,1-0.8,1-1.3c0-0.8-0.8-1.5-1.5-1.8l-0.8-5.1c0.5-0.3,1-0.8,1-1.3c0-1-0.8-1.5-1.5-1.8l-0.8-5.1
	c0.5-0.3,0.8-0.8,0.8-1.5c0-0.8-0.5-1.3-1.3-1.5l-1-5.6c0.5-0.3,0.5-0.5,0.5-1s-0.3-1-0.8-1.3l-0.8-5.1c0.3-0.3,0.5-0.8,0.5-1.3
	c0-0.8-0.3-1.3-1-1.5l-0.8-4.9c0.8-0.3,1-1,1-1.5c0-1-0.5-1.5-1.5-1.8l-0.5-3.9c0.3-0.3,0.8-0.8,0.8-1.3c0-0.8-0.5-1.3-1.3-1.5v-0.3
	l-1-1.5v-3.1c0.3-0.3,0.5-0.5,0.5-1c0-0.3-0.3-0.5-0.5-0.8v-4.4c0.3-0.3,0.5-0.8,0.5-1c0-0.3-0.3-0.8-0.5-1V199.3L166,199.3z
	 M166.5,225c-0.3,0.3-0.3,0.3-0.3,0.5v-3.1L166.5,225L166.5,225z M166.2,227c0,0.3,0.3,0.5,0.8,0.5l0.8,5.1c-0.8,0.3-1,0.8-1,1.5
	c0,0.8,0.5,1.5,1.5,1.5l0.5,4.6c-0.5,0.3-1,0.8-1,1.5c0,1,0.8,1.5,1.5,1.8l0.8,5.1c-0.3,0.3-0.5,0.8-0.5,1.3c0,0.8,0.3,1.3,1,1.5
	l0.8,5.6c-0.3,0.3-0.5,0.8-0.5,1.3s0.5,1,1,1.3l0.8,5.6c-0.3,0.5-0.5,0.8-0.5,1.3s0.5,1,1,1.3l0.8,6.2c-0.3,0.3-0.5,0.8-0.5,1.3
	c0,0.8,0.5,1.5,1,1.8l1,5.9c-0.5,0.5-1,1-1,1.8c0,1,0.8,1.8,1.5,2.1l0.3,1.3c-1,2.1-1.8,3.8-2.8,5.6c-0.3-0.3-0.5-0.5-0.8-0.8
	l-1-6.7c0.3-0.3,0.5-0.8,0.5-1.3c0-0.8-0.3-1.3-1-1.8l-0.8-5.9c0.5-0.5,1-1,1-1.8c0-1-0.8-1.8-1.5-2.1l-0.5-5.4
	c0.5-0.3,0.8-0.8,0.8-1.3c0-0.8-0.5-1.5-1.3-1.8l-0.8-5.1c0.5-0.3,0.8-0.8,0.8-1.5c0-0.5-0.5-1.3-1-1.5l-0.9-5.4
	c0.3-0.3,0.3-0.5,0.3-1s-0.3-1-0.8-1.3l-0.3-2.8V227L166.2,227z M167,265.8c-0.3,0.3-0.5,0.8-0.5,1.3s0.3,1,0.8,1.3l0.8,5.9
	c-0.3,0.5-0.5,1-0.5,1.5c0,0.8,0.3,1.5,1,1.8l0.8,5.9c-0.8,0.3-1.3,1-1.3,1.8c0,1,0.8,2.1,1.8,2.1l0.8,5.9c-0.8,0.3-1.5,1-1.5,1.8
	c0,1,1,1.8,2.1,2.1v1.3c-1.5,2.8-3.1,5.9-4.6,8.7l-0.3-46.7L167,265.8L167,265.8z M174.2,334.3c0.3,1,1,1.5,1.8,1.8l0.5,4.9
	c-0.5,0.5-1,1.3-1,1.8c0,1,0.8,1.8,1.5,2.1l0.8,4.9c-0.8,0.5-1,1-1,1.8c0,1,0.5,1.8,1.5,2.1l0.5,4.1c-0.8,0.5-1.3,1.3-1.3,2.1
	c0,1,0.8,1.8,1.8,2.1l0.5,4.1l-13.1-3.9l-0.3-27.5C169.1,334.6,171.6,334.6,174.2,334.3L174.2,334.3z M178.3,335.9
	c0.5-0.3,0.8-0.8,1-1.3c1,0,2.3,0,3.6,0c0,0.3,0.3,0.3,0.3,0.5l1,5.9l-5.4-1L178.3,335.9L178.3,335.9z M185.8,335.6
	c0.5-0.3,1-0.5,1.3-0.8c1,0,2.3,0,3.3,0c0.3,0.3,0.5,0.3,0.8,0.5l1,5.4c-0.5,0.5-1,1-1,1.5l-2.8-0.5c-0.5-0.5-1-1-1.8-1L185.8,335.6
	L185.8,335.6z M196,343.3c0-0.3,0.3-0.5,0.3-0.8c0-1-0.8-1.8-1.8-2.1l-1-5.4c23.4,1.8,46.2,6.9,66.2,13.3l-0.3,0.3
	c-1,0.3-1.8,1-1.8,2.1c0,0.8,0.5,1.5,1.3,1.8l-0.5,3.1L196,343.3L196,343.3z M184,341.8c-0.3,0.3-0.3,0.8-0.3,1c0,0.8,0.3,1.5,1,1.8
	l1,5.9c-0.3,0.5-0.3,0.8-0.3,1c0,0.5,0,1,0.5,1.5l0.8,4.9c-0.3,0.3-0.5,0.8-0.5,1.3c0,0.8,0.3,1.3,1,1.8l0.8,5.4h-5.6l-0.8-5.1
	c0.5-0.3,0.8-1,0.8-1.5c0-0.8-0.5-1.5-1.3-2.1l-0.5-4.4c0.8-0.3,1-1,1-1.8s-0.5-1.8-1.5-2.1l-0.8-4.9c0.8-0.3,1.3-1,1.3-1.8
	s-0.8-1.5-1.8-2.1v-0.5L184,341.8L184,341.8z M187,344.8c0.8-0.3,1.5-0.8,1.5-1.5l4.1,1.3l1,4.6c-0.8,0.3-1,1-1,1.5
	c0,1,0.5,1.8,1.5,2.1l0.8,4.6c-0.3,0.5-0.5,1-0.5,1.3c0,0.8,0.5,1.5,1,1.8l1,5.9h-5.9l-1-5.1c1-0.5,1.5-1.3,1.5-2.1
	c0-1-0.8-2.1-2.1-2.3l-0.5-3.3c1,0,1.8-1,1.8-2.1c0-1-1-2.1-2.6-2.1l0,0L187,344.8L187,344.8z M196.5,352.5c0.8-0.3,1-1,1-1.8
	s-0.8-1.8-1.8-2.1l-0.5-3.3l20,6.4l43.1,4.6l-0.3,1c-1.3,0-2.3,1-2.3,2.1c0,0.8,0.8,1.8,1.8,2.1l-0.8,4.9h-57.8l-1-5.6
	c0.8-0.3,1.5-1,1.5-2.1c0-1-1-2.1-2.3-2.1L196.5,352.5L196.5,352.5z M292.5,191.3h-0.3V191L292.5,191.3L292.5,191.3z M292.3,193.4
	c0.3,0.3,0.5,0.3,0.5,0.5l0.8,4.1c-0.3,0.3-0.3,0.5-0.3,1s0.3,1,0.8,1.3l0.8,4.6c-0.3,0.3-0.5,0.8-0.5,1.3c0,0.8,0.5,1.3,1,1.5
	l0.8,3.6c-0.3,0.3-0.5,0.5-0.5,1c0,0.8,0.3,1.3,1,1.5l0.8,5.1c0,0.3,0,0.5,0,1c0,0.3,0,0.8,0.5,1l0.8,4.9c0,0.3-0.3,0.5-0.3,0.8
	c0,0.5,0.3,0.8,0.8,1.3l1,6.4l0,0c0,0.3,0.3,0.5,0.3,0.8l1,6.2c0,0.3-0.3,0.5-0.3,0.8c0,0.5,0.3,1,0.8,1.3l1,6.4c0,0.3,0,0.5,0,0.8
	s0.3,0.8,0.5,1l1,6.7c0,0,0,0.3,0,0.5c0,0.3,0,0.8,0.3,1l1.3,6.2c-0.3,0.3-0.3,0.8-0.3,1c0,0.5,0.3,1,0.8,1.3l1,6.4
	c-0.3,0.3-0.3,0.5-0.3,1c0,0.8,0.3,1.3,0.8,1.8l1.3,6.4c-0.5,0.3-0.5,0.8-0.5,1.3c0,0.8,0.3,1.5,1,1.8l1.3,6.9
	c-0.3,0.3-0.3,0.5-0.3,1c0,0.8,0.3,1.3,0.8,1.5l3.1,17.2c-0.3,0.3-0.3,0.8-0.3,1c0,0.8,0.3,1.3,0.8,1.5l1.3,7.4
	c-0.3,0.3-0.5,0.8-0.5,1.3s0,1,0.5,1.5c-1,1.8-2.1,3.8-3.1,5.6c-0.3-0.3-0.5-0.3-0.8-0.3l-0.8-4.2c0.8-0.3,1.3-1,1.3-1.8
	c0-1-0.8-1.8-1.8-2.1l-1-6.4c0.8-0.3,1.3-1,1.3-1.8c0-1-0.8-1.8-1.8-2.1l-1-6.2c1-0.3,1.5-1,1.5-2.1c0-1-1-2.1-2.3-2.1l-0.8-5.6
	c0.5-0.3,1-1,1-1.8c0-1-0.8-1.8-1.8-2.1l-1-6.2c0.5-0.3,0.8-1,0.8-1.5c0-0.8-0.5-1.5-1.3-2.1l-0.8-5.6c0.5-0.3,0.8-1,0.8-1.8
	c0-1-0.5-1.8-1.5-2.1l-0.8-5.4c0.5-0.3,1-0.8,1-1.3c0-1-0.8-1.5-1.5-1.8l-0.8-5.1c0.5-0.3,1-0.8,1-1.5c0-0.8-0.8-1.5-1.5-1.5
	l-0.8-5.1c0.5-0.3,0.8-1,0.8-1.5c0-0.8-0.5-1.3-1.3-1.5l-1-5.6c0.3-0.3,0.5-0.5,0.5-1s-0.3-1-0.8-1.5l-0.8-4.9
	c0.3-0.3,0.5-0.8,0.5-1.3c0-0.8-0.5-1.3-1-1.5l-0.8-4.9c0.5-0.3,1-1,1-1.8s-0.8-1.5-1.5-1.5l-0.8-3.8c0.5-0.3,1-0.8,1-1.3
	c0-0.8-0.8-1.5-1.5-1.8l-0.8-4.6c0.3-0.3,0.5-0.5,0.5-1s-0.3-1-0.8-1.3l-0.5-3.3c0.8-0.3,1.3-0.8,1.3-1.5c0-1-0.8-1.5-1.8-1.8v-0.5
	L292.3,193.4L292.3,193.4z M294.6,193.9c0.8-0.3,1.3-0.8,1.3-1.5c0-0.8-1-1.5-2.1-1.5l-0.5-2.8h1.5l2.3-13.3
	c11.6,22.6,19.8,54.7,14.9,63.1c5.4,1.3,12.1,2.3,19.8,3.9c-2.3,4.4-4.9,8.2-8.2,11.8c10.8-2.6,21.6-4.6,31.6-6.2
	c4.9,1.5,9.8,3.3,14.6,5.6l-1.3,5.9c-18-1-35.9-1.8-50.8-1c9.8,13.3,9.5,42.1,1,64.2l-1-5.1c1-0.3,1.8-1,1.8-2.1
	c0-1-1.3-2.1-2.6-2.1l0,0l-1.3-6.2c1.3,0,2.6-0.8,2.6-2.1c0-1-1.3-2.1-2.6-2.1c-0.3,0-0.5,0-0.8,0l-1-5.4c1-0.3,1.5-1,1.5-2.1
	c0-1-1-2.1-2.3-2.1l-1-5.9c0.5-0.3,1-1,1-1.8c0-1-0.8-1.8-1.8-2.1l-1-5.6c0.5-0.3,1-1,1-1.8c0-1-0.8-2.1-1.8-2.1l-1-5.1
	c0.8-0.3,1-1,1-1.5c0-0.8-0.5-1.5-1.5-1.5l-1-5.1c0.8-0.3,1.3-0.8,1.3-1.5c0-1-0.8-1.8-1.8-1.8l0,0l-1-4.9c0.8-0.3,1.5-0.8,1.5-1.5
	c0-1-1-1.8-2.1-1.8l0,0l-1-5.1c0.8-0.3,1.3-0.8,1.3-1.5c0-0.8-0.8-1.5-1.8-1.5l-0.8-4.4c0.8-0.3,1.5-1,1.5-1.8s-0.8-1.5-1.8-1.5
	c-0.3,0-0.3,0-0.5,0l-0.8-4.6c0.8-0.3,1.3-0.8,1.3-1.5c0-1-0.8-1.8-1.8-1.8l0,0l-0.8-3.3c0.8-0.3,1.3-1,1.3-1.5c0-1-0.8-1.8-1.8-1.8
	l0,0l-1-4.4c0.8-0.3,1-0.8,1-1.5c0-0.8-0.5-1.5-1.5-1.5l-0.5-3.3c0.5-0.3,0.8-0.8,0.8-1.3c0-0.8-0.5-1.5-1.3-1.8l-0.8-3.9
	c0.5-0.3,1-1,1-1.5c0-1-0.8-1.8-1.8-1.8l0,0L294.6,193.9L294.6,193.9z M293.1,218.6c-0.3,0.3-0.5,0.5-0.5,0.8v-4.6L293.1,218.6
	L293.1,218.6z M292.5,220.6c0.3,0.5,0.5,0.8,1,1l0.5,4.1c-0.3,0.3-0.3,0.8-0.3,1c0,0.8,0.3,1.3,0.8,1.5l0.8,5.1
	c-0.5,0.3-0.8,0.8-0.8,1.5c0,0.8,0.5,1.3,1.3,1.5l0.8,4.6c-0.8,0.3-1,0.8-1,1.5c0,0.8,0.5,1.5,1.5,1.5l0.8,5.4
	c-0.5,0.5-0.5,0.8-0.5,1.3c0,0.8,0.3,1.3,0.8,1.5l1,5.6c-0.3,0.3-0.5,0.8-0.5,1c0,0.8,0.5,1,0.8,1.5l1,5.6c-0.3,0.5-0.5,0.8-0.5,1.3
	s0.3,1,0.8,1.3l1,6.2c-0.3,0.3-0.5,0.8-0.5,1.3c0,0.8,0.5,1.3,1,1.8l1,5.9c-0.8,0.5-1,1-1,1.8c0,1,0.5,1.8,1.5,2.1l0.8,6.2
	c-0.3,0.3-0.5,1-0.5,1.5c0,0.8,0.5,1.5,1.3,1.8l0.8,6.4c-0.3,0.5-0.3,0.8-0.3,1.3c0,0.8,0.3,1.3,0.8,1.5l1,7.2
	c-0.3,0.5-0.8,1-0.8,1.5c0,0.8,0.5,1.5,1.3,1.8l1.3,6.9c-0.5,0.3-1,1-1,1.5c0,0.8,0.5,1.5,1.5,1.8l0.8,5.6c-0.3,0.3-0.5,0.8-0.5,1.3
	s0.5,1,1,1.5l0,0c-1.3,2.1-2.8,3.6-4.4,5.1c1.8-0.3,3.3-0.8,4.9-1.3l0.5,2.6c-0.5,0.5-0.5,0.8-0.5,1.3c0,0.8,0.3,1.3,0.8,1.8l1,5.9
	c-0.3,0.3-0.5,0.5-0.5,1s0.5,1.3,1,1.5l0.5,4.6c-0.3,0.3-0.5,0.8-0.5,1.5c0,0.8,0.5,1.3,1,1.8l0.5,3.3l-5.6,0.8l-0.5-3.9
	c0.5-0.5,0.8-1,0.8-1.5c0-1-0.5-1.5-1.3-2.1l-0.5-4.4c0.8-0.3,1-1,1-1.8c0-1-0.5-1.8-1.5-2.1l-0.8-4.9c0.8-0.3,1.3-1,1.3-1.8
	s-0.8-1.8-1.8-2.1l-0.5-4.9c0.5-0.5,1-1,1-1.8c0-1-0.8-1.8-1.5-2.1l-0.8-5.1c0.5-0.5,1-1,1-1.8s-0.8-1.5-1.5-1.8l-0.8-6.9
	c0.5-0.3,0.8-0.8,0.8-1.5s-0.5-1.5-1.3-1.8l-1-6.7c0.8-0.5,1-1,1-1.8s-0.5-1.5-1.5-1.8l-0.8-6.2c0.5-0.5,0.8-1,0.8-1.5
	c0-0.8-0.5-1.5-1.3-1.8l-0.8-6.7c0.3-0.3,0.5-0.8,0.5-1.3c0-0.8-0.3-1.3-1-1.8l-0.8-5.9c0.5-0.5,1-1,1-1.8c0-1-0.8-1.8-1.5-2.1
	l-0.8-5.4c0.8-0.3,1-0.8,1-1.5c0-0.8-0.5-1.3-1.3-1.5l-0.8-5.1c0.5-0.5,0.8-1,0.8-1.5c0-0.8-0.5-1.3-1-1.5l-0.8-5.6
	c0.3-0.3,0.3-0.5,0.3-1s-0.3-1-0.8-1.3l-1.8-14.1L292.5,220.6L292.5,220.6z M292.5,249.6L292.5,249.6v-0.2V249.6L292.5,249.6z
	 M292.5,252.7c0.3,0,0.3,0,0.5,0l0.8,5.4c-0.5,0.3-0.8,0.8-0.8,1.3c0,0.8,0.5,1.3,1,1.5l0.8,5.6c-0.3,0.3-0.5,0.8-0.5,1
	c0,0.8,0.3,1.3,0.8,1.5l0.8,5.9c-0.3,0.3-0.5,0.8-0.5,1.5c0,0.8,0.3,1.5,1,1.8l0.8,5.6c-0.8,0.5-1.3,1.3-1.3,2.1
	c0,1,0.8,1.8,1.8,2.1l0.8,5.9c-0.8,0.3-1.5,1-1.5,1.8c0,1,0.8,1.8,1.8,2.1l0.8,5.6c-0.8,0.3-1.3,1-1.3,1.8c0,1,0.8,1.8,1.8,2.1
	l0.8,6.4c-0.8,0.3-1.3,1-1.3,1.8c0,1,0.8,1.8,1.8,2.1l1,6.4c-0.8,0.5-1.3,1-1.3,1.8c0,1,0.8,1.8,1.5,2.1l0.8,5.1
	c-0.8,0.3-1.3,1-1.3,1.8c0,1,0.8,1.8,1.8,2.1l0.5,4.9c-0.5,0.5-1,1-1,1.8c0,1,0.8,1.8,1.5,2.1l0.8,4.9c-0.8,0.5-1,1-1,1.8
	c0,1,0.5,1.5,1.5,2.1l0.5,4.1c-0.8,0.5-1.3,1-1.3,2.1c0,0.8,0.8,1.8,1.8,2.1l0.5,3.9h-0.8H293v-5.1l0.5,0.3
	c-0.5-25.4-0.5-49.3-0.8-71.4L292.5,252.7L292.5,252.7z M274.6,353.6L274.6,353.6l-0.5,5.1c-0.5,0.3-1,0.8-1,1.5
	c0,0.8,0.3,1.3,0.8,1.5l-0.5,4.6h-6.2l0.5-4.1c1.3,0,2.1-1,2.1-2.1c0-0.8-0.5-1.5-1.5-2.1l0.5-4.6c0.8-0.3,1.5-0.8,1.5-1.5
	C271.7,352.5,273,353.1,274.6,353.6L274.6,353.6z M265.3,350.5c0,0.3-0.3,0.5-0.3,0.8c0,0.8,0.5,1.5,1.3,2.1l-0.5,3.9l-5.1-1
	l0.5-3.1c1-0.3,1.5-1,1.5-1.8s-0.5-1.3-1-1.8v-0.3C263,349.5,264.3,350,265.3,350.5L265.3,350.5z M276.1,362.8c1-0.3,2.1-1,2.1-2.1
	c0-0.8-0.8-1.8-1.5-2.1l0.3-4.4c3.6,1.5,7.2,2.8,10.3,4.4v7.7H276L276.1,362.8L276.1,362.8z M265.8,358.2c-0.8,0.3-1.3,0.8-1.3,1.5
	c0,0.8,0.3,1.3,0.8,1.5l-0.8,5.1h-5.4l0.8-4.9c0.8-0.3,1-0.8,1-1.5c0-0.5-0.3-1-0.5-1.5l0.3-1.8l5.1,0.5V358.2L265.8,358.2z
	 M380.3,184.2l-4.1-0.3l1.3,6.2l-1.8-0.5c-5.6-4.4-11.3-9.2-16.9-14.4c7.7-1.3,15.1-1.8,21.6-1.5v10.5H380.3z M296.6,174.1l-4.4-0.5
	v-7.4C293.8,168.5,295.4,171.3,296.6,174.1L296.6,174.1z M158.8,183.9l0.5,2.6l-1-0.3L158.8,183.9L158.8,183.9z M135.7,338.9
	c0.5-0.3,0.8-0.3,1-0.5c1.3,0.8,2.6,1.3,3.9,2.1l-0.8,5.6c-0.8,0.3-1.3,1-1.3,1.8s0.5,1.3,1,1.8l0,0l-4.1-1.8
	c0.3-0.5,0.5-0.8,0.5-1.3c0-0.8-0.5-1.3-1-1.8L135.7,338.9L135.7,338.9z M141.9,350.2c1-0.3,1.8-1.3,1.8-2.3c0-0.8-0.5-1.5-1.3-1.8
	l0.5-4.1c1.5,1,3.3,2.1,4.9,3.1l-0.3,2.1c-0.8,0.5-1.3,1-1.3,2.1c0,0.8,0.3,1.3,1,1.8l-0.3,2.1l-5.4-2.3L141.9,350.2L141.9,350.2z
	 M146.7,355.1c-0.8,0.5-1,1.3-1,2.1l-3.6-0.3c0-0.3,0.3-0.5,0.3-0.8c0-0.8-0.5-1.5-1-1.8l0.3-2.3l5.4,1.5L146.7,355.1L146.7,355.1z
	 M138.8,354.1c-0.8,0.3-1.5,1-1.5,2.1v0.3h-3.1c0.3-0.5,0.5-1,0.5-1.5c0-0.8-0.5-1.3-1-1.8l0.5-3.3l5.1,1.5L138.8,354.1L138.8,354.1
	z M320,341.5c-0.5,0.5-1,1-1,1.8s0.8,1.8,1.5,2.1l1,4.4c-0.8,0.5-1,1-1,1.8c0,1,0.8,1.8,1.5,2.1l1,4.6c-0.5,0.3-0.8,0.8-0.8,1.3
	c0,0.8,0.5,1.5,1.3,1.8l0.5,2.8l-5.9,0.8l-0.5-3.1c0.8-0.3,1.3-1,1.3-1.8c0-1-0.8-2.1-2.1-2.3l-0.5-3.3c1-0.3,1.8-1,1.8-2.1
	c0-1.3-1-2.1-2.3-2.1l-0.8-4.6c1-0.3,1.5-1,1.5-2.1c0-1-1-2.1-2.3-2.1l-0.3-2.3c1.5-0.5,3.3-1,5.1-1.5L320,341.5L320,341.5z
	 M322.8,345.1c0.8-0.5,1.3-1,1.3-1.8c0-1-0.8-1.8-1.8-2.1l-0.8-4.1c11-2.8,22.1-5.6,32.9-7.7l-0.3,1.3c-0.8,0.3-1.5,0.8-1.5,1.5
	c0,0.5,0.5,1,1,1.3l-0.5,3.1c-1,0.3-1.5,0.8-1.5,1.5c0,0.5,0.3,1,1,1.3l-1,4.6c-1,0.3-1.8,0.8-1.8,1.5c0,0.5,0.5,1,1.3,1.5l-0.8,3.3
	c-1,0.3-1.5,0.8-1.5,1.5c0,0.5,0.3,1,1,1.3l-1.5,7.7h0.3l-22.1,2.8l-0.3-2.3c0.8-0.5,1.3-1,1.3-2.1c0-1-1-2.1-2.1-2.1l-0.8-4.1
	c0.5-0.5,0.8-1,0.8-1.8s-0.5-1.8-1.5-2.1L322.8,345.1L322.8,345.1z M355.9,333.8c1-0.3,1.8-0.8,1.8-1.5c0-0.5-0.5-1.3-1.3-1.5
	l0.5-1.8c1.5-0.5,3.3-0.8,5.1-1l-0.8,3.3c-0.8,0.3-1.5,0.8-1.5,1.5c0,0.5,0.5,1,1,1.3l-0.5,3.1c-0.8,0.3-1.5,0.8-1.5,1.5
	c0,0.5,0.5,1,1,1.3l-0.7,5.4c-0.8,0.3-1.3,0.8-1.3,1.3s0.3,1,0.8,1.3l-0.5,3.3c-1,0.3-1.8,1-1.8,1.5c0,0.8,0.5,1.3,1.3,1.5l-1,5.6
	l-5.6,0.8l1.3-7.2c1-0.3,1.8-0.8,1.8-1.5c0-0.5-0.5-1-1.3-1.3l0.8-3.6c0.8-0.3,1.5-0.8,1.5-1.5c0-0.5-0.5-1-1-1.3l0.8-4.6
	c1-0.3,1.8-0.8,1.8-1.5c0-0.8-0.3-1.3-1-1.5L355.9,333.8L355.9,333.8z M363.1,334.3c1,0,1.8-0.8,1.8-1.5c0-0.5-0.5-1-1.3-1.5
	l0.8-3.9c1.5-0.3,3.1-0.5,4.4-0.8l-0.5,5.1c-0.8,0.3-1.3,1-1.3,1.5s0.3,1,1,1.5l-0.5,2.6c-0.8,0.3-1.5,0.8-1.5,1.5
	c0,0.5,0.5,1,1.3,1.5l-0.5,5.6c-1,0.3-1.5,0.8-1.5,1.5c0,0.5,0.5,1,1,1.3L366,352c-0.8,0.3-1.3,0.8-1.3,1.5c0,0.5,0.3,0.8,0.8,1.3
	l-0.3,3.9l-6.2,0.8l0.8-5.4c1-0.3,1.5-0.8,1.5-1.5c0-0.5-0.5-1-1-1.3l0.5-3.1c1-0.3,1.8-1,1.8-1.8c0-0.5-0.5-1-1.3-1.3l0.8-5.1
	c1-0.3,1.8-0.8,1.8-1.5c0-0.5-0.5-1-1.3-1.5L363.1,334.3L363.1,334.3z M370.1,334.8c1,0,1.8-0.8,1.8-1.5c0-0.5-0.5-1.3-1.3-1.5
	l0.5-5.6c3.1-0.5,6.2-1,9-1.5V357l-12.6,1.5l0.5-3.1c1-0.3,1.5-1,1.5-1.5c0-0.8-0.5-1.3-1.3-1.5l0.3-3.1c1-0.3,1.8-1,1.8-1.5
	c0-0.8-0.5-1.3-1.3-1.5l0.5-5.6c1-0.3,1.5-0.8,1.5-1.5c0-0.5-0.5-1-1.3-1.5L370.1,334.8L370.1,334.8z M394.2,333.3
	c-0.3,0.5-0.5,0.8-0.5,1.3s0.3,1,1,1.3l0.5,4.1c-0.5,0.5-1,1-1,1.5c0,0.8,0.8,1.3,1.5,1.5l1,6.4c-0.5,0.3-0.8,0.8-0.8,1.3
	s0.5,1.3,1.3,1.5l0.5,2.3l-11.8,1.5l-0.3-32.3c2.3-0.3,4.6-0.5,6.7-0.8L394.2,333.3L394.2,333.3z M397,336.1c1-0.3,1.5-1,1.5-1.5
	c0-1-1-1.8-2.3-1.8l-1.5-10c1.5-0.3,3.1-0.5,4.9-0.5l2.1,11c-0.3,0.3-0.5,0.5-0.5,0.8c0,0.8,0.5,1,1,1.5l1,4.9
	c-0.5,0.3-0.5,0.5-0.5,1s0.3,1,0.8,1.3l1.5,6.9c-0.3,0.3-0.5,0.5-0.5,1s0.3,0.8,0.8,1l0.5,1.8l-5.6,0.8l-0.5-2.3
	c0.8-0.3,1.3-0.8,1.3-1.3c0-0.8-0.8-1.5-1.8-1.8l-1-6.2c0.8-0.3,1.3-0.8,1.3-1.3c0-0.8-0.8-1.3-1.8-1.5L397,336.1L397,336.1z
	 M404.5,335.9c1-0.3,1.8-1,1.8-1.8s-1.3-1.5-2.6-1.5l-2.1-10.5c1.5-0.3,3.3-0.3,4.9-0.5l2.6,11c-0.8,0.3-1.3,0.8-1.3,1.3
	c0,1,0.8,1.5,2.1,1.8l1,4.1c-0.8,0.5-1,1-1,1.5c0,0.8,0.8,1.3,1.5,1.5l1.5,5.9c-0.8,0.3-1.3,0.8-1.3,1.3c0,0.8,0.8,1.5,1.8,1.8
	l0.3,0.8l-5.6,0.8l-0.3-1c1-0.3,1.8-0.8,1.8-1.5c0-1-1-1.8-2.6-1.8l-1-5.9c0.8-0.3,1.5-0.8,1.5-1.5c0-1-1-1.8-2.3-1.8L404.5,335.9
	L404.5,335.9z M388.8,245l3.6,15.7l-3.3-0.3L386,246l-0.5-0.8v-0.3C386.5,245,387.8,245,388.8,245L388.8,245z M385.5,250.6l1.8,9.5
	h-1.8V250.6L385.5,250.6z M379.8,246.5l0.5,2.8v8.5c-0.5-0.5-1-0.8-1.5-1.3L379.8,246.5L379.8,246.5z M372.9,245.5
	c1.3,0,2.3,0,3.3-0.3l-1.3,8.5c-1-0.8-2.1-1.8-3.1-2.6L372.9,245.5L372.9,245.5z M371.3,253.7c1,0.3,2.3,0.8,3.3,1.5l-0.8,4.1
	c-1.3-0.3-2.3-0.3-3.6-0.3L371.3,253.7L371.3,253.7z M370.3,249.9c-1.3-1.3-2.8-2.6-4.1-3.9c1.5,0,3.3-0.3,4.9-0.3L370.3,249.9
	L370.3,249.9z M378,245.2h0.3l-1,10.3l-1-0.8L378,245.2L378,245.2z M376.2,255.8l0.8,0.5l-0.3,3.1h-1L376.2,255.8L376.2,255.8z
	 M380.3,258.1v1.5h-2.1l0.3-2.6C379,257.3,379.8,257.8,380.3,258.1z"/>
</svg>
