<?xml version="1.0" encoding="utf-8"?>
<!-- Generator: Adobe Illustrator 24.1.0, SVG Export Plug-In . SVG Version: 6.00 Build 0)  -->
<svg version="1.1" id="Layer_1" xmlns="http://www.w3.org/2000/svg" xmlns:xlink="http://www.w3.org/1999/xlink" x="0px" y="0px"
	 viewBox="0 0 504 715" style="enable-background:new 0 0 504 715;" xml:space="preserve">
<style type="text/css">
	.st0{fill:#003C85;}
</style>
<g>
	<path class="st0" d="M446.1,150.3c-1.4-1-2.5-1.8-3.5-2.6c-31.3-24.1-66.5-38.5-105.8-42.6C224.6,93.4,130.5,169.5,109.1,269
		c-23.4,108.8,40.2,216.1,146.8,246.6c60.7,17.4,118.3,8.5,172-25c0.8-0.5,1.6-0.9,2.2-1.5c1.8-1.6,3-0.9,4.3,0.8
		C454.7,516,475,542,495.3,568c0.4,0.5,0.6,1,0.9,1.4c-0.8,1.5-2.2,2.1-3.4,2.9c-39.8,27.4-83.6,45-131.5,52.1
		C208,647.4,66.6,557.1,17.7,417.8c-14.4-41-20-83.2-16.7-126.4c6.1-79.9,38.1-147.9,95.4-203.7C153,32.6,215.8,11.2,263.9,3.9
		c85.6-13,163.9,5.6,234.6,55.6c0.9,0.6,1.7,1.2,2.5,1.8c4.1,3,3.4,2.6,1,6.1c-17.9,26.5-35.7,53-53.6,79.5
		C447.8,148.1,447.1,149,446.1,150.3z"/>
	<path class="st0" d="M446.7,696.8c-86,24-172.1,24-258.5,0.7c12.3-10.8,77.8-27,113.5-28.5C352.2,666.7,400.6,675.5,446.7,696.8z"
		/>
</g>
</svg>
