<?xml version="1.0" encoding="utf-8"?>
<!-- Generator: Adobe Illustrator 24.0.1, SVG Export Plug-In . SVG Version: 6.00 Build 0)  -->
<svg version="1.1" id="Layer_1" xmlns="http://www.w3.org/2000/svg" xmlns:xlink="http://www.w3.org/1999/xlink" x="0px" y="0px"
	 viewBox="0 0 600 600" style="enable-background:new 0 0 600 600;" xml:space="preserve">
<style type="text/css">
	.st0{fill:#1A536A;}
	.st1{fill:#396EA4;}
	.st2{fill:#FDFEFE;}
</style>
<g>
	<path class="st0" d="M277.23,242.62c-0.46,2.13-0.85,3.97-1.27,5.91c-0.73-0.17-1.29-0.31-1.89-0.45c0.47-2.37,0.91-4.56,1.35-6.79
		c-17.12-11.39-35.6-18.8-56.5-20.92c15.58-11.71,30.13-24.03,40.97-39.58c17.83-25.58,32.15-52.86,32.66-85.23
		c0.03-1.76,0.32-3.51,0.49-5.26c0.9,0,1.8,0,2.7,0c0,50.33,0,100.66,0,149.64c1.15,1.74,1.45,2.2,1.75,2.66
		c-0.34,0.04-0.68,0.09-0.94,0.12c0,2.24,0,4.33,0,6.46c1.43,0.16,2.74,0.31,4.34,0.49c-1.23-2.54-2.33-4.82-3.44-7.1
		c8.69,9.19,17.43,18.35,26.06,27.6c5.59,5.98,11.03,12.1,16.83,18.48c0.21-10.58-1.5-20.24-7.14-29.03
		c13.42,0.14,26.48,1.89,39.61,3.28c-11.26-2.97-21.22-11.5-34.04-7.7c-0.06-0.06-0.12-0.12-0.18-0.17
		c0.59-0.83,1.19-1.66,1.93-2.69c-7.62-1.58-14.99-3.12-21.95-4.56c3.5-17.29-2.01-32.35-9.75-46.96c0.11-0.12,0.21-0.23,0.32-0.35
		c13.19,13.08,26.39,26.17,39.61,39.28c2.4-5.45,3.36-11.18,2.53-17.18c-0.82-5.89-3.23-11.2-6.33-16.38
		c12.09,2.27,23.9,4.48,35.82,6.71c0-5.78,0-11.1,0-16.84c-5.01,0.39-9.9,0.78-15.49,1.22c2.92,2.64,5.22,4.73,7.53,6.82
		c-0.07,0.06-0.13,0.13-0.2,0.19c-7-5.1-14.39-8.17-24.48-3.04c2.84-3.39,4.42-5.28,6.37-7.61c-11.68-4.97-23-9.78-33.52-14.25
		c-0.01-18.99-10.4-33.69-19.52-50.66c19.19,21.16,37.21,41.04,55.52,61.23c6.58-12.15,6.38-23.32-1.77-34.48
		c8.83,2.17,17.15,4.22,25.81,6.35c0-10.53,0-20.64,0-30.83c1.17-0.15,2.1-0.27,3.33-0.42c0,10.89,0,21.61,0,32.83
		c10.94,1.09,16.92,7.92,20.97,17.35c4,9.3,3.64,18.61,1.36,28.39c-4.79-8.97-12.58-12.34-22.04-12.86c0,5.83,0,11.44,0,17.13
		c0.84,0.18,1.56,0.28,2.24,0.5c7.61,2.39,17.02,0.6,21.55,10.02c2.28,4.74,4.7,9.86,8.4,13.41c12.66,12.14,25.95,23.62,38.94,35.41
		c22.76,20.66,45.49,41.37,68.22,62.06c4.69,4.27,9.32,8.62,14.03,12.88c4.64,4.2,9.33,8.34,15.57,13.91
		c-19.67-9.89-38.19-16.26-58.77-16.51c9.29,10.19,18.36,20.13,27.83,30.51c-16.97-4.34-33.45-9.01-50.07,0.81
		c0.58-1.83,1.17-3.06,1.34-4.34c2.17-16.9-3.94-31.82-11.91-45.99c-9.19-16.33-19.16-32.22-28.79-48.3
		c0.09-0.07,0.17-0.15,0.26-0.22c15.28,16.71,30.55,33.42,46.71,51.09c-0.44-5.87-0.43-10.61-1.19-15.22
		c-2.68-16.28-13.61-27.05-24.79-38.06c-12.37-12.19-23.58-25.56-35.29-38.42c-0.9,0.81-1.81,1.62-2.71,2.43
		c3.58,8.4,4.16,17.02,2.34,26.42c-8.11-12.63-20.57-15.13-33.73-16.56c0,3.42,0,6.59,0,9.77c1.33,0.11,2.54,0.22,3.84,0.33
		c-0.38,2.27-0.72,4.34-0.98,5.87c13.4,6.45,31.36,0.11,40.25,18.04c9.4,18.96,12.67,36.64,5.74,43.46
		c-12.41-11.37-27.99-11.1-43.48-12.43c1.17,5.18,2.25,9.96,3.33,14.75c12.41,1.26,24.65,2.5,36.7,3.72
		c19.31,22.38,24.05,45.05,12.22,56.92c-11-6.86-23.12-5.25-35.39-5.3c1.33,4.1,2.55,7.83,3.93,12.07c0.12-0.19-0.17,0.27-0.47,0.73
		c0.35,1.23,0.69,2.41,0.92,3.23c0.74,0.94,1.26,1.59,1.76,2.22c-0.51,0.64-0.81,1.02-1.08,1.37c0.8,2.37,0.67,5.01,2.9,6.57
		c-0.39,0.69-0.67,1.19-0.92,1.63c20.9-0.7,40.57-6.91,60.76-12.68c-4.32-0.86-8.23-1.63-14.38-2.85
		c35.56,3.82,64.71-15.14,96.98-17.17c-10.84,3.54-21.67,7.09-32.51,10.63c-8.23,2.51-16.45,5.02-25.4,7.75
		c4.3,3.43,9.17,3.48,13.32,5.25c-1.75,0.12-3.45,0.25-5.15,0.37c-17.1-4.53-32.39,2.26-47.91,7.64
		c-5.49,1.71-10.98,3.41-16.47,5.12c-2.53,0.67-4.66,1.89-5.97,4.26c-3.98,2.41-6.87,5.94-9.79,9.44c-2.94,2.82-5.87,5.65-8.81,8.47
		c-0.7,0.44-1.42,0.83-2.09,1.31c-4.71,3.42-6.96,10.15-14.03,10.4c-3.78-0.02-7.56-0.03-11.34-0.05
		c-11.12-0.04-22.24-0.09-33.36-0.13c-8.37,0.04-16.73,0.09-25.1,0.13c-13.3-0.02-26.6-0.04-39.9-0.07
		c-6.24-0.02-12.48-0.03-18.71-0.05c-8.8,0.09-17.6,0.18-26.4,0.27c-2.48-0.09-4.95-0.19-7.43-0.28
		c-19.99,0.01-39.99,0.02-59.98,0.03c-6.86,0.04-13.73,0.07-20.59,0.11c-2.83-0.03-5.67-0.06-8.5-0.1
		c-6.13-0.02-12.27-0.03-18.4-0.05c-11.69,0.04-23.38,0.08-35.07,0.13c-3.46-0.02-6.92-0.03-10.38-0.05
		c-10.29-5.65-17.89-14.55-26.7-21.99c-1.36-5.79-2.71-11.58-4.12-17.58c7.09,0,13.97,0,20.68,0c0.39,0.75,0.59,1.15,0.75,1.44
		c21.49,1.47,42.8,2.92,64.12,4.37c-0.13-2.53,2.7-4.01,1.55-6.8 M146.09,407.42c-0.21-1.92-0.48-3.91-0.82-5.96
		c-0.22-1.35-0.46-2.66-0.71-3.93c-30.06-13.48-61.22-20.97-94.24-17.86c26.97-43.43,57.13-85.81,50.49-141.58
		c17.15,5.59,34.42,11.22,51.84,16.9c0.8-3.94,1.58-7.72,2.37-11.59c-16.86-11.41-34.96-19.25-55.39-21.12
		c40.48-28.51,74.59-60.7,73.26-115.62c0.62-0.08,1.54-0.19,2.05-0.25c4.05,48.9,0.17,97.77,1.83,146.74
		c1.18,0.1,2.43,0.21,4.25,0.37c-4.58,10.3-1.7,20.27,0.37,31.57c-0.02,1.18,0.23,3.58,1.79,5.68c-0.84,2.35-0.42,4.47,1.25,6.27
		c-0.33,0.59-0.56,1.02-0.79,1.42c0.31,1.43,0.62,2.79,0.84,3.83c0.83,0.74,1.43,1.28,1.89,1.7c-1.63,2.95-0.68,5.17,0.9,7.29
		c-1.44,2.05,0.2,3.98,0.08,5.82c0.64,0.66,1.15,1.2,1.66,1.74c-0.45,0.63-0.77,1.08-1.05,1.48c0.3,1.53,0.58,2.96,0.88,4.52
		c2.56,0.93,0.12,2.83,0.73,4.29c0.63,1.5,0.88,3.17,1.46,5.38c-0.38,1.63,0.22,4.92,1.79,6.43c14.96-35.7,25.78-71.82,19.26-111.3
		c22.63,7.05,45.25,14.09,67.88,21.14 M327.7,321.79c-0.1-0.11-0.2-0.22-0.3-0.34c2.34-3.26,4.67-6.52,7.16-9.98
		c-6.41-1.22-12.57-2.4-18.81-3.59c5.31-11.12-8.75-49.46-14.48-57.34c-0.84,4.05-1.68,8.12-3.03,14.64
		c-0.35-1.9-0.21-1.13-0.11-0.62c0.83,0.61,1.46,1.08,2.22,1.64c-0.61,0.74-1.03,1.24-1.43,1.77c0.14,0.88,0.28,1.76,0.29,1.78
		c2.62,3.23-0.52,7.22,2.39,8.74c0,1.9,0,3.17,0,4.5c1.93,0.83,1.88,2.03,0.62,3.3c0.3,1.26,0.58,2.4,0.85,3.57
		c0.88,0.49,1.96,0.85,1.53,2.32c-0.26,0.28-0.6,0.64-0.96,1.03c0.21,0.95,0.42,1.87,0.66,2.81c0.98,0.42,1.91,0.88,1.51,2.29
		c-0.29,0.31-0.62,0.67-1.01,1.08c0.23,1.32,0.46,2.63,0.68,3.92c1.09,0.31,2.39,0.15,2.45,1.87c-0.4,0.43-0.88,0.95-1.37,1.47
		c0.22,1.25,0.43,2.46,0.57,3.22c0.84,0.92,1.38,1.51,1.93,2.11c-0.6,0.7-0.96,1.11-1.3,1.51c0.3,1.49,0.59,2.92,0.74,3.68
		c1.26,0.87,2.03,1.4,2.88,1.99c-1.32,1.2-1.76,1.6-2.23,2.03c0.3,1.42,0.59,2.79,0.9,4.25c1.03,0.31,1.86,0.84,1.53,2.21
		c-0.3,0.32-0.64,0.67-1.01,1.06c0.28,1.45,0.56,2.88,0.86,4.31c0.44,0.31,0.89,0.63,1.58,1.12c-0.33,0.79-0.65,1.56-0.99,2.38
		c0.26,1.31,0.54,2.68,0.83,4.15c2.26,0.81,1.42,2.13,0.95,3.86c-0.4,1.47,0.42,3.27,0.71,4.93c2.25,0.7,2.51,1.95,1.06,3.68
		c0.31,1.75,0.63,3.5,0.93,5.19c2.76,1.02,2.67,2.41,0.73,4.06c0.31,1.57,0.61,3.11,0.91,4.62c1.31,0.28,2.93,0.3,2.91,1.85
		c-0.01,0.81-1.16,1.6-2.04,2.72c0.08,0.39,0.26,1.27,0.43,2.14c0.18,0.88,0.36,1.75,0.53,2.58c2.97,1.33,3.09,2.02,0.81,4.24
		c0.27,1.31,0.55,2.64,0.98,4.75c6.98-20.29,9.92-39.71-0.22-58.7c15.64,0,31.5,0,47.68,0c0.27-1.26,0.67-3.08,1.09-5.05
		c-5.14-1.76-9.78-5.29-15.11-4.63C345.97,318.05,336.86,320.12,327.7,321.79z M207.9,425.5c18.5,0,36.82,0,55.22,0
		c0.23-1.47,0.44-2.85,0.66-4.27c-3.45-2.03-0.6-3.23,0.98-4.66c-20.38-3.07-41.04-1.98-60.39-10.68c0.22,1.57,0.35,2.5,0.46,3.43
		c1.95,1.02,2.2,2.34,0.76,3.85c0.25,1.2,0.47,2.3,0.7,3.43c2.63,0.9,2.72,2.28,0.71,4.04C207.29,422.23,207.59,423.83,207.9,425.5z
		 M307.31,394.69c-0.2-1.33-0.41-2.77-0.6-4.22c-2.32-0.96-2.26-2.29-0.66-3.78c-0.3-1.91-0.6-3.74-0.9-5.65
		c-2.13-0.97-2.14-2.32-0.5-3.82c-0.22-1.86-0.42-3.64-0.65-5.55c-2.08-1.11-2.14-2.4-0.53-3.82c-0.23-1.68-0.46-3.29-0.68-4.94
		c-1.02-0.52-1.91-1.12-1.42-2.86c0.21-0.14,0.73-0.48,0.37-0.25c2.34-3.99-2.77-6.39-0.5-10.03c-0.67-4.67-1.38-9.59-2.2-15.3
		c0.23-1.84,0.1-4.44-1.47-6.84c1.33-2.07,0.2-4-0.07-6.61c0,35.23,0,69.82,0,104.49c4.67,0,9.21,0,13.86,0
		c-0.17-1.2-0.32-2.3-0.49-3.39c-2.22-1.13-1.91-2.55-1.75-2.71c2.7-4.03-2.33-5.86,0.32-8.62c-0.21-1.37-0.42-2.71-0.6-3.86
		 M329.07,423.34c7.02-0.87,13.86-1.72,20.76-2.57c0.49-2.39,0.95-4.64,1.39-6.83c-0.35-0.53-0.64-0.98-1.32-2.01
		c0.62-0.37,1.28-0.76,1.86-1.1c0.25-0.95,0.48-1.8,0.69-2.58c-0.41-0.63-0.84-1.28-1.38-2.1c0.92-0.48,1.54-0.8,2.23-1.15
		c0.28-1.27,0.58-2.58,0.86-3.82c-0.35-0.47-0.65-0.87-1.08-1.45c0.52-0.56,1.03-1.1,1.66-1.76c0.1-0.65,0.23-1.47,0.35-2.23
		c-0.36-0.56-0.68-1.06-0.97-1.5c0.69-0.79,1.25-1.43,2.53-2.89c-11.49,2.59-21.91,4.93-31.69,7.13c-2.03,3.29,3.96,4.64,0.7,7.98
		c1.44,3.35,2.67,6.91,2.14,10.72c2.73,1.04,2.71,2.48,1.03,4.12C328.9,421.94,328.97,422.49,329.07,423.34z M313.33,425.19
		c2.01-0.25,3.77-0.47,5.54-0.69c-0.6-4.05-1.18-7.88-1.75-11.71c-0.01,0-0.03,0.01-0.04,0.01c-0.56-3.77-1.11-7.55-1.71-11.58
		c-1.33,0.28-2.63,0.55-4.23,0.88c1.31-1.62,2.4-2.96,3.46-4.27c-0.35-0.6-0.62-1.07-0.44-0.75c-0.23-2.89-0.4-4.93-0.54-6.66
		c-0.73-0.91-1.25-1.57-1.74-2.17c0.49-0.73,0.79-1.19,0.89-1.34c-1.73-11.21-3.42-22.11-5.13-33.2c-1.62-0.92-1.56-2.26-0.34-3.7
		c-1.05-5.02-2.08-9.95-3.11-14.89c0.12-0.02,0.25-0.04,0.37-0.06c-0.48-2.57-0.97-5.15-1.45-7.72c0.07-0.01,0.14-0.02,0.21-0.04
		c-0.45-2.46-0.9-4.92-1.39-7.59c-0.13-1.76-0.27-3.78-0.41-5.7c-0.56-0.39-0.97-0.68-1.61-1.12c0.26-0.77,0.53-1.55,0.77-2.24
		c-0.97-6.07-1.94-12.11-2.9-18.14c-1.04,9.32-0.8,18.46,1.49,28.08c-0.04,1.97-0.07,4.57,1.46,6.83c-0.89,2.68-0.74,5.14,1.26,7.55
		c-1.46,1.96-0.62,4.17,0.1,6.31c1.07,8.92,2.13,17.84,3.2,26.71c0.55,0.31,1.02,0.58,1.36,0.77c0.84,1.36-0.11,1.95-1.1,2.76
		c0.82,2.61,1.65,5.27,2.39,7.66c-0.45,3.35-0.7,6.41,1.58,9.04c-2.35,4.98,2.81,9.53,0.29,14.24c2.36,1.3,2.72,2.56,0.96,4.01
		c0.23,1.45,0.45,2.83,0.67,4.21 M205.21,404.56c19.84,3.77,39.49,7.5,59.26,11.25c0.18-1.05,0.33-1.92,0.46-2.79
		c-1.87-1.57-1.15-2.77,0.85-3.94c-20.84-6.23-41.71-10.65-63.38-12.17c0.34,1.79,0.64,3.36,0.94,4.95
		C204.76,402.18,205.48,402.96,205.21,404.56z M315.19,360.48c-0.15-0.03-0.29-0.06-0.44-0.09c-1.57-8.57-3.14-17.14-4.71-25.7
		c0.02,0,0.03-0.01,0.05-0.01c-3.56-18.37-7.12-36.74-10.78-55.61c-0.99,0.95-1.42,1.35-1.92,1.83c0.36,1.31,0.7,2.59,1.1,4.06
		c-0.58,2.4,0.01,4.74,1.89,6.65c-0.42,0.64-0.72,1.09-0.99,1.49c0.22,1.1,0.42,2.09,0.58,2.86c0.64,0.69,1.15,1.23,1.69,1.82
		c-0.45,0.74-0.79,1.31-1.24,2.04c0.45,1.73,0.93,3.59,1.55,5.97c-0.47,1.85,0.06,4.14,0.58,5.28c0.88,5.67,1.58,10.2,2.3,14.87
		c1.76,0.73,1.55,1.87,0.37,3.05c0.25,1.54,0.48,2.98,0.62,3.85c1.1,0.76,1.79,1.23,2.41,1.66c-0.89,1.21-1.18,1.61-1.49,2.03
		c0.21,1.5,0.41,3,0.62,4.5c1.08,4.11,0.93,8.41,2.26,12.49c0.83,4.66,2.51,9.18,1.72,13.85c2.91,1.16,3.02,2.49,1.92,3.43
		c-2.32,4.12,2.75,6.56,0.6,10.37c0.24,1.51,0.54,3.33,0.84,5.2c2.54,0.77,2.5,2.12,0.8,3.78c0.27,1.41,0.53,2.79,0.99,5.2
		c1.46-2.63,2.41-4.34,3.65-6.58C318.57,379.59,316.88,370.03,315.19,360.48z M368.29,418.4c3.89-0.48,7.75-0.95,11.59-1.43
		c0-10,0-19.8,0-29.72c-2.83,0.5-5.52,0.98-8.11,1.44c-0.31,1.79-0.58,3.36-0.82,4.73c0.65,0.53,1.23,1.01,2.15,1.77
		c-1.24,0.82-1.93,1.27-2.74,1.8c-0.05,0.62-0.11,1.38-0.15,1.91c0.64,0.71,1.1,1.24,1.66,1.87c-0.86,0.53-1.41,0.87-1.97,1.22
		c-0.15,1.66-0.29,3.28-0.43,4.8c0.46,0.58,0.86,1.08,1.37,1.71c-0.73,0.61-1.31,1.09-1.93,1.6c-0.04,0.79-0.09,1.57-0.13,2.36
		c0.39,0.45,0.79,0.9,1.36,1.55C369.02,415.19,367.79,416.34,368.29,418.4z M177.18,421.69c4.24,1.19,8.28,2.32,12.57,3.52
		c-0.18-1.45-0.31-2.56-0.45-3.73c-2.27-1.08-2-2.53-1.74-2.78c2.71-3.98-2.52-5.78,0.54-8.78c-1.93-3.74-1.88-7.92-1.74-11.73
		c-1.06-0.82-1.75-1.36-2.23-1.73c-2.45,0-4.72,0-6.96,0C177.18,404.95,177.18,413.19,177.18,421.69z M385.63,416.31
		c3.96-0.52,7.6-0.99,11.65-1.52c-0.78-1.44-1.37-2.53-1.26-2.33c-0.35-3.59-0.58-5.85-0.78-7.93c-0.68-0.59-1.16-1.02-1.68-1.47
		c1.46-2.35,1.19-4.45,0.29-5.59c-0.69-4.49-1.23-8.06-1.78-11.65c-2.43,0.28-4.46,0.51-6.43,0.74
		C385.63,396.5,385.63,406.27,385.63,416.31z M190.76,344.6c-2.05-3.51,0.13-7.56-2.64-10.24c0.6-2.83,0.31-5.4-1.1-7.65
		c0.47-2.89-0.13-5.43-1.43-7.72c0.67-2.94-0.4-5.28-2.09-7.5c1.15-2.57,0.49-4.95-0.82-7.12c0.46-2.71,0.32-5.18-1.59-7.26
		c0.29-0.58,0.53-1.06,0.91-1.83c-1.81-2.82-1.62-6.21-1.76-8.95c-0.94-1.14-1.51-1.84-2.1-2.54c0.64-0.7,1.01-1.1,1.37-1.49
		c-0.22-0.78-0.42-1.48-0.63-2.2c-0.64-0.41-1.27-0.82-2.72-1.75c1.38,4.53-1.38,8.94,2.64,12.45c-1.29,1.51-0.55,3.1-0.35,4.78
		c2,0.84,1.6,2.1,0.53,3.3c0.75,4.33,1.47,8.5,2.2,12.68c-0.08,0.02-0.16,0.03-0.25,0.05c0.99,5.17,1.99,10.33,3.1,16.12
		c0.2-0.27-0.13,0.17-0.43,0.59c0.26,1.57,0.5,3.06,0.73,4.47c0.6,0.37,1.07,0.65,1.87,1.13c-0.42,0.68-0.81,1.31-1.37,2.21
		c0.28,1.17,0.65,2.67,0.9,3.7c2.73,3.17-0.69,7.51,2.68,10.38C189.36,347.98,190.15,346.08,190.76,344.6z M178.43,305.91
		c-0.06-0.05-0.46-0.33-1.11-0.8c0.29-0.76,0.59-1.53,0.99-2.59c-0.23-1.22-0.53-2.73-1.08-5.59c0,8.44,0,15.38,0,22.32
		c0.3,2.74,0.46,5.43,0.9,6.12c1.19,7.63,2.1,13.42,3,19.21c-0.19,0.02-0.38,0.04-0.57,0.06c0.77,4.85,1.54,9.71,2.3,14.56
		c0.63-2.54,5.9-4,1.75-7.46c-0.68-1.04,0.43-1.66,1.37-2.7c-2.86-4.36-1.41-9.83-3.44-14.86 M358.97,250.17
		c6.61,5.29,12.32,9.84,18.9,15.1c-0.59-3.09-0.92-4.86-1.25-6.6c1.31,0,2.4,0,3.55,0c0-3.21,0-6.33,0-9.94
		C373.38,249.2,366.71,249.65,358.97,250.17z M398.85,385.18c-1.73,0.12-3.2,0.22-4.88,0.33c0.49,3.21,0.95,6.23,1.35,8.85
		c1,0.8,1.68,1.34,2.94,2.34c-1.06,0.53-1.71,0.85-2.18,1.09c0.2,1.43,0.35,2.48,0.47,3.36c0.68,0.6,1.24,1.08,1.86,1.63
		c-0.54,0.57-0.91,0.96-1.34,1.41c0.3,1.8,0.61,3.61,0.85,5.05c0.91,0.86,1.55,1.47,2.32,2.21c-0.85,0.53-1.3,0.81-1.82,1.14
		c0.2,0.69,0.37,1.31,0.59,2.07c1.87-0.24,3.63-0.46,5.69-0.72c-0.47-1.03-0.85-1.86-0.12-0.26c-1.2-5.28-1.83-8.04-2.6-11.41
		c0.4-1.77-0.33-3.97-0.79-4.75C400.26,392.57,399.59,389.07,398.85,385.18z M194.14,405.22c-0.73-4.69-1.05-6.69-1.37-8.72
		c-1.37,0-2.43,0-3.54,0c-0.34,0.43-0.69,0.86-1.03,1.29c-1.56,2.98,3.52,5.12,1,8.29c0.18,1.2,0.38,2.53,0.59,3.86
		c0.21-0.03,0.42-0.07,0.63-0.1c0.49,5.23,0.97,10.46,1.45,15.64c2.03,0,3.84,0,5.98,0C195.34,417.94,196.61,409.84,194.14,405.22z
		 M366.31,418.8c-0.18-1.9-0.34-3.57-0.53-5.59c0.23-0.13,0.72-0.41,1-0.57c0.1-1.16,0.16-2,0.23-2.78
		c-0.37-0.5-0.69-0.95-1.14-1.56c2.53-1.55,1.6-4.12,2.04-6.17c-0.47-0.7-0.86-1.28-1.29-1.92c0.64-0.54,1.15-0.96,1.62-1.36
		c0.13-0.72,0.25-1.38,0.37-1.98c-0.36-0.55-0.69-1.05-1.1-1.67c2.11-1.59,1.48-3.81,1.81-6.05c-1.5,0.26-2.8,0.49-4.11,0.71
		c-0.24,1.25-0.46,2.34-0.66,3.36c0.45,0.6,0.84,1.12,1.33,1.79c-0.7,0.57-1.29,1.04-1.89,1.5c-0.13,0.71-0.26,1.43-0.38,2.1
		c0.43,0.58,0.81,1.11,1.3,1.77c-0.65,0.52-1.19,0.96-1.85,1.49c-0.21,1.35-0.45,2.83-0.69,4.41c0.47,0.32,0.92,0.63,1.66,1.14
		c-0.95,0.83-1.61,1.41-2.53,2.21c-0.08,0.55-0.21,1.49-0.33,2.33c0.51,0.47,0.89,0.84,1.46,1.36c-0.72,0.48-1.29,0.87-2.02,1.36
		c-0.2,1.5-0.42,3.11-0.67,4.89C362.15,419.31,364.03,419.08,366.31,418.8z M403.3,397.97c0.21,0.98,0.45,2.06,0.69,3.17
		c1.07,0.31,2.18,0.56,2.02,2.08c-0.44,0.38-0.89,0.78-1.33,1.17c0.32,1.77,0.63,3.47,0.86,4.78c1.08,0.78,1.85,1.35,2.86,2.08
		c-0.92,0.74-1.47,1.18-2.98,2.4c2.89-0.27,4.76-0.44,6.98-0.65c-0.99-1.03-1.63-1.71-2.65-2.77c0.84-0.36,1.37-0.59,1.77-0.76
		c-0.54-2.02-0.98-3.7-1.4-5.27c-0.58-0.51-1.08-0.94-1.65-1.44c0.41-0.67,0.74-1.23,1.1-1.81c-0.29-1.13-0.58-2.27-0.88-3.42
		c-0.96-0.41-2.27-0.42-2.15-2.36c0.22-0.1,0.74-0.34,1.12-0.52c-0.87-3.63-1.65-6.92-2.44-10.22c-1.65,0.2-3.02,0.36-4.57,0.54
		c0.66,3.34,1.29,6.49,1.85,9.33c1.04,0.6,1.78,1.03,3.31,1.91C404.76,396.95,404.14,397.38,403.3,397.97z M358.79,407.39
		c0.53-0.49,0.93-0.87,1.34-1.26c0.2-1.5,0.41-3,0.6-4.43c-0.35-0.58-0.65-1.08-1.03-1.72c0.56-0.47,1.01-0.85,1.42-1.19
		c0.58-1.44,0.82-2.83-0.59-4.15c0.75-0.53,1.36-0.95,2.07-1.45c0.16-0.82,0.34-1.72,0.58-2.92c-1.85,0.32-3.43,0.6-5.03,0.87
		c-0.21,0.64-0.39,1.15-0.54,1.62c0.42,0.49,0.78,0.9,1.35,1.56c-0.63,0.58-1.2,1.11-1.9,1.75c-0.11,0.59-0.25,1.35-0.37,2.03
		c0.36,0.52,0.67,0.97,1.13,1.63c-0.66,0.59-1.25,1.12-1.93,1.74c-0.19,1.15-0.4,2.42-0.59,3.7c0.32,0.5,0.63,1,1,1.59
		c-0.57,0.52-1.05,0.96-1.6,1.45c-0.19,0.93-0.39,1.91-0.58,2.88c0.42,0.44,0.78,0.84,1.32,1.4c-0.67,0.59-1.27,1.12-1.81,1.6
		c-0.47,2.12-0.93,4.18-1.45,6.48c2.05-0.31,3.84-0.57,5.58-0.83c0.33-1.84,0.61-3.43,0.86-4.82c-0.48-0.74-0.84-1.31-1.27-1.97
		c0.71-0.53,1.24-0.92,1.79-1.31c0.15-0.88,0.31-1.76,0.48-2.66C359.36,408.5,359.11,408.01,358.79,407.39z M317.63,402.66
		c2.47,0.99,3.05,2.31,0.76,4.1c0.24,1.35,0.47,2.67,0.69,3.93c2.91,1.1,2.68,2.48,0.49,4.04c0.15,0.96,0.29,1.9,0.45,2.83
		c2.1,1.02,2.57,2.33,0.71,4.01c0.18,0.9,0.36,1.75,0.56,2.72c2.01-0.27,3.86-0.53,5.37-0.73c1.29-2.31-2.69-3.53-0.53-5.67
		c-0.31-1.33-0.6-2.59-0.9-3.92c-2.21-0.82-2.18-2.23-0.67-4.08c-1.84-3.2-2.4-6.78-1.96-10.79c-2.08,0.63-3.61,1.08-5.19,1.56
		C317.5,401.45,317.57,402.05,317.63,402.66z M205.76,425.54c-0.74-2.45-0.15-5.07-2.43-6.85c2.17-1.89-0.24-3.54,0.04-5.33
		c-1.65-1.03-2.1-2.23-0.58-3.68c-0.33-1.39-0.65-2.74-0.97-4.08c-1.29-0.4-2.46-0.75-3.55-1.09c-0.65,0.58-1.19,1.06-1.73,1.54
		c0.24,1.37,0.46,2.68,0.54,3.14c1.18,1.28,2.18,1.89,2.33,2.66c0.13,0.69-0.69,1.55-1.34,2.85c0.05,0.31,0.2,1.24,0.34,2.14
		c2.58,1.22,2.24,2.71,0.48,4.23c0.33,1.55,0.64,3.01,0.94,4.45C201.85,425.54,203.69,425.54,205.76,425.54z M291.78,425.52
		c0-2.37,0-4.7,0-7.11c-3.27-1.31-6.46-2.58-9.81-3.92c-0.07,1.53-0.13,2.75-0.19,3.99c2.05,1.58,1.62,2.87-0.48,3.92
		c-0.1,1.04-0.19,2.03-0.3,3.12C284.66,425.52,288.18,425.52,291.78,425.52z M169.92,261.45c0.14-6.69-2.5-10.83-8.19-13.06
		c-0.46,3.16-0.91,6.25-1.37,9.45c2.94,0.94,5.74,1.83,9.24,2.95C169.28,260.16,169.45,260.51,169.92,261.45z M268.06,409.94
		c-1.02,5.32-2,10.41-2.99,15.58c1.9,0,3.62,0,5.57,0c0.16-2.63,0.32-5.18,0.43-6.89c1.49-3.22,0.7-5.49-0.4-7.95
		C269.88,410.46,268.82,410.16,268.06,409.94z M161.82,407.83c2.37,10.9,2.67,11.27,10.04,12.3
		C171.16,413.94,165.52,412.15,161.82,407.83z M279.93,413.83c-1.41-0.46-2.74-0.89-4.07-1.32c-0.58,0.5-1.16,1-1.76,1.52
		c-0.14,1.32-0.28,2.66-0.43,4.03c2.38,1.74,1.49,3.03-0.56,4.05c-0.13,1.19-0.24,2.28-0.36,3.41c2.13,0,4.08,0,6.05,0
		c0.18-1.88,1.01-3.7-0.4-5.48C279.98,418.28,279.78,416.12,279.93,413.83z M152.87,412.31c0.41,1.77,0.74,3.18,1.08,4.68
		c1.01,0.07,1.95,0.13,2.66,0.17c4.16-3.06-0.25-7.82,3.11-10.9c-2.03-1.13-3.59-2.01-5.33-2.98c-0.18,1.36-0.32,2.45-0.48,3.6
		c-0.25,1.44-0.49,2.87-0.74,4.31C153.07,411.56,152.97,411.94,152.87,412.31z M385.42,314.53c1.03,4.72,2.05,9.38,3.09,14.1
		c1.23,0,2.31,0,3.59,0c-1.27-4.81-2.5-9.47-3.72-14.1C387.27,314.53,386.32,314.53,385.42,314.53z M156.72,244.6
		c-0.74,3.99-1.42,7.66-2.12,11.41c1.36,0.42,2.5,0.78,3.8,1.18c0.58-3.74,1.12-7.22,1.66-10.74
		C158.91,245.81,157.91,245.27,156.72,244.6z M150.58,410.02c0.7-2.76,1.37-5.36,2.04-8.01c-1.37-0.76-2.49-1.38-3.69-2.04
		c-0.47,0.17-0.97,0.35-1.49,0.54c-0.24,1.81-0.47,3.53-0.57,4.29c0.39,1.95,0.6,2.99,0.82,4.08
		C148.61,409.23,149.63,409.64,150.58,410.02z M201.39,401.98c-0.35-1.73-0.7-3.41-1.04-5.1c-1.87-0.33-3.51-0.72-4.99,0.67
		c0.23,1.52,0.46,3,0.72,4.66c1.38,0.51,2.75,1.01,4.07,1.49C200.64,403.02,200.97,402.56,201.39,401.98z M282.78,246.11
		c-0.32,2.15-0.55,3.75-0.8,5.44c2.75,0.87,5.34,1.68,8.39,2.65C289.29,249.86,285.19,249.19,282.78,246.11z M151.62,411.78
		c-2.21-0.59-3.8-1.02-5.22-1.4c-1.79,2.16,0.59,4.03-0.14,6.06c1.04,0,1.97,0,2.94,0C149.97,414.95,150.73,413.5,151.62,411.78z
		 M373.32,314.85c-0.33,1.85-0.64,3.55-0.95,5.28c0.96,0.77,1.85,1.49,2.95,2.37c0.41-2.74,0.78-5.14,1.15-7.65
		C375.43,314.85,374.49,314.85,373.32,314.85z M299.51,279.63c-0.58-3.26-0.94-5.26-1.48-8.28c0.18-1.03-0.38-3.33-1.89-4.17
		C297.33,271.11,294.95,275.38,299.51,279.63z M372.03,322.38c-0.5,1.78-0.93,3.33-1.42,5.06c1.42,0.07,2.57,0.12,3.77,0.18
		c0.27-1.35,0.5-2.54,0.77-3.91C374.08,323.26,373.09,322.83,372.03,322.38z M380.04,316.69c-0.14-0.01-0.29-0.02-0.43-0.03
		c-0.4,3.69-0.8,7.38-1.21,11.16c0.6,0,1.17,0,1.64,0C380.04,324.03,380.04,320.36,380.04,316.69z M373.34,263.34l-0.07-0.06
		l-0.02,0.08L373.34,263.34z"/>
	<path class="st1" d="M499.53,397.86c8.95-2.73,17.17-5.24,25.4-7.75c5.08,3.9,7.41,9.81,10.94,14.84
		c3.9,5.56,7.91,11.04,12.37,17.25c3.33-12.71,3.07-24.53,1.38-36.68c10.41-4.71,20.89-4.07,31.1,0.39
		c5.29,2.31,10.11,5.7,15.14,8.6c0,8.78,0,17.56,0,26.34c-9.71-6.39-19.56-12.39-31.96-11.78c-1.23,7.85-3.24,15.26-7.04,21.81
		c1.83,2.05,3.65,4.08,5.72,6.4c2.8-4.65,5.39-8.93,7.99-13.25c9.28,1.8,17.21,6.73,25.29,11.33c0,9.79,0,19.58,0,29.38
		c-6.63-0.71-13.29-1.93-19.07-5.14c-7.15-3.97-12.38-1.58-17.71,3.47c3.66,1.22,6.48,5.43,10.44,3.78
		c8.9-3.7,17.56-2.73,26.34-0.09c0,1.46,0,2.93,0,4.39c-3.69,0.26-7.37,0.53-11.06,0.79c0,0.26,0.01,0.53,0.01,0.79
		c3.68,0.48,7.37,0.97,11.05,1.45c0,1.35,0,2.7,0,4.05c-9.21,3.99-20.05-1.77-30.23,4.82c9.14,1.03,16.83,0.61,24.09-0.43
		c-9.63,5.21-21.94,0.04-33.23,7.32c3.59,0,5.54,0,7.49,0c-37.25,22.46-75.85,24.99-115.41,7.15
		c-13.77,11.81-29.37,13.05-45.74,12.33c-14.28-0.63-28.61-0.24-42.91-0.07c-4.93,0.06-9.54-0.93-14.24-2.2
		c-5.42-1.45-10.72-5.14-16.31-3.92c-15.65,3.41-31.07,4.26-46.4-1.17c-6.61-2.34-13.35-7.32-19.7-6.82
		c-16.72,1.31-32.33,9.14-49.15,10.75c-10.82,1.04-21.81,0.52-32.56,1.94c-16.51,2.18-33.07,2.48-49.39,0.29
		c-12.04-1.62-22.74-8.38-35.03-14.84c5.64,6.09,10.15,10.96,14.73,15.91c-4.94,0-9.87-0.04-14.81,0.01
		c-4.45,0.05-8.63,0.39-12.21-3.61c-4-4.47-8.79-8.27-13.42-12.15c-7.06-5.92-13.85-11.82-24.57-8.25
		c-5.65,1.88-12.06,1.47-18.12,2.09c-0.01-0.17-0.02-0.34-0.03-0.52c7.54-1.89,15.08-3.79,22.66-5.7
		c-10.04-8.88-19.73-0.04-29.64-0.38c-1.49,6.82-4.51,12.72-8.06,18.29c-2.51,3.94-4.23,8.82-9.56,10.21c0-8.1,0-16.21,0-24.31
		c2.06-7.14,2.33-14.45,2.33-21.91c-0.91,0.12-1.62,0.21-2.33,0.3c0-0.34,0-0.68,0-1.01c0.74-0.36,1.47-0.72,2.29-1.12
		c-0.25-2.96-0.49-5.77-0.73-8.7c-0.64,0.15-1.1,0.26-1.56,0.36c0-5.63,0-11.26,0-16.88c8.73-8.7,14.47-19.03,16.96-31.43
		c8.77,2.37,16.31,6.94,23.6,11.94c5.43,3.72,10.73,7.64,16.08,11.47c8.81,7.44,16.42,16.34,26.7,21.99
		c13.6,8.23,28.03,14.34,43.48,17.01c-3.22-2.82-7.15-4.34-11.86-3.66c1.42-0.28,2.83-0.57,4.68-0.94
		c-8.34-5.46-16.97-9.24-25.91-12.36c11.69-0.04,23.38-0.08,35.08-0.13c6.12,3.21,12.25,6.41,18.4,0.05c2.83,0.03,5.67,0.06,8.5,0.1
		c-2.8,1.79-5.6,3.58-9.1,5.81c10.85,0.09,21.4,2.97,29.69-5.92c19.99-0.01,39.99-0.02,59.98-0.03c1.55,1.23,3.11,2.46,4.63,3.67
		c1.97-0.46,2.32-1.97,2.79-3.39c8.8-0.09,17.6-0.18,26.4-0.27c12.28,8.42,25.54,13.73,41.39,13.18
		c-7.96-4.61-15.32-8.87-22.68-13.13c13.3,0.02,26.6,0.04,39.9,0.07c-1.65,0.78-3.29,1.57-5.46,2.6c5.94,2.97,11.52,5.75,17.09,8.54
		c4.78-3.85,9.95-6.54,13.46-11.27c11.12,0.04,22.24,0.09,33.36,0.13c-1.02,0.27-2.05,0.82-3.06,0.77
		c-13.1-0.58-21.65,8.82-32.42,14.39c5.05,1.71,9.24,3.71,14.36,0.44c4.55-2.9,9.83-4.72,15.36-5.71
		c7.54-1.35,14.67-4.11,21.74-7.78c-1.79-0.8-3.22-1.43-4.64-2.06c7.07-0.25,9.32-6.98,14.03-10.4c0.66-0.48,1.39-0.88,2.09-1.31
		c1.36,1.23,2.72,2.46,4.26,3.85c2.95-2.72,5.79-5.34,8.64-7.97c-1.58-1.68-2.83-3.01-4.09-4.35c2.92-3.5,5.81-7.03,9.79-9.44
		c0.77,0.81,1.55,1.62,2.51,2.63c1.23-2.46,2.35-4.67,3.46-6.88c5.49-1.71,10.98-3.41,16.47-5.12c-2.58,7.7-7.68,13.81-12.73,20.1
		c2.97,4.31,7.48,1.12,10.89,2.54c7.21-8.65,12.04-18.45,17.19-27.9c24.48,6.53,41.72,23.58,59.63,39.97
		c2.38-2.95,4.53-5.63,6.94-8.63c-11.48-11.38-22.74-22.55-34.01-33.72 M156.08,490.12c-23.79-1.82-44.63-18.02-69.66-13.6
		C109.78,480.4,131.4,492.79,156.08,490.12z M486.94,484.3c0.88,0.21,4.39,0.93,7.84,1.88c3.42,0.94,6.78,2.11,10.16,3.18
		c-11.4-2.78-22.74-3.87-35.26-1.58c18.6,4.94,36.33,7.28,55.54,1.72c-7.82-1.05-13.47-5.44-20.51-5.25
		C497.93,484.45,491.13,484.3,486.94,484.3z M171.97,477c8.38,1.68,16.6,7.13,25.42,0.87c-0.8-0.13-1.38-0.23-2.75-0.46
		c8.13-0.48,13.38-5.43,19.72-8.34C198.16,461.42,186.47,476.34,171.97,477z M425.86,461.43c-7.41-6.59-20.97-7.07-32.32-0.61
		C404.77,460.88,415.04,472.06,425.86,461.43z M523.23,455.5c-9.52-4.58-18.8-8.05-29.15-9.41c4.35,3.2,8.4,6.18,12.66,9.32
		c1.97-0.4,4.19-0.84,8.73-1.75c-3.92,1.61-5.68,2.33-7.72,3.18c1.84,1.44,3.49,2.73,5.22,4.08
		C516.32,459.14,519.57,457.43,523.23,455.5z M220.96,490.66c-3.59,1.51-7.01,3.43-11.53,5.68c14.15-2.18,26.69-5.88,39.45-10.2
		c-1.41-0.83-2.46-1.45-3.53-2.06c-0.53-0.3-1.08-0.57-1.57-0.84 M408.78,486.67c-13.66-3.58-26.79-4.38-40.93,0.39
		C382.07,488.87,395.19,489.14,408.78,486.67z M21.32,443.78c15.28-0.09,27.93,4.77,39.8,12.52c0.46-1.05,0.87-2,1.36-3.12
		C49.92,445.99,37.78,438.16,21.32,443.78z M525.82,469.72c3.83-2.05,7.6-4.06,11.75-6.27c-3.69-2.17-6.81-4-9.56-5.62
		c-4.35,1.91-8.19,3.59-12.44,5.46C519.07,465.49,522.28,467.5,525.82,469.72z M184.86,483.71c-14.27-0.44-26.41-6.82-39.84-2.99
		C157.91,482.8,170.01,489.47,184.86,483.71z M229.48,459.75c-2.94-1.51-6.06-3.11-9.07-4.66c-3.34,2.05-6.4,3.93-9.58,5.88
		C217.3,462.53,223.71,467.43,229.48,459.75z M150.62,467.86c5.81-2.88,11.47-5.69,17.14-8.51c-8.89,1.98-17.77,2.39-27.84,1.33
		C144.01,463.43,147.16,465.54,150.62,467.86z M540.18,449.98c2.44,1.95,4.72,3.78,7.23,5.78c2.51-2.72,4.8-5.19,7.19-7.77
		c-2.24-1.74-4.23-3.28-6.49-5.02C545.57,445.22,543.01,447.48,540.18,449.98z M538.15,475.67c6.19,4.55,12.15,4.23,17.49-1.71
		c-2.3-1.25-4.75-2.57-7.36-3.98C544.87,471.9,541.41,473.84,538.15,475.67z M513.27,472.88c-6.52-3.61-12.91-8.99-21.02-4.39
		C498.61,472.33,505.19,476.73,513.27,472.88z M438.18,453.85c1.01-5.18,1.82-9.76,0.3-14.88c-3.95,2.81-7.07,5.03-10.46,7.44
		C431.42,448.89,434.6,451.22,438.18,453.85z M454.43,463.05c1.52-1.59,3-3.15,4.23-4.44c6.9-0.96,13.26,5.44,19.9,0.69
		c-5.23-1.49-10.56-3.01-16.11-4.58c-1.5,1.1-3.15,2.35-4.84,3.55c-1.65,1.18-3.33,2.32-5.16,3.59
		C453.15,462.28,453.58,462.54,454.43,463.05z M326.85,468.94c-3.93-3.6-9.68-4.21-18.88-2.02
		C313.69,472.39,320.12,472.13,326.85,468.94z M540.49,482.98c-6.37-1.86-12.75-5.38-19.39-0.58
		C527.44,484.26,533.77,489.05,540.49,482.98z M347.23,477.22c-6.04-3.42-11.72-3.47-17.49-0.07
		C335.63,479.36,341.43,482.81,347.23,477.22z M76.97,469.13c1.6-1.6,3.13-3.13,4.84-4.84c-3.56-1.96-6.73-3.72-9.99-5.52
		c-1.02,1.17-1.93,2.2-2.9,3.31C71.58,464.4,74.1,466.61,76.97,469.13z M201.09,451.79c-9.53,4.59-19.07,9.19-30.05,14.48
		C183.06,463.27,192.66,458.8,201.09,451.79z M23.18,473.65c-0.37,2.22-0.65,3.88-1,5.96c4.76-1.41,9.13-2.71,15.61-4.64
		C31.51,474.4,27.42,474.03,23.18,473.65z M445.05,471.19c-1.53-0.76-2.66-1.32-3.77-1.86c-2.95,1.55-5.77,3.03-9.02,4.74
		c2.14,0.84,3.79,1.48,5.5,2.15C440.14,474.58,442.43,473,445.05,471.19z"/>
	<path class="st2" d="M180.94,311.62"/>
	<polygon class="st2" points="373.34,263.34 373.25,263.36 373.27,263.28 	"/>
	<path class="st0" d="M302.16,129.49c0.2,0.23,0.4,0.46,0.6,0.69c-0.1,0.08-0.19,0.16-0.29,0.24c-0.19-0.24-0.38-0.47-0.57-0.71
		C301.99,129.64,302.07,129.57,302.16,129.49z"/>
	<path class="st0" d="M433.22,277.76c-0.1-0.18-0.19-0.36-0.67-1.28c0.69,0.78,0.81,0.92,0.93,1.05
		C433.4,277.61,433.31,277.69,433.22,277.76z"/>
	<path class="st0" d="M308.63,200c0.18,0.15,0.36,0.29,0.54,0.44c-0.11,0.12-0.21,0.23-0.32,0.35c-0.14-0.2-0.27-0.4-0.41-0.6
		C308.5,200.12,308.57,200.06,308.63,200z"/>
	<path class="st0" d="M308.44,200.18c-0.04-0.12-0.09-0.25-0.26-0.75c0.32,0.39,0.38,0.48,0.45,0.56
		C308.57,200.06,308.5,200.12,308.44,200.18z"/>
	<path class="st0" d="M338.79,255.17c-0.11,0.05-0.22,0.11,0.71-0.35c-1.14,0.22-1.02,0.2-0.89,0.17
		C338.67,255.06,338.73,255.12,338.79,255.17z"/>
	<path class="st0" d="M372.83,204.06c0.1,0.07,0.2,0.14,0.96,0.69c-0.88-0.38-1.01-0.44-1.15-0.5
		C372.7,204.18,372.76,204.12,372.83,204.06z"/>
	<path class="st0" d="M224.13,129.46c6.35-0.07,9.64-2.63,11.91-7.55c1.74-3.76,5.12-1.47,7.86-0.57c0.88,0.29,1.79,0.5,2.71,0.76
		c1.42-1.93,0.53-3.45-0.36-4.95c-1.14-1.93-2.87-4.04-1.34-6.16c1.7-2.35,4.5-1.48,6.9-0.92c1.35,0.32,2.57,1.15,3.92,1.51
		c3.14,0.84,6.75,2.23,9.28-0.35c2.3-2.34-0.46-5.02-1.31-7.42c-2.67-7.51,3.6-12.6,14.9-11.75c3.9,0.29,7.75,1.17,11.48,1.76
		c0,3.84,0,7.57,0,11.51c-3.62-1.27-6.96-2.1-10.51-1.71c-5.43,0.6-9.13,2.39-10.2,8.77c-0.93,5.52-6.3,5.48-10.88,5.51
		c-2.3,0.02-4.6,0-7.25,0c3.44,12.54-4.95,7.36-9.83,7.31c-2.39-0.02-3.86,0.97-5.14,3.04
		C233.24,133.12,229.25,132.18,224.13,129.46z"/>
	<path class="st0" d="M169.2,121.38c-7.76,1.24-17.12,0.7-20.63,8.23c-3.69,7.91-9.08,6.44-14.89,6.22
		c-7.48-0.28-10.92,5.08-14.84,10.03c-4.85,6.12-10.27,6.67-13.77,1.53c10.31,4.15,13.58-4.07,16.84-10.35
		c3.53-6.79,7.49-10.92,15.56-8.96c5.7,1.39,8.83-2.49,11.39-6.29c4.98-7.4,11.83-11.24,20.34-12.47
		C169.2,113.35,169.2,117.36,169.2,121.38z"/>
	<path class="st1" d="M31.52,490.71c14.57,3.11,27.48,9.97,40.06,18.48c-17.71,0-35.05,0-52.41,0
		C23.23,503.09,27.31,497,31.52,490.71z"/>
	<path class="st0" d="M327.7,321.79c-0.18,0.03-0.36,0.07-0.75,0.14c0.26-0.27,0.36-0.38,0.46-0.48
		C327.5,321.57,327.6,321.68,327.7,321.79z"/>
	<path class="st1" d="M513.29,454.09c0.18-0.07,0.35-0.14,0.53-0.22c0.04,0.08,0.07,0.17,0.11,0.25c-0.17,0.08-0.35,0.16-0.52,0.23
		C513.37,454.27,513.33,454.18,513.29,454.09z"/>
</g>
</svg>
